<svg xmlns="http://www.w3.org/2000/svg" viewBox="0 0 107.56 108.73"><defs><style>.cls-1{isolation:isolate;}.cls-2{fill:#bdc2d6;}.cls-3{fill:#8189b0;}.cls-4{fill:#e6e6e6;mix-blend-mode:multiply;}.cls-5{fill:#fff;opacity:0.3;}</style></defs><title>Asset 1</title><g class="cls-1"><g id="Layer_2" data-name="Layer 2"><g id="OBJECTS"><path class="cls-2" d="M107.25,54.29c0,11.66.63,22.16-9.5,29.75-3.73,2.8-9.09,12.23-12.66,15.2-9.32,7.72-21.78,9.49-34.82,9.49-11.75,0-17.11-6.27-26-12.66-5.14-3.71-11.94-6.43-15.5-11.69S6.22,73.23,4.69,67C3.7,62.86.72,57.39.26,53-1,41,2.63,36.86,6,29,14.19,9.34,18.36,15.87,24.31,11.24c4.18-3.24,5-5.35,10-7.27C40.26,1.72,46.91-1.15,53.43.48,66.1,3.65,72.88.55,80.66,4.91,88,9.05,89.52,20.74,98.11,24.29c6.49,2.68,11,15.44,8.92,18.62S107.25,50.73,107.25,54.29Z"/><path class="cls-3" d="M92.74,50.8c-.52,0-1.06,0-1.62,0a11.1,11.1,0,0,0-2.94-.45c-7.11,0-8.69,3.58-19.19,8.58-3,1.42-2.51,10.51.07,13.18s6.15,2.32,9.68,2.34c8.86,0,19.23,3.32,23.92-6.88C105.36,61.64,99.16,51.31,92.74,50.8Z"/><path class="cls-3" d="M22.49,72.51c3.68-1.28,4.94-4.06,8.38-8.11s5.39-2.39,9.19-1.29,7.42,8.55,3.5,14.11c-1.46,2.07-8.23,1.67-10.46,3.15-3.77,2.49-5.53,5.4-10,2.64C16.07,78.61,16.52,74.6,22.49,72.51Z"/><path class="cls-3" d="M67.28,41a6.69,6.69,0,0,0-3-3.21,5,5,0,0,0-5.07.59,5.84,5.84,0,0,0-1.64,5.21c0,.24.08.49.13.76-1,1.1-.46,2.8,1.08,3.46a5.39,5.39,0,0,0,4.69-.22c.85-.41,1.65-.8,2.44-1.28A3.93,3.93,0,0,0,67.28,41Z"/><path class="cls-3" d="M23.27,15.15c-2.82,2-9.27,8.9,2.8,11.6S35.75,29,43.61,21.09C49.86,16.88,56,15.72,57.26,9.79S44.65,3.3,41.09,6.59,38.21,17.37,33.49,16,26.08,13.2,23.27,15.15Z"/><path class="cls-3" d="M56.43,91.89a11.64,11.64,0,0,1-.1-2.5c.14-1.66-1.41-2.69-2.84-2.84-2.1-.22-4.14-1.59-6.28-1.3a5.24,5.24,0,0,0-.91.2,2.46,2.46,0,0,0-1.55.3c-2,1.13-2.46,3.32-1.92,5.46.4,1.59,2.11,3.12,3.3,4.16a6.14,6.14,0,0,0,6.71,1.18,5.61,5.61,0,0,0,3-2.94A2.31,2.31,0,0,0,56.43,91.89Z"/><path class="cls-3" d="M3.08,50.27c5,2.44,14,3,15-4C19,39.89,11.75,37.8,7.76,34c0-.33-.08-.61-.11-.78-.35-2.09-.31-4.13-.91-6.06-.26.58-.53,1.19-.79,1.82C2.93,36.14-.34,40.24,0,50A9.92,9.92,0,0,0,3.08,50.27Z"/><path class="cls-3" d="M73.77,9.11a8.67,8.67,0,0,0-5-2.95c-1.81-.22-3.82,1.25-5.07,2.41a2.84,2.84,0,0,0-.67.94,4.72,4.72,0,0,0-.48.41,2.8,2.8,0,0,0-.44,3.37,3.38,3.38,0,0,0,3.74,1.76,1.8,1.8,0,0,0,.33-.1c.27.18.54.38.81.55,2.69,1.64,5.84-.12,7.3-2.49A3.22,3.22,0,0,0,73.77,9.11Z"/><path class="cls-3" d="M98.33,36.47c-.55-2.35-.52-4.92-1.8-7a19.38,19.38,0,0,0-1.45-2.11c-.35-.64-.79-1.26-1.15-1.82a9.76,9.76,0,0,0-1.88-2.69,3,3,0,0,0-4.11,0l-.18.17a3,3,0,0,0-.83,2.84,2.59,2.59,0,0,0-.19.65,11.16,11.16,0,0,0-.12,1.26,3,3,0,0,0-.84,2.14c0,.13,0,.27,0,.4a5.9,5.9,0,0,0-1.52,2.84,2.9,2.9,0,0,0,1.31,3.21,20.54,20.54,0,0,0,2,.94,6.72,6.72,0,0,0,.85.32l1.08.17c-.35,0,.6.45.41.26a3.32,3.32,0,0,0,1.25.74,19.42,19.42,0,0,0,2.15,1.61C95.92,42.15,99,39.25,98.33,36.47Z"/><path class="cls-4" d="M107,42.91c2.11-3.18-2.43-15.94-8.92-18.62C89.52,20.74,88,9.05,80.66,4.91,75.93,2.26,71.56,2.36,66,2.14,74,8.3,87,19.19,87.33,25c.42,8.44-3,9.7,1.69,19s5.91,14.34,2.53,23.63-14.77,5.49-19.41,11-3,8.44-16,10.55S35,87.49,24.45,82.85,16.85,76.52,13.9,68.5c-1.69-4.56-8.3-6.81-12.82-11.79C2.17,60.21,4,64,4.69,67c1.53,6.28.61,12.22,4.12,17.43s10.36,8,15.5,11.69c8.85,6.39,14.21,12.66,26,12.66,13,0,25.5-1.77,34.82-9.49,3.57-3,8.93-12.4,12.66-15.2,10.13-7.59,9.5-18.09,9.5-29.75C107.25,50.73,104.89,46.13,107,42.91Z"/><path class="cls-5" d="M12.63,45.71c4.22,2.12,11.39,7.18,12.66,11.4s6.33,11.39,13.5,12.24,11.82,2.53,16.46-4.22,12.24-3,16.89-6.75,3.79-15.2,2.53-22,0-10.13-4.22-12.24S65,17.86,61.58,13.64c-2.52-3.15-14.93-9.13-21-12C38.4,2.39,36.32,3.21,34.32,4c-5,1.92-5.83,4-10,7.27C18.36,15.87,14.19,9.34,6,29c-1.16,2.75-2.35,5-3.37,7.38C5.2,41.37,9.89,44.34,12.63,45.71Z"/><path class="cls-5" d="M28.25,14.06c2.53-2.53,7.17-3,13.08-1.27s7.17,6.34,8.44,11S49.35,36,45.13,39.38,32,44,27,39.38s-8.44-2.53-6.75-10.13A31.12,31.12,0,0,1,28.25,14.06Z"/></g></g></g></svg>