<svg xmlns="http://www.w3.org/2000/svg" viewBox="0 0 277.21 241.95"><defs><style>.cls-1,.cls-2{fill:#fff;}.cls-2{fill-rule:evenodd;}</style></defs><title>Asset 2</title><g id="Layer_2" data-name="Layer 2"><g id="Layer_1-2" data-name="Layer 1"><path class="cls-1" d="M101.16,220.42v-3.3c-.05-21.18-3.93-30.21-13-30.21-5.18,0-12.5,2.88-22.35,8.8l-3.9,2.35,2.56-3.77c7.1-10.44,9.58-17.84,7.37-22-1.56-2.95-5.67-4.45-12.21-4.45-7.43,0-18.16,2-31.88,5.84l-4,1.11,3-2.8c8.93-8.37,12.54-14.44,11.37-19.11-1.35-5.37-9.12-9.56-26-14l-2.7-.72L12.05,137c9.3-4.22,14-8.34,13.85-12.23-.12-4.88-7.7-10.31-22.51-16.14L0,107.25l3.6-.58c21.18-3.45,32.28-7.4,33-11.76.29-1.82-1.27-5-10.39-9.72L22,83l4.72.29c3.7.23,7.07.35,10,.35,11.93,0,18.67-1.91,20.61-5.83,2.1-4.25-1-11.75-9.61-22.92l-2.58-3.35L49,53.4C67.69,62.49,79.1,66.72,84.87,66.72h0c2,0,3.18-.47,3.76-1.44,1.24-2.07,0-6.73-3.82-13.84l-2-3.78,3.48,2.5c9.82,7.06,17.18,10.35,23.15,10.35h0c9.91,0,17.29-9.16,25.51-31.63l1-2.73.9,2.76c6.48,20,13.08,28.22,22.78,28.22,6.52,0,15-3.84,26.75-12.07l2.83-2-1.34,3.2c-3.86,9.22-4.8,15.11-2.86,18,1.12,1.69,3.31,2.5,6.69,2.5,6.19,0,16.38-2.79,32.08-8.78l3.82-1.46-2.72,3.06c-8,9-11.12,14.76-9.74,18,2.12,5,15.64,5.6,34.35,6.42l5.74.25L252.84,86c-11.58,8.17-17.2,16.43-15.44,22.65,1.94,6.86,12.93,11.26,30.93,12.4l8.88.56L268.42,123c-17.83,2.88-28.26,8-31,15.32-2.08,5.56.31,12.53,7.12,20.72l1.32,1.59-2.07.05c-19.31.45-30.19,3.74-35.28,10.67-4.46,6.08-4.67,15.4-.66,29.31l.67,2.3-2.1-1.14c-17.05-9.26-28.62-13.39-37.5-13.39-11,0-18.27,6.65-23.69,21.58l-.85,2.34-1-2.27c-5.1-11.5-9.91-16.85-15.14-16.85-6.31,0-14.11,7.53-25.28,24.4Zm-13-35.51c9.93,0,14.47,8.71,14.94,29,10.78-15.83,18.37-22.63,25.15-22.63,5.83,0,10.8,4.91,16,15.85,5.67-14.26,13.36-20.65,24.71-20.65,8.86,0,20.14,3.87,36.39,12.52-3.53-13.33-3-22.51,1.59-28.78,5.3-7.22,16.08-10.78,34.83-11.43-6.31-8.12-8.4-15.22-6.19-21.12,2.6-6.94,11.19-12.07,25.56-15.27-14.89-1.85-23.71-6.37-25.64-13.19s3-14.89,13.89-23.14c-20.87-.91-33.47-1.47-36.08-7.64-1.58-3.73.67-9,7.51-17.15-14,5.19-23.09,7.53-29.11,7.53-4.1,0-6.84-1.11-8.36-3.39-2.11-3.18-1.66-8.57,1.46-16.83C174,55.85,166.13,59.13,159.62,59.13c-10.26,0-17.25-7.84-23.79-26.91-8.18,21.47-15.91,30.29-26.39,30.29h0C103.73,62.51,97,59.8,88.35,54c2.78,6,3.42,9.93,2,12.28-1,1.6-2.8,2.41-5.47,2.41h0c-5.76,0-16.05-3.65-33.1-11.76,7.4,10.3,9.68,17.09,7.38,21.76s-9.45,6.94-22.4,6.94c-1.81,0-3.78,0-5.87-.13,5.71,3.49,8.17,6.62,7.68,9.7-.84,5.24-10.49,9.23-31.16,12.82,13.82,5.8,20.36,11.11,20.5,16.62.12,4.43-4,8.68-12.57,12.94,16.06,4.49,23.3,8.84,24.79,14.77,1.23,4.88-1.69,10.75-9.14,18.33,12.23-3.28,21.64-4.88,28.66-4.88,7.34,0,12,1.86,14,5.51,2.33,4.41.64,11.15-5.18,20.54C76.89,187.14,83.22,184.91,88.17,184.91Z"/><polygon class="cls-2" points="270.32 1.18 216.52 56.01 274.64 12.55 270.32 1.18"/><polygon class="cls-2" points="262.09 36.48 229.53 55.7 266.79 42.76 262.09 36.48"/><polygon class="cls-2" points="222.51 39.22 249.53 1.57 237.77 0 222.51 39.22"/><polygon class="cls-2" points="5.08 240.78 58.89 185.94 0.77 229.4 5.08 240.78"/><polygon class="cls-2" points="13.32 205.47 45.88 186.25 8.61 199.19 13.32 205.47"/><polygon class="cls-2" points="52.9 202.73 25.87 240.38 37.64 241.95 52.9 202.73"/></g></g></svg>