<svg xmlns="http://www.w3.org/2000/svg" viewBox="0 0 1486.32 239.83"><defs><style>.cls-1{isolation:isolate;}.cls-10,.cls-2,.cls-7,.cls-8{fill:#6368a1;}.cls-10,.cls-3,.cls-4,.cls-7,.cls-8{mix-blend-mode:multiply;}.cls-4,.cls-8{opacity:0.5;}.cls-5{fill:#a893b7;}.cls-6{fill:#fffde8;}.cls-7{opacity:0.4;}.cls-9{fill:#cda9c0;}.cls-11{fill:#acb7df;}</style></defs><title>Asset 2</title><g class="cls-1"><g id="Layer_2" data-name="Layer 2"><g id="land"><path class="cls-2" d="M1423.91,31.26H990.82V239.83h495.5V57.54C1486.32,43,1458.39,31.26,1423.91,31.26Z"/><g class="cls-3"><path class="cls-2" d="M1013.78,233.85l21.06-5.7,28.93-43.26v46L1077,236.4l26.68-37.5,21,27.44,10.84-53.7,9.6,58.22s11.14-12.09,15.48-19.13S1205,154.91,1205,154.91l17.88,69.6,33.71,6.35,22.2-70.2,13.72,56.82L1312,160.66l-2.74,55.51,21.06,14.69,37.65-35,6.94,25.9,33.45,7.72-4.67-38.34,47.4,39.74,35.27-43.64v52.61H990.82V187.24Z"/></g><path class="cls-2" d="M1486.32,62.56v-5a12,12,0,0,1-1.17,5Z"/><g class="cls-4"><path class="cls-2" d="M1204.91,166.19c.14,0,.07.48-.18,1.27C1204.71,166.6,1204.76,166.15,1204.91,166.19Z"/><polygon class="cls-2" points="1335.05 31.26 1374.76 31.26 1369.35 70.22 1422.1 239.83 1372.88 239.83 1367.93 204.98 1343.73 239.83 1295.96 239.83 1332.18 60.49 1335.05 31.26"/><path class="cls-2" d="M1051.58,85.52c.13.07.07.77-.16,2C1051.41,86.17,1051.46,85.45,1051.58,85.52Z"/><path class="cls-2" d="M1139,90l-5.82,149.79h37.55c13.26-27,31.63-65,34-72.37,0-.86,0-1.31.18-1.27s.07.48-.18,1.27c.23,7.31,6.58,45.32,11.23,72.37h67.72l-9.62-155-3.44-53.57h-89.49Z"/><path class="cls-2" d="M990.82,31.26h92l-2.42,31.3,30.26,177.27h-46c-2.94-30.74-12.93-136.44-13.21-152.29.23-1.25.29-2,.16-2s-.17.65-.16,2c-2.75,15.92-31,121.56-39.25,152.29H990.82Z"/><path class="cls-2" d="M1448.85,53s-13.86,83-13.79,93.78c-3.75-10.52-44.27-90.44-44.27-90.44Z"/><path class="cls-2" d="M1435.27,147.94c-.14,0-.21-.42-.21-1.15C1435.34,147.57,1435.42,148,1435.27,147.94Z"/></g><path class="cls-5" d="M1423.91,31.26H990.82v31.3h89.54L1139,90l135-5.21,58.12-24.34,37.17,9.73,115.8-7.66a12,12,0,0,0,1.17-5C1486.32,43,1458.39,31.26,1423.91,31.26Z"/><path class="cls-2" d="M1026.38,52.73c0,1.12-5.39,2-12.05,2s-12-.9-12-2,5.39-2,12-2S1026.38,51.61,1026.38,52.73Z"/><path class="cls-2" d="M1072.2,45c0,.63-3,1.15-6.77,1.15s-6.78-.52-6.78-1.15,3-1.14,6.78-1.14S1072.2,44.41,1072.2,45Z"/><path class="cls-2" d="M1132.39,35.24c0,.63-3,1.14-6.77,1.14s-6.77-.51-6.77-1.14,3-1.14,6.77-1.14S1132.39,34.61,1132.39,35.24Z"/><path class="cls-2" d="M1201.78,50.69c0,1.13-5.39,2-12,2s-12-.91-12-2,5.39-2,12-2S1201.78,49.58,1201.78,50.69Z"/><path class="cls-2" d="M1276.31,55.63c0,.64-3,1.14-6.78,1.14s-6.76-.5-6.76-1.14,3-1.13,6.76-1.13S1276.31,55,1276.31,55.63Z"/><path class="cls-2" d="M1336.5,45.83c0,.63-3,1.15-6.76,1.15s-6.78-.52-6.78-1.15,3-1.14,6.78-1.14S1336.5,45.21,1336.5,45.83Z"/><path class="cls-2" d="M1449.65,42.14c0,1.12-5.39,2-12.05,2s-12-.91-12-2,5.39-2,12-2S1449.65,41,1449.65,42.14Z"/><path class="cls-6" d="M990.82,62.56l44.77.33,44.77.25-1-.19c19.39,9.23,38.6,18.53,58.13,27.7l.72.34,1.08-.06c45-1.71,90.06-3.24,135-5.11l.85,0,.59-.26,57.93-24.41-2.59.12,37.38,9.59.55.14.61,0,57.8-4.11,57.74-4.26L1427.09,66l-58,3.58,1.17.09-37-9.88-1.39-.37-1.2.49-58.3,24.26,1.45-.28c-45,1.61-90,3.54-135,5.3l1.79.3c-19.58-9.15-39.48-18.19-59.22-27.29L1081,62h-.62l-44.77.26Z"/><path class="cls-2" d="M1202.68,80.23c0,2.46,14.85,4.44,33.15,4.44s33.16-2,33.16-4.44-14.85-4.42-33.16-4.42S1202.68,77.79,1202.68,80.23Z"/><path class="cls-7" d="M1222.86,80.18c0,1.63,9.84,2.95,22,2.95s22-1.32,22-2.95-9.84-2.93-22-2.93S1222.86,78.56,1222.86,80.18Z"/><path class="cls-2" d="M1357.64,57.54c0,2.44,14.85,4.42,33.15,4.42s33.15-2,33.15-4.42-14.84-4.44-33.15-4.44S1357.64,55.08,1357.64,57.54Z"/><path class="cls-7" d="M1377.8,57.47c0,1.63,9.85,3,22,3s22-1.32,22-3-9.84-2.93-22-2.93S1377.8,55.85,1377.8,57.47Z"/><path class="cls-2" d="M1105.26,46c0,1.43,8.62,2.57,19.25,2.57s19.26-1.14,19.26-2.57-8.63-2.57-19.26-2.57S1105.26,44.6,1105.26,46Z"/><path class="cls-7" d="M1117,46c0,.95,5.72,1.72,12.77,1.72s12.78-.77,12.78-1.72-5.72-1.7-12.78-1.7S1117,45.05,1117,46Z"/><path class="cls-2" d="M1170.49,36.68c0,1.42,8.62,2.57,19.26,2.57S1209,38.1,1209,36.68s-8.63-2.58-19.26-2.58S1170.49,35.26,1170.49,36.68Z"/><path class="cls-7" d="M1182.2,36.65c0,.94,5.72,1.7,12.77,1.7s12.79-.76,12.79-1.7S1202,34.93,1195,34.93,1182.2,35.7,1182.2,36.65Z"/><path class="cls-5" d="M1446.41,67.84l-11.35,78.95S1455.39,113.46,1446.41,67.84Z"/><path class="cls-5" d="M1371.52,77.25l46.94,150.9S1371.37,117.19,1371.52,77.25Z"/><path class="cls-5" d="M1274.51,92.13l9,144.27S1264.62,139.44,1274.51,92.13Z"/><path class="cls-5" d="M1367.93,205l-23.28,33.52S1346.39,221.74,1367.93,205Z"/><path class="cls-5" d="M1204.84,169.11l10.89,69.39S1200.17,199.73,1204.84,169.11Z"/><path class="cls-5" d="M1138.73,97.82l-5.51,136.86S1128.78,137,1138.73,97.82Z"/><path class="cls-5" d="M1051.53,90.43l12.24,140.43S1068.86,137.69,1051.53,90.43Z"/><path class="cls-2" d="M1249.06,35.83l33.22-32.62s8.15.91,8.39.67L1345.2,4l54.51-.07c.22.24,8.37-.67,8.37-.67l33.24,32.65h0c.18.12.32.25.32.37,0,2.67-43.2,4.83-96.46,4.83s-96.44-2.16-96.44-4.83C1248.72,36.09,1248.86,36,1249.06,35.83Z"/><polygon class="cls-8" points="1394.86 4.81 1397.52 4.75 1403.16 15.92 1394.17 7.28 1386.67 4.45 1394.86 4.81"/><path class="cls-8" d="M1372.87,7.49l2.73,19L1365.21,7.74l-.34-2.34a4.69,4.69,0,0,1,2.61-.13C1368.78,5.65,1372.87,7.49,1372.87,7.49Z"/><path class="cls-8" d="M1342.79,7.08l.48.44s-9.67,12.78-9.67,12.85-5.14-12.61-5.14-12.61l4-2.62Z"/><path class="cls-8" d="M1298.93,12.65c-1.4,1.13-2.83,2.27-4.22,3.4.4-4,1.54-9.83,1.54-9.83s6.13-1.66,8.29-1.45l2.67,1.6c-.29,0-3.75.27-3.75.27Z"/><path class="cls-9" d="M1345.16,0c34.76,0,62.92,1.44,62.92,3.21,0,.78-1.49,1.49-10.64,2.05-7.32-.43-9.07-.36-8.75,0,0,.08,5.42,1.94,5.48,2-6,.29-13.42,0-21.3.21-.4-.29-5.76-1.89-6.14-2.19-.58-.47-1.53,2.21-1.52,2.44-6.1.11-14.66-.21-21.43-.21-3.32,0-10-2.21-10.62-1.81-.34.2-4.37,1.82-4.7,2-10.46-.11-17.17-.77-25-1.12a19.29,19.29,0,0,1,1.14-1.75c.22-.45-7,1-8.35,1.33-10.36-.57-14-2.18-14-3C1282.24,1.44,1310.41,0,1345.16,0Z"/><path class="cls-6" d="M1408.08,3.21c0,.45-.76.82-1.69,1a25.32,25.32,0,0,1-2.89.45c-2,.2-4.07.32-6.13.43h.1l-4.09-.27c-1.4,0-2.67-.16-4.31-.08-.28,0-1.48.25-.85.69l.75.28,1.53.58,3,1.09.62-.43L1383.52,7h-10.68l1,.21c-.5-.21-1.11-.47-1.57-.63l-1.42-.48-1.4-.47-1.23-.42-.23-.1-.14,0-.06,0,0,0-.29-.15-.1,0a2.87,2.87,0,0,0-1.46,0,1.67,1.67,0,0,0-.47.23c-.09.09-.2.18-.26.25a3.88,3.88,0,0,0-.48.79l-.35.77-.14.4a1.33,1.33,0,0,0-.11.45l1.11-.51L1345.32,7c-.88,0-1.64,0-2.29-.07a18.48,18.48,0,0,1-2-.3c-1.44-.26-2.87-.6-4.34-1-.77-.16-1.43-.33-2.5-.47a2.89,2.89,0,0,0-.54,0,3.42,3.42,0,0,0-1,.11,2.8,2.8,0,0,0-.48.2l-.22.09L1331,6l-3.45,1.5.92-.2-12.43-.39c-2.09-.06-4.17-.19-6.25-.28l-6.26-.3.7.34.83-1.34.2-.33,0,0h0l0-.16h0v0h0a1.19,1.19,0,0,0-.63-.22,4,4,0,0,0-.75,0c-.65,0-1.17.15-1.72.22-2.14.37-4.15.79-6.16,1.3l.33,0a76.52,76.52,0,0,1-8-.71,25.38,25.38,0,0,1-3.66-.77c-1.1-.3-2.22-.74-2.42-1.32.11.59,1.2,1.06,2.27,1.41a24,24,0,0,0,3.62.86,73.52,73.52,0,0,0,8,1h.13l.2,0c1.93-.42,4-.79,6.1-1.11a14.36,14.36,0,0,1,1.51-.18s.32,0,.08,0-.36-.24-.29-.14V5h0c0,.16,0-.18,0-.16h0l0,0-.25.35-1,1.41-.2.28.9.06,6.21.4c2.06.12,4.12.28,6.21.37l12.63.48.42,0,.51-.22,3.5-1.5c.43-.23,1.66-.62.68-.35.51.07,1.3.25,2,.41,1.43.33,2.88.7,4.46,1,.82.14,1.55.28,2.65.39s1.87,0,2.65.08c6.57.13,13.24.15,20,.16h1l.15-.51.21-.66.29-.72a3.6,3.6,0,0,1,.4-.67l.09-.11s0,0-.18.08a2.09,2.09,0,0,1-1.27,0l.06,0h0l-.26-.13.06,0,.09,0,.2.08.41.18a15.06,15.06,0,0,0,1.52.54l1.42.48,1.4.46,1.11.39.63.22h.34l10.59-.1,10.73-.24,1.69,0-1-.39L1391.64,6l-1.59-.57-.79-.26c.18.13-.26.17.13.12,1.08-.09,2.59,0,3.9,0l4.08.16h.1c2.07-.17,4.13-.33,6.13-.61a22.49,22.49,0,0,0,2.89-.53C1407.41,4.07,1408.15,3.66,1408.08,3.21Z"/><path class="cls-10" d="M1307.29,1.51c.74.23,3.94.76,3.79.35a1.67,1.67,0,0,0-.3-.51c5.73-.24,12.84-.42,20.78-.52.64.41,3.59,1.68,3.52,1.19A8.5,8.5,0,0,1,1335,.81q4.8-.06,9.9-.06c11.67,0,22.39.18,30.76.46,0,.27,1.27,1.34,1.85,1a15,15,0,0,0,1.42-.89c9,.37,14.58.89,14.58,1.46,0,1.13-21.77,2-48.61,2s-48.62-.91-48.62-2C1296.25,2.3,1300.4,1.86,1307.29,1.51Z"/><path class="cls-10" d="M1344.17,2.22a374.75,374.75,0,0,1,37.55,1.9c-8.91.44-22.11.71-36.85.71-16.36,0-30.83-.34-39.64-.85C1318.15,3.15,1331.1,2.27,1344.17,2.22Z"/><path class="cls-8" d="M1415.64,19.16a128.93,128.93,0,0,1,11.2,9.07c3.82,3.74,4,7.55,4,7.55l-6.06-5.15Z"/><path class="cls-8" d="M1386.67,15.93a142.5,142.5,0,0,1,11.19,11.52,17.68,17.68,0,0,1,4,9.57l-10.45-6.08Z"/><path class="cls-8" d="M1351,14.81a51.59,51.59,0,0,0-3.1,8.46,10.78,10.78,0,0,0,1,6.65l4.72-4.78Z"/><path class="cls-8" d="M1310.21,23.91a93.6,93.6,0,0,0-7.78,7.91,12,12,0,0,0-2.78,6.56l7.27-4.16Z"/><path class="cls-8" d="M1304.71,19.51a45.23,45.23,0,0,0-3.74,3.81,5.66,5.66,0,0,0-1.33,3.16l3.5-2Z"/><path class="cls-8" d="M1386.81,32.35a26.38,26.38,0,0,0,1.8,4.06,11.67,11.67,0,0,0,3,3l.32-2.49Z"/><path class="cls-8" d="M1409.42,16a26.32,26.32,0,0,0,1.79,4.06,11.54,11.54,0,0,0,3,3l.32-2.5Z"/><path class="cls-8" d="M1287.51,11.93a97.15,97.15,0,0,0-7.78,7.89,12.06,12.06,0,0,0-2.76,6.56l7.27-4.16Z"/><path class="cls-8" d="M1267.17,30.08a38.3,38.3,0,0,0,3.3-2.84,5.11,5.11,0,0,0,1.39-2.4l-2.92,1.47Z"/><path class="cls-11" d="M1327,32.46a3.29,3.29,0,0,1,3.66-.45c1,.54.78,1.22.56,1.85a3,3,0,0,1-2.28,2,1.67,1.67,0,0,1-.63,0,2.65,2.65,0,0,1-1.87-.64C1325.55,34.41,1326.3,33.25,1327,32.46Z"/><path class="cls-11" d="M1321.68,36.38c.46-.37,1.41-.55,1.81.06s-.53,1.2-1.69.72C1321.28,37,1321.36,36.62,1321.68,36.38Z"/><path class="cls-11" d="M1321.93,27.61a2.35,2.35,0,0,1,1.92-1.13c1.62,0,1.85,1.87,1.85,2.33a1.44,1.44,0,0,1-1,1.52,2.92,2.92,0,0,1-3.3-.84A2.43,2.43,0,0,1,1321.93,27.61Z"/><path class="cls-11" d="M1361.64,27.44a2.33,2.33,0,0,1-2.74.46,1.14,1.14,0,0,1-.76-1.41,1.9,1.9,0,0,1,1.44-1.63,1.28,1.28,0,0,1,.48,0,2.42,2.42,0,0,1,1.56.45C1362.45,25.89,1362.05,26.81,1361.64,27.44Z"/><path class="cls-11" d="M1382.26,28.22a1,1,0,0,1-1.39,0c-.32-.37.18-.95,1.16-.62C1382.47,27.76,1382.47,28,1382.26,28.22Z"/><path class="cls-11" d="M1383.55,35a1.47,1.47,0,0,1-1.29.94c-1.25.05-1.75-1.4-1.83-1.75a.93.93,0,0,1,.49-1.21,2.56,2.56,0,0,1,2.69.55A1.76,1.76,0,0,1,1383.55,35Z"/><path class="cls-11" d="M1394,15.13c0,.61-1,1.09-2.37.74a2.09,2.09,0,0,1-1.59-1.27c-.21-.48-.48-1.38.4-1.73a1,1,0,0,1,.44-.08,3.35,3.35,0,0,1,1.79.26A2,2,0,0,1,1394,15.13Z"/><path class="cls-11" d="M1409.5,21.42c-.11.3-.68.55-1.34.16s-.38-.95.76-.73C1409.43,20.94,1409.58,21.19,1409.5,21.42Z"/><path class="cls-11" d="M1414.87,27.81a.77.77,0,0,1-.68,1c-1.17.2-2.53-1.14-2.81-1.47s-.71-.85-.27-1.22c.71-.6,2.39-.13,2.94.24A2.45,2.45,0,0,1,1414.87,27.81Z"/><path class="cls-11" d="M1283.77,32.12a2.34,2.34,0,0,1-2.74.45,1.11,1.11,0,0,1-.75-1.4,1.88,1.88,0,0,1,1.44-1.64,1.43,1.43,0,0,1,.47,0,2.54,2.54,0,0,1,1.57.46C1284.57,30.57,1284.2,31.48,1283.77,32.12Z"/><path class="cls-11" d="M1313,9.89a1,1,0,0,1-1.41,0c-.31-.37.22-.95,1.19-.62C1313.16,9.43,1313.16,9.7,1313,9.89Z"/><path class="cls-11" d="M1314.24,16.67a1.45,1.45,0,0,1-1.29.93c-1.26.06-1.75-1.39-1.83-1.75a.93.93,0,0,1,.49-1.2,2.58,2.58,0,0,1,2.7.56A1.87,1.87,0,0,1,1314.24,16.67Z"/><path class="cls-2" d="M1004.27,38.37l17.11-16.81a42,42,0,0,0,4.33.34l28.09.05,28.08-.05a42.25,42.25,0,0,0,4.32-.34l17.13,16.82h0c.1.07.16.13.16.18,0,1.39-22.24,2.5-49.67,2.5s-49.69-1.11-49.69-2.5C1004.1,38.5,1004.17,38.43,1004.27,38.37Z"/><polygon class="cls-8" points="1079.38 22.39 1080.76 22.35 1083.66 28.11 1079.03 23.66 1075.15 22.21 1079.38 22.39"/><path class="cls-8" d="M1068.06,23.77l1.39,9.77-5.34-9.64-.18-1.22a2.48,2.48,0,0,1,1.35-.06C1066,22.82,1068.06,23.77,1068.06,23.77Z"/><path class="cls-8" d="M1052.56,23.56l.25.22s-5,6.58-5,6.62-2.66-6.49-2.66-6.49l2.06-1.36Z"/><path class="cls-8" d="M1030,26.42l-2.17,1.76c.21-2.07.79-5.06.79-5.06a20.07,20.07,0,0,1,4.27-.75l1.38.82-1.94.14Z"/><path class="cls-9" d="M1053.79,19.91c17.88,0,32.41.74,32.41,1.65,0,.4-.77.77-5.49,1.06-3.78-.23-4.66-.19-4.51,0,0,0,2.79,1,2.83,1-3.08.15-6.92,0-11,.11-.22-.16-3-1-3.17-1.14s-.78,1.15-.78,1.27c-3.14.05-7.56-.11-11-.11-1.7,0-5.13-1.13-5.47-.94-.18.11-2.26.94-2.43,1.06-5.38-.06-8.84-.41-12.88-.58,0-.13.53-.78.59-.91s-3.62.52-4.3.7c-5.33-.3-7.22-1.12-7.22-1.56C1021.36,20.65,1035.89,19.91,1053.79,19.91Z"/><path class="cls-6" d="M1086.2,21.56c0,.22-.4.42-.88.52s-1,.17-1.49.24c-1,.1-2.1.17-3.14.22h0l-2.1-.15c-.71,0-1.38-.09-2.22,0-.14,0-.76.15-.45.36l.39.14.8.31,1.52.56.33-.23-5.44,0H1068l.5.12c-.26-.12-.57-.25-.8-.33l-.75-.24-.71-.25c-.24-.08-.5-.17-.63-.23l-.12,0-.07,0h0l-.14-.08-.06,0a1.58,1.58,0,0,0-.75,0,1.08,1.08,0,0,0-.26.12l-.11.13a2.13,2.13,0,0,0-.26.41l-.17.4-.08.19a.61.61,0,0,0,0,.23l.57-.25-10.22-.12c-.47,0-.86,0-1.2,0a9.88,9.88,0,0,1-1-.16c-.75-.14-1.49-.31-2.24-.49-.4-.07-.74-.17-1.28-.25h-.28a1.57,1.57,0,0,0-.54.06c-.28.1-.18.06-.25.1l-.12,0-.43.2-1.78.78.48-.11-6.41-.2c-1.07,0-2.14-.09-3.21-.14l-3.23-.15.36.17.42-.68.11-.19h0v-.09h0v0a.69.69,0,0,0-.32-.11,2.36,2.36,0,0,0-.39,0c-.34,0-.59.08-.89.13-1.1.18-2.12.4-3.17.66l.18,0c-1.4-.08-2.8-.16-4.12-.37a12.89,12.89,0,0,1-1.89-.38c-.57-.16-1.14-.38-1.25-.69.06.31.62.54,1.18.73a13.34,13.34,0,0,0,1.86.45,39,39,0,0,0,4.15.48h.07l.1,0c1-.2,2.08-.4,3.13-.57.27,0,.55-.08.78-.09,0,0,.18,0,0,0s-.19-.12-.15-.07h0c0,.08,0-.09,0-.08h0l0,0-.12.17-.5.74-.1.15.46,0,3.21.2c1.06.07,2.11.15,3.2.2l6.5.25h.22l.26-.1,1.8-.78c.22-.12.86-.32.35-.19.26,0,.67.13,1,.22.74.18,1.48.36,2.3.52a12.53,12.53,0,0,0,1.36.2c.5,0,1,0,1.37,0,3.39.06,6.83.08,10.28.09h.5l.07-.26.11-.35.15-.37a1.63,1.63,0,0,1,.21-.34l0,0-.1,0a1.14,1.14,0,0,1-.64,0l0,0h0s.14.06-.12-.07l0,0,0,0,.11,0,.19.09c.32.13.55.2.8.28l.72.25.73.24.58.2.32.1h.17l5.47,0,5.52-.12h.87l-.54-.21-1.68-.61-.81-.29-.41-.15c.09.08-.12.1.06.07a19.22,19.22,0,0,1,2,0l2.12.08h0c1-.08,2.12-.17,3.14-.31a12.57,12.57,0,0,0,1.5-.27C1085.85,22,1086.22,21.78,1086.2,21.56Z"/><path class="cls-10" d="M1034.26,20.69c.39.12,2,.39,2,.17a1.53,1.53,0,0,0-.16-.26c2.94-.12,6.62-.22,10.71-.27.33.22,1.84.86,1.8.62s0-.42,0-.63l5.1,0c6,0,11.53.08,15.85.23,0,.15.65.69,1,.52s.49-.3.73-.45c4.64.2,7.52.46,7.52.75,0,.58-11.22,1-25,1s-25.05-.46-25.05-1C1028.58,21.1,1030.72,20.86,1034.26,20.69Z"/><path class="cls-10" d="M1053.26,21.06a184.52,184.52,0,0,1,19.36,1c-4.6.22-11.4.35-19,.35-8.43,0-15.88-.17-20.42-.43C1039.86,21.53,1046.53,21.07,1053.26,21.06Z"/><path class="cls-8" d="M1090.09,29.78a67,67,0,0,1,5.78,4.68,6.26,6.26,0,0,1,2,3.88l-3.12-2.65Z"/><path class="cls-8" d="M1075.15,28.11a72.77,72.77,0,0,1,5.78,5.94,9.07,9.07,0,0,1,2,4.92l-5.37-3.13Z"/><path class="cls-8" d="M1056.8,27.53a26.47,26.47,0,0,0-1.6,4.36,5.62,5.62,0,0,0,.52,3.44l2.43-2.46Z"/><path class="cls-8" d="M1035.77,32.24a46.24,46.24,0,0,0-4,4,6.25,6.25,0,0,0-1.42,3.38l3.74-2.14Z"/><path class="cls-8" d="M1032.94,30a25.53,25.53,0,0,0-1.93,2,2.9,2.9,0,0,0-.68,1.62l1.79-1Z"/><path class="cls-8" d="M1075.24,36.58a12.73,12.73,0,0,0,.92,2.09,6.21,6.21,0,0,0,1.55,1.52l.16-1.29Z"/><path class="cls-8" d="M1086.88,28.15a12.78,12.78,0,0,0,.93,2.09,6.1,6.1,0,0,0,1.53,1.52l.17-1.28Z"/><path class="cls-8" d="M1024.08,26.05a51.09,51.09,0,0,0-4,4.07,6.32,6.32,0,0,0-1.43,3.38l3.75-2.15Z"/><path class="cls-8" d="M1013.6,35.41a20.54,20.54,0,0,0,1.7-1.47,2.55,2.55,0,0,0,.71-1.23l-1.5.76Z"/><path class="cls-11" d="M1044.43,36.64a1.65,1.65,0,0,1,1.88-.23c.52.27.41.62.29.94a1.57,1.57,0,0,1-1.18,1,1.07,1.07,0,0,1-.31,0,1.36,1.36,0,0,1-1-.35C1043.68,37.64,1044.07,37.05,1044.43,36.64Z"/><path class="cls-11" d="M1041.68,38.65c.24-.19.73-.28.93,0s-.26.62-.86.37C1041.47,39,1041.51,38.78,1041.68,38.65Z"/><path class="cls-11" d="M1041.8,34.12a1.29,1.29,0,0,1,1-.58c.84,0,1,1,1,1.2a.74.74,0,0,1-.5.8,1.53,1.53,0,0,1-1.7-.44A1.29,1.29,0,0,1,1041.8,34.12Z"/><path class="cls-11" d="M1062.27,34.05a1.21,1.21,0,0,1-1.41.24.57.57,0,0,1-.39-.73,1,1,0,0,1,.74-.85h.24a1.37,1.37,0,0,1,.82.23C1062.67,33.25,1062.48,33.72,1062.27,34.05Z"/><path class="cls-11" d="M1072.89,34.44a.53.53,0,0,1-.72,0c-.16-.19.1-.49.6-.32C1073,34.21,1073,34.35,1072.89,34.44Z"/><path class="cls-11" d="M1073.56,38a.76.76,0,0,1-.67.47c-.65,0-.9-.71-.94-.9s-.09-.46.25-.62a1.33,1.33,0,0,1,1.4.29A1.07,1.07,0,0,1,1073.56,38Z"/><path class="cls-11" d="M1079,27.71c0,.3-.51.57-1.22.38a1.07,1.07,0,0,1-.82-.66c-.12-.24-.25-.7.19-.89a.86.86,0,0,1,.24,0,1.58,1.58,0,0,1,.92.14A1.06,1.06,0,0,1,1079,27.71Z"/><path class="cls-11" d="M1086.92,30.94c-.05.16-.34.29-.69.08s-.2-.47.39-.37C1086.9,30.7,1087,30.82,1086.92,30.94Z"/><path class="cls-11" d="M1089.69,34.23c0,.26,0,.49-.35.54-.6.11-1.3-.58-1.45-.75s-.36-.45-.14-.63,1.23-.08,1.52.11A1.36,1.36,0,0,1,1089.69,34.23Z"/><path class="cls-11" d="M1022.16,36.45a1.21,1.21,0,0,1-1.42.24.57.57,0,0,1-.38-.73,1,1,0,0,1,.73-.84,1,1,0,0,1,.25,0,1.33,1.33,0,0,1,.81.24C1022.56,35.66,1022.37,36.12,1022.16,36.45Z"/><path class="cls-11" d="M1037.19,25a.52.52,0,0,1-.72,0c-.18-.19.1-.49.6-.32C1037.3,24.77,1037.3,24.9,1037.19,25Z"/><path class="cls-11" d="M1037.85,28.5a.72.72,0,0,1-.66.47c-.65,0-.9-.71-.94-.89a.49.49,0,0,1,.24-.63,1.34,1.34,0,0,1,1.39.29A.88.88,0,0,1,1037.85,28.5Z"/><path class="cls-2" d="M62.41,31.26H495.5V239.83H0V57.54C0,43,27.93,31.26,62.41,31.26Z"/><g class="cls-3"><path class="cls-2" d="M472.54,233.85l-21.06-5.7-28.93-43.26v46l-13.19,5.54-26.67-37.5-21,27.44-10.84-53.7-9.6,58.22s-11.15-12.09-15.49-19.13-44.41-56.82-44.41-56.82l-17.88,69.6-33.71,6.35-22.2-70.2-13.73,56.82-19.46-56.82,2.75,55.51L156,230.86l-37.65-35-6.94,25.9L78,229.46l4.67-38.34-47.4,39.74L0,187.22v52.61H495.5V187.24Z"/></g><path class="cls-2" d="M0,62.56v-5a12,12,0,0,0,1.17,5Z"/><g class="cls-4"><path class="cls-2" d="M281.41,166.19c-.14,0-.07.48.18,1.27C281.61,166.6,281.56,166.15,281.41,166.19Z"/><polygon class="cls-2" points="151.28 31.26 111.56 31.26 116.97 70.22 64.22 239.83 113.44 239.83 118.39 204.98 142.59 239.83 190.36 239.83 154.14 60.49 151.28 31.26"/><path class="cls-2" d="M305.18,31.26H215.7l-3.43,53.57-9.64,155h67.73c4.65-27.05,11-65.06,11.23-72.37-.25-.79-.32-1.23-.18-1.27s.2.41.18,1.27c2.34,7.34,20.7,45.33,34,72.37H353.1L347.28,90Z"/><path class="cls-2" d="M495.5,31.26h-92L406,62.56,375.69,239.83h46c2.93-30.74,12.93-136.44,13.2-152.29-.23-1.25-.28-2-.16-2s.17.65.16,2c2.74,15.92,31,121.56,39.25,152.29H495.5Z"/><path class="cls-2" d="M37.46,53s13.87,83,13.8,93.78C55,136.27,95.53,56.35,95.53,56.35Z"/><path class="cls-2" d="M51.05,147.94c.14,0,.21-.42.21-1.15C51,147.57,50.9,148,51.05,147.94Z"/></g><path class="cls-5" d="M62.41,31.26H495.5v31.3H406L347.28,90l-135-5.21L154.14,60.49,117,70.22,1.17,62.56a12,12,0,0,1-1.17-5C0,43,27.93,31.26,62.41,31.26Z"/><path class="cls-2" d="M434.74,41.37c0,1.12,5.39,2,12,2s12-.91,12-2-5.39-2-12-2S434.74,40.24,434.74,41.37Z"/><path class="cls-2" d="M414.11,45c0,.63,3,1.15,6.78,1.15s6.78-.52,6.78-1.15-3-1.14-6.78-1.14S414.11,44.41,414.11,45Z"/><path class="cls-2" d="M353.92,35.24c0,.63,3,1.14,6.78,1.14s6.78-.51,6.78-1.14-3.05-1.14-6.78-1.14S353.92,34.61,353.92,35.24Z"/><path class="cls-2" d="M284.54,50.69c0,1.13,5.39,2,12,2s12-.91,12-2-5.39-2-12-2S284.54,49.58,284.54,50.69Z"/><path class="cls-2" d="M210,55.63c0,.64,3,1.14,6.78,1.14s6.77-.5,6.77-1.14-3-1.13-6.77-1.13S210,55,210,55.63Z"/><path class="cls-2" d="M149.81,45.83c0,.63,3,1.15,6.78,1.15s6.77-.52,6.77-1.15-3-1.14-6.77-1.14S149.81,45.21,149.81,45.83Z"/><path class="cls-2" d="M36.68,42.14c0,1.12,5.4,2,12,2s12-.91,12-2-5.38-2-12-2S36.68,41,36.68,42.14Z"/><path class="cls-6" d="M495.5,62.56l-44.77.33L406,63.14,407,63c-19.38,9.23-38.6,18.53-58.13,27.7l-.72.34-1.08-.06c-45-1.71-90.06-3.24-135-5.11l-.86,0-.59-.26L152.65,61.12l2.59.12-37.37,9.59-.55.14-.61,0-57.8-4.11L1.17,62.56,59.23,66l58,3.58-1.17.09,37-9.88,1.4-.37,1.19.49,58.32,24.26-1.45-.28c45,1.61,90,3.54,135,5.3l-1.78.3c19.58-9.15,39.48-18.19,59.22-27.29l.43-.2H406l44.77.26Z"/><path class="cls-2" d="M274.63,75.81c0,2.44-14.86,4.42-33.15,4.42s-33.15-2-33.15-4.42,14.84-4.44,33.15-4.44S274.63,73.35,274.63,75.81Z"/><path class="cls-7" d="M254.46,75.75c0,1.62-9.84,2.94-22,2.94s-22-1.32-22-2.94,9.85-2.94,22-2.94S254.46,74.13,254.46,75.75Z"/><path class="cls-2" d="M128.68,57.54C128.68,60,113.83,62,95.53,62s-33.15-2-33.15-4.42S77.21,53.1,95.53,53.1,128.68,55.08,128.68,57.54Z"/><path class="cls-7" d="M108.52,57.47c0,1.63-9.85,3-22,3s-22-1.32-22-3,9.84-2.93,22-2.93S108.52,55.85,108.52,57.47Z"/><path class="cls-2" d="M381.06,46c0,1.43-8.63,2.57-19.25,2.57S342.55,47.46,342.55,46s8.63-2.57,19.26-2.57S381.06,44.6,381.06,46Z"/><path class="cls-7" d="M369.35,46c0,.95-5.72,1.72-12.77,1.72S343.8,46.94,343.8,46s5.72-1.7,12.78-1.7S369.35,45.05,369.35,46Z"/><path class="cls-2" d="M363.05,68.46c0,1.42-8.63,2.58-19.25,2.58s-19.26-1.16-19.26-2.58,8.62-2.59,19.26-2.59S363.05,67,363.05,68.46Z"/><path class="cls-7" d="M351.34,68.42c0,1-5.72,1.72-12.78,1.72s-12.76-.77-12.76-1.72,5.71-1.7,12.76-1.7S351.34,67.49,351.34,68.42Z"/><path class="cls-5" d="M39.91,67.84l11.35,78.95S30.93,113.46,39.91,67.84Z"/><path class="cls-5" d="M114.79,77.25,67.86,228.15S115,117.19,114.79,77.25Z"/><path class="cls-5" d="M211.8,92.13l-9,144.27S221.7,139.44,211.8,92.13Z"/><path class="cls-5" d="M118.39,205l23.27,33.52S139.94,221.74,118.39,205Z"/><path class="cls-5" d="M281.48,169.11l-10.9,69.39S286.15,199.73,281.48,169.11Z"/><path class="cls-5" d="M347.58,97.82l5.52,136.86S357.54,137,347.58,97.82Z"/><path class="cls-5" d="M434.79,90.43,422.55,230.86S417.47,137.69,434.79,90.43Z"/><path class="cls-2" d="M265,37.5,231.73,4.87s-8.16.92-8.39.68l-54.52.07L114.3,5.55c-.23.24-8.37-.68-8.37-.68L72.68,37.52h0c-.18.12-.32.25-.32.37,0,2.67,43.19,4.83,96.45,4.83s96.44-2.16,96.44-4.83C265.28,37.76,265.15,37.63,265,37.5Z"/><polygon class="cls-8" points="119.15 6.47 116.49 6.42 110.86 17.59 119.84 8.94 127.35 6.12 119.15 6.47"/><path class="cls-8" d="M141.13,9.16l-2.72,19L148.8,9.41l.34-2.34a4.7,4.7,0,0,0-2.61-.13C145.23,7.32,141.13,9.16,141.13,9.16Z"/><path class="cls-8" d="M171.22,8.74l-.48.44s9.67,12.78,9.67,12.87,5.14-12.62,5.14-12.62l-4-2.63Z"/><path class="cls-8" d="M215.08,14.29l4.22,3.44c-.4-4-1.54-9.84-1.54-9.84s-6.13-1.67-8.3-1.45L206.8,8c.3,0,3.75.28,3.75.28S212.83,11.33,215.08,14.29Z"/><path class="cls-9" d="M168.84,1.66c-34.75,0-62.91,1.44-62.91,3.21,0,.78,1.48,1.5,10.64,2.05,7.32-.42,9.07-.35,8.76,0-.08.1-5.42,1.94-5.49,2,6,.29,13.41.06,21.29.22.42-.3,5.76-1.89,6.15-2.2.58-.46,1.53,2.21,1.52,2.45,6.1.1,14.66-.22,21.43-.22,3.31,0,9.94-2.2,10.62-1.8.34.2,4.37,1.83,4.7,2,10.45-.12,17.16-.77,25-1.12a17.61,17.61,0,0,0-1.15-1.76c-.21-.45,7,1,8.36,1.34,10.35-.57,14-2.18,14-3C231.77,3.1,203.6,1.66,168.84,1.66Z"/><path class="cls-6" d="M105.93,4.87c0,.45.76.82,1.69,1a25,25,0,0,0,2.89.45c2,.22,4.06.33,6.13.43h-.11l4.09-.26a40,40,0,0,1,4.3-.08c.3,0,1.5.27.88.69l-.76.28L123.52,8l-3,1.08-.62-.42,10.56.08,10.69,0-1,.23c.5-.21,1.1-.48,1.58-.64l1.41-.47,1.4-.47c.44-.15,1-.32,1.22-.44l.24-.08.13,0,.07,0h0l.29-.16.1,0a3,3,0,0,1,1.46,0,1.73,1.73,0,0,1,.47.22,2.81,2.81,0,0,1,.25.26,3.48,3.48,0,0,1,.49.79l.35.76.14.4a1.63,1.63,0,0,1,.11.45l-1.11-.5,19.86-.21c.87,0,1.64,0,2.29-.07s1.35-.17,2-.3c1.44-.27,2.87-.61,4.34-1,.77-.17,1.43-.33,2.5-.48a4.45,4.45,0,0,1,.54,0,3.22,3.22,0,0,1,1,.1c.55.2.33.15.49.2l.21.1.86.38,3.45,1.51-.93-.2L198,8.57c2.08-.06,4.16-.19,6.25-.29l6.26-.3-.71.36L208.94,7l-.2-.33,0,0h0l0-.16h0v0h0a1.15,1.15,0,0,1,.64-.22,5.23,5.23,0,0,1,.75,0c.65,0,1.16.14,1.71.22,2.15.37,4.16.79,6.17,1.3l-.34,0c2.7-.16,5.44-.32,8-.73a23.73,23.73,0,0,0,3.65-.76c1.11-.31,2.23-.75,2.43-1.33-.11.6-1.2,1.06-2.27,1.42a26.49,26.49,0,0,1-3.63.87,78.61,78.61,0,0,1-8,.94h-.14l-.19,0c-1.93-.42-4.05-.79-6.1-1.11a14.36,14.36,0,0,0-1.51-.18s-.32,0-.09,0a.38.38,0,0,0,.3-.13h0c0,.16,0-.18,0-.15h0l0,0,.25.36,1,1.4.2.29-.9.05L204.42,9c-2.07.14-4.12.29-6.21.39l-12.63.47-.42,0-.51-.23-3.49-1.49c-.44-.23-1.68-.62-.69-.35-.51.06-1.3.25-2,.4-1.43.33-2.89.7-4.47,1a23.77,23.77,0,0,1-2.65.39c-1,.09-1.87.07-2.66.09-6.56.13-13.24.14-19.95.16h-1l-.15-.5-.2-.66-.3-.72a3.8,3.8,0,0,0-.4-.68l-.08-.11s0,0,.19.09a2.32,2.32,0,0,0,1.26,0l-.07,0h0c.11-.07-.27.13.25-.13l-.06,0-.09,0-.2.09-.4.18c-.6.25-1,.37-1.52.54l-1.43.48L143.15,9l-1.1.38-.63.23h-.34L130.49,9.5l-10.74-.24-1.7,0,1.06-.38,3.27-1.2L124,7.07l.79-.27c-.17.14.25.17-.12.12-1.09-.09-2.59,0-3.9,0l-4.08.16h-.11c-2.06-.17-4.12-.33-6.12-.61A22.51,22.51,0,0,1,107.52,6C106.6,5.74,105.87,5.32,105.93,4.87Z"/><path class="cls-10" d="M206.72,3.17c-.74.24-3.94.77-3.79.36a2,2,0,0,1,.3-.52c-5.73-.24-12.84-.42-20.78-.51-.64.41-3.6,1.67-3.52,1.18A9.88,9.88,0,0,0,179,2.46q-4.8,0-9.9,0c-11.68,0-22.39.17-30.76.46,0,.27-1.27,1.34-1.86,1s-1-.58-1.41-.87c-9,.37-14.58.87-14.58,1.46,0,1.12,21.77,2,48.61,2s48.62-.91,48.62-2C217.76,4,213.6,3.53,206.72,3.17Z"/><path class="cls-10" d="M169.84,3.88a374.93,374.93,0,0,0-37.56,1.91c8.92.43,22.12.71,36.86.71,16.36,0,30.83-.34,39.64-.86C195.86,4.82,182.91,3.94,169.84,3.88Z"/><path class="cls-8" d="M98.37,20.82A129.34,129.34,0,0,0,87.16,29.9c-3.81,3.74-4,7.54-4,7.54l6.07-5.15Z"/><path class="cls-8" d="M127.35,17.6a139.63,139.63,0,0,0-11.21,11.52,17.73,17.73,0,0,0-4,9.56l10.46-6.07Z"/><path class="cls-8" d="M163,16.47a51.46,51.46,0,0,1,3.1,8.47,10.8,10.8,0,0,1-1,6.65l-4.72-4.78Z"/><path class="cls-8" d="M203.81,25.59a96,96,0,0,1,7.77,7.89,12,12,0,0,1,2.77,6.57l-7.26-4.17Z"/><path class="cls-8" d="M209.29,21.18A44.49,44.49,0,0,1,213,25a5.63,5.63,0,0,1,1.34,3.16l-3.51-2Z"/><path class="cls-8" d="M127.2,34a26.24,26.24,0,0,1-1.81,4.06,11.54,11.54,0,0,1-3,3l-.32-2.5Z"/><path class="cls-8" d="M104.59,17.66a24,24,0,0,1-1.8,4.06,11.41,11.41,0,0,1-3,3l-.32-2.5Z"/><path class="cls-8" d="M226.49,13.6a97.57,97.57,0,0,1,7.79,7.88A12.07,12.07,0,0,1,237,28.05l-7.27-4.16Z"/><path class="cls-8" d="M246.84,31.75a42.6,42.6,0,0,1-3.3-2.84,5,5,0,0,1-1.39-2.39L245.07,28Z"/><path class="cls-11" d="M187,34.12a3.29,3.29,0,0,0-3.65-.43c-1,.53-.79,1.2-.56,1.84a3.08,3.08,0,0,0,2.27,2,3.42,3.42,0,0,0,.64,0,2.78,2.78,0,0,0,1.87-.66C188.45,36.08,187.7,34.93,187,34.12Z"/><path class="cls-11" d="M192.32,38.05c-.46-.36-1.4-.54-1.79.05s.52,1.2,1.68.74C192.73,38.63,192.65,38.3,192.32,38.05Z"/><path class="cls-11" d="M192.08,29.28a2.32,2.32,0,0,0-1.92-1.14c-1.62,0-1.85,1.88-1.85,2.34a1.43,1.43,0,0,0,1,1.52,2.93,2.93,0,0,0,3.31-.85A2.46,2.46,0,0,0,192.08,29.28Z"/><path class="cls-11" d="M152.37,29.11a2.35,2.35,0,0,0,2.74.46,1.13,1.13,0,0,0,.75-1.42,1.87,1.87,0,0,0-1.44-1.62,1.43,1.43,0,0,0-.47,0,2.53,2.53,0,0,0-1.57.45C151.56,27.56,152,28.47,152.37,29.11Z"/><path class="cls-11" d="M131.75,29.88a1,1,0,0,0,1.39,0c.32-.36-.19-.95-1.16-.62C131.54,29.42,131.54,29.68,131.75,29.88Z"/><path class="cls-11" d="M130.46,36.66a1.44,1.44,0,0,0,1.29.94c1.25,0,1.75-1.39,1.82-1.74s.17-.9-.48-1.2a2.54,2.54,0,0,0-2.7.53A1.81,1.81,0,0,0,130.46,36.66Z"/><path class="cls-11" d="M120,16.79c0,.61,1,1.11,2.37.75A2,2,0,0,0,124,16.26c.23-.46.48-1.37-.39-1.73a1.21,1.21,0,0,0-.45-.08,3.24,3.24,0,0,0-1.78.27A2.05,2.05,0,0,0,120,16.79Z"/><path class="cls-11" d="M104.51,23.08c.11.31.67.56,1.34.16s.38-.94-.76-.73C104.58,22.6,104.43,22.85,104.51,23.08Z"/><path class="cls-11" d="M99.14,29.48a.79.79,0,0,0,.68,1.05c1.17.19,2.52-1.15,2.82-1.49s.7-.85.25-1.21c-.7-.6-2.39-.14-2.94.23A2.5,2.5,0,0,0,99.14,29.48Z"/><path class="cls-11" d="M230.23,33.78a2.35,2.35,0,0,0,2.75.45,1.08,1.08,0,0,0,.74-1.4,1.87,1.87,0,0,0-1.42-1.64,1.11,1.11,0,0,0-.48,0,2.41,2.41,0,0,0-1.57.45C229.44,32.24,229.82,33.14,230.23,33.78Z"/><path class="cls-11" d="M201.06,11.56a1,1,0,0,0,1.4,0c.32-.37-.21-1-1.18-.62C200.85,11.1,200.85,11.36,201.06,11.56Z"/><path class="cls-11" d="M199.77,18.34a1.49,1.49,0,0,0,1.29.94c1.25,0,1.75-1.39,1.82-1.75a.92.92,0,0,0-.48-1.21,2.58,2.58,0,0,0-2.7.55A1.81,1.81,0,0,0,199.77,18.34Z"/><path class="cls-2" d="M361,36.29l-11.21-11s-2.75.32-2.83.24l-18.4,0-18.4,0c-.09.08-2.84-.24-2.84-.24l-11.21,11h0c-.07,0-.1.07-.1.12,0,.89,14.57,1.62,32.55,1.62s32.55-.73,32.55-1.62C361.16,36.38,361.11,36.33,361,36.29Z"/><polygon class="cls-8" points="311.83 25.81 310.93 25.8 309.03 29.58 312.06 26.65 314.59 25.7 311.83 25.81"/><path class="cls-8" d="M319.25,26.73l-.92,6.41,3.5-6.33L322,26a1.71,1.71,0,0,0-.89-.06C320.63,26.11,319.25,26.73,319.25,26.73Z"/><path class="cls-8" d="M329.42,26.58l-.18.15s3.27,4.32,3.27,4.34,1.74-4.25,1.74-4.25l-1.35-.89Z"/><path class="cls-8" d="M344.21,28.46l1.43,1.16c-.13-1.36-.52-3.33-.52-3.33a13.94,13.94,0,0,0-2.81-.49l-.88.54c.09,0,1.26.1,1.26.1S343.45,27.47,344.21,28.46Z"/><path class="cls-9" d="M328.61,24.19c-11.73,0-21.25.49-21.25,1.08,0,.28.51.52,3.6.7,2.47-.14,3.06-.11,3,0s-1.83.65-1.87.68c2,.11,4.53,0,7.2.08.14-.11,1.95-.65,2.07-.74s.52.74.51.82c2.08,0,4.95-.07,7.24-.07,1.12,0,3.36-.74,3.58-.61s1.48.61,1.6.69c3.52,0,5.79-.26,8.44-.38,0-.08-.36-.51-.39-.6a16.31,16.31,0,0,1,2.82.45c3.49-.18,4.72-.73,4.72-1C349.84,24.68,340.33,24.19,328.61,24.19Z"/><path class="cls-6" d="M307.36,25.27c0,.16.27.28.57.35a6.09,6.09,0,0,0,1,.14c.68.08,1.37.12,2.07.16h0l1.38-.09a11.41,11.41,0,0,1,1.45,0c.1,0,.51.09.29.24l-.25.09-.51.19-1,.37-.21-.15,3.57,0h3.61l-.33.08a4.48,4.48,0,0,1,.53-.21l.47-.16.48-.17a3.26,3.26,0,0,0,.42-.15l.07,0H321l.1-.05,0,0a1.05,1.05,0,0,1,.5,0,.76.76,0,0,1,.16.08l.08.08a1.05,1.05,0,0,1,.17.28l.11.25.05.13a.5.5,0,0,1,0,.16l-.37-.17,6.7-.08h.79l.68-.11c.48-.09,1-.21,1.46-.32a8.21,8.21,0,0,1,.84-.17h.19a.79.79,0,0,1,.34,0l.18.06.07,0,.29.12,1.16.52-.31-.07,4.18-.13,2.12-.09,2.11-.11-.24.12-.26-.45-.08-.12h0V25.8h0a.51.51,0,0,1,.21-.08h.26l.58.08c.72.12,1.4.27,2.07.44l-.1,0c.91,0,1.83-.1,2.69-.23a8.42,8.42,0,0,0,1.24-.27c.38-.1.75-.25.81-.45,0,.2-.4.37-.77.48a7.64,7.64,0,0,1-1.21.3c-.87.16-1.8.24-2.71.32h-.07l-.05,0c-.65-.14-1.37-.27-2.06-.37a5,5,0,0,0-.5-.07s-.12,0,0,0,.11-.08.09,0h0c0,.05,0-.07,0-.05h0l.08.12.32.48.07.1h-.31l-2.09.15c-.7,0-1.39.09-2.1.12l-4.26.17h-.15l-.17-.08-1.18-.5c-.15-.08-.56-.2-.23-.12l-.67.14-1.51.34a8.8,8.8,0,0,1-.9.13c-.32,0-.63,0-.9,0-2.21.05-4.46.05-6.73.07h-.32l-.05-.17-.07-.23-.11-.24a.58.58,0,0,0-.13-.23l0,0,.07,0a.8.8,0,0,0,.41,0h0v0h0s-.09,0,.09,0h-.05l-.07,0-.15.06c-.19.08-.34.14-.5.19l-.49.16-.46.15-.38.14-.21.06h-.11l-3.58,0L312,26.77l-.57,0,.36-.12,1.1-.41.54-.18.26-.1c-.05,0,.08.06-.05,0-.36,0-.86,0-1.31,0L311,26h0c-.7-.06-1.4-.12-2.08-.22a5.83,5.83,0,0,1-1-.17C307.59,25.58,307.34,25.43,307.36,25.27Z"/><path class="cls-10" d="M341.39,24.71c-.25.08-1.33.25-1.27.11a.56.56,0,0,1,.09-.17c-1.94-.08-4.32-.14-7-.17-.21.13-1.21.57-1.17.4s0-.28,0-.41c-1.07,0-2.18,0-3.34,0-3.94,0-7.56.06-10.38.16,0,.08-.42.45-.63.33l-.47-.29c-3,.12-4.92.29-4.92.49,0,.38,7.34.69,16.4.69s16.42-.31,16.42-.69C345.12,25,343.71,24.82,341.39,24.71Z"/><path class="cls-10" d="M329,24.94c-4.29,0-8.52.24-12.69.65,3,.15,7.47.24,12.44.24,5.53,0,10.41-.11,13.38-.29C337.72,25.26,333.36,25,329,24.94Z"/><path class="cls-8" d="M304.81,30.67A40.48,40.48,0,0,0,301,33.73a4.15,4.15,0,0,0-1.35,2.55l2.05-1.74Z"/><path class="cls-8" d="M314.59,29.58a48.11,48.11,0,0,0-3.77,3.89,5.87,5.87,0,0,0-1.35,3.22l3.52-2Z"/><path class="cls-8" d="M326.63,29.2a17.34,17.34,0,0,1,1.05,2.85,3.6,3.6,0,0,1-.35,2.25l-1.59-1.61Z"/><path class="cls-8" d="M340.41,32.27A32.74,32.74,0,0,1,343,34.93a4.11,4.11,0,0,1,.93,2.22l-2.44-1.4Z"/><path class="cls-8" d="M342.26,30.78a14.31,14.31,0,0,1,1.26,1.29,1.87,1.87,0,0,1,.45,1.07l-1.17-.68Z"/><path class="cls-8" d="M314.55,35.12a8.73,8.73,0,0,1-.62,1.37,3.74,3.74,0,0,1-1,1l-.1-.83Z"/><path class="cls-8" d="M306.91,29.6a7.86,7.86,0,0,1-.6,1.37,4,4,0,0,1-1,1l-.12-.84Z"/><path class="cls-8" d="M348.07,28.22a33.52,33.52,0,0,1,2.62,2.67,4,4,0,0,1,.94,2.22l-2.46-1.41Z"/><path class="cls-8" d="M354.93,34.35s-.72-.56-1.11-1a1.78,1.78,0,0,1-.47-.82l1,.5Z"/><path class="cls-11" d="M334.73,35.16A1.1,1.1,0,0,0,333.5,35c-.35.17-.27.41-.19.62a1,1,0,0,0,.78.68.5.5,0,0,0,.21,0,.85.85,0,0,0,.62-.22C335.23,35.82,335,35.42,334.73,35.16Z"/><path class="cls-11" d="M336.54,36.48c-.16-.12-.48-.19-.61,0s.17.41.57.25C336.67,36.68,336.64,36.57,336.54,36.48Z"/><path class="cls-11" d="M336.46,33.52a.8.8,0,0,0-.65-.38c-.56,0-.63.63-.63.79a.46.46,0,0,0,.32.5,1,1,0,0,0,1.12-.28A.84.84,0,0,0,336.46,33.52Z"/><path class="cls-11" d="M323,33.47a.8.8,0,0,0,.93.14.37.37,0,0,0,.25-.47.62.62,0,0,0-.49-.55h-.15a.8.8,0,0,0-.54.16C322.77,32.94,322.91,33.25,323,33.47Z"/><path class="cls-11" d="M316.08,33.73a.36.36,0,0,0,.47,0c.11-.12-.06-.32-.39-.21C316,33.57,316,33.65,316.08,33.73Z"/><path class="cls-11" d="M315.65,36a.46.46,0,0,0,.43.32c.43,0,.6-.47.61-.59s.07-.31-.15-.41a.93.93,0,0,0-.92.18A.63.63,0,0,0,315.65,36Z"/><path class="cls-11" d="M312.12,29.3c0,.2.33.37.8.25a.73.73,0,0,0,.54-.43.39.39,0,0,0-.14-.58.57.57,0,0,0-.15,0,1.14,1.14,0,0,0-.61.09A.7.7,0,0,0,312.12,29.3Z"/><path class="cls-11" d="M306.89,31.43c0,.11.24.19.45.05s.13-.31-.25-.25C306.91,31.27,306.86,31.35,306.89,31.43Z"/><path class="cls-11" d="M305.06,33.59a.28.28,0,0,0,.24.35c.4.07.85-.38,1-.5s.23-.29.07-.41-.8-.05-1,.08A.92.92,0,0,0,305.06,33.59Z"/><path class="cls-11" d="M349.32,35a.78.78,0,0,0,.93.14.36.36,0,0,0,.26-.46.62.62,0,0,0-.48-.55.25.25,0,0,0-.17,0,.79.79,0,0,0-.52.14C349.06,34.52,349.19,34.83,349.32,35Z"/><path class="cls-11" d="M339.48,27.53a.31.31,0,0,0,.46,0c.12-.12-.06-.32-.39-.2C339.4,27.38,339.4,27.47,339.48,27.53Z"/><path class="cls-11" d="M339.05,29.83a.46.46,0,0,0,.43.3c.43,0,.6-.46.61-.58s.07-.3-.16-.4a.83.83,0,0,0-.91.18A.68.68,0,0,0,339.05,29.83Z"/><path class="cls-5" d="M827.88,182.55,837,234.68S840.11,203.06,827.88,182.55Z"/><rect class="cls-2" x="495.02" y="31.26" width="495.5" height="208.57"/><g class="cls-3"><path class="cls-2" d="M967.55,233.85l-21.06-5.7-28.93-43.26v46l-13.18,5.54L877.7,198.9l-21,27.44-10.85-53.7-9.6,58.22s-11.14-12.09-15.49-19.13-44.41-56.82-44.41-56.82l-17.87,69.6-33.72,6.35-22.19-70.2-13.73,56.82-19.46-56.82,2.73,55.51-21.06,14.69-37.65-35-6.94,25.9L573,229.46l4.68-38.34-47.41,39.74L495,187.22v52.61h495.5V187.24Z"/></g><g class="cls-4"><path class="cls-2" d="M722.44,31.26H692.07L674.16,68.89,653.73,239.83h62.15l-34-154.31S706.49,51.61,722.44,31.26Z"/><path class="cls-2" d="M631.88,31.26h-83l.53,44.54s34.31,116.77,46.1,164h46V65.8Z"/><polygon class="cls-2" points="990.52 31.26 910.22 31.26 939.75 64.62 899.47 239.83 934.02 239.83 938.14 124.69 970.01 239.83 990.52 239.83 990.52 31.26"/><path class="cls-2" d="M862.51,31.26H787.59c5.64,23.24,12.49,54.26,12.49,54.26l-44,154.31h49.12l22.67-57.28L838,239.83h31.8l-4.84-147.7S864,61.45,862.51,31.26Z"/><polygon class="cls-2" points="522.15 219.22 566.38 181.44 525.96 114.51 522.15 219.22"/></g><polygon class="cls-5" points="990.52 62.56 990.52 31.26 495.02 31.26 495.02 62.56 549.46 75.8 641.53 65.8 674.16 68.89 681.9 85.52 800.08 85.52 864.91 92.13 939.75 64.62 990.52 62.56"/><path class="cls-6" d="M990.52,62.56l-50.86,1.69h-.26l-.25.09c-25,8.88-49.82,17.92-74.75,26.87L800.62,84.6l-.25,0-.29,0L741,84.49l-57.2.05L676.3,68.7l-.28-.59L674.64,68,642,65l-.49,0L641,65,549.59,75.31,495,62.56l53.9,13.63.36.09.44,0,91.81-9.55,30.75,3,7.35,16.06.36.79h1.91l59.09.06,58.84-.08,64.61,6.47,1,.1.75-.28C890.85,83.5,915.64,74.32,940.14,65Z"/><path class="cls-2" d="M555.77,41.37c0,1.12-5.39,2-12,2s-12-.91-12-2,5.4-2,12-2S555.77,40.24,555.77,41.37Z"/><path class="cls-2" d="M576.39,45c0,.63-3,1.15-6.77,1.15s-6.77-.52-6.77-1.15,3-1.14,6.77-1.14S576.39,44.41,576.39,45Z"/><path class="cls-2" d="M636.59,35.24c0,.63-3,1.14-6.78,1.14S623,35.87,623,35.24s3-1.14,6.77-1.14S636.59,34.61,636.59,35.24Z"/><path class="cls-2" d="M706,50.69c0,1.13-5.39,2-12,2s-12-.91-12-2,5.39-2,12-2S706,49.58,706,50.69Z"/><path class="cls-2" d="M780.5,55.63c0,.64-3,1.14-6.78,1.14s-6.76-.5-6.76-1.14,3-1.13,6.76-1.13S780.5,55,780.5,55.63Z"/><path class="cls-2" d="M840.7,45.83c0,.63-3,1.15-6.77,1.15s-6.78-.52-6.78-1.15,3-1.14,6.78-1.14S840.7,45.21,840.7,45.83Z"/><path class="cls-2" d="M953.83,42.14c0,1.12-5.38,2-12,2s-12-.91-12-2,5.4-2,12-2S953.83,41,953.83,42.14Z"/><path class="cls-2" d="M891.07,70.19c0,4.23-25.58,7.65-57.14,7.65s-57.15-3.42-57.15-7.65,25.58-7.63,57.15-7.63S891.07,66,891.07,70.19Z"/><path class="cls-7" d="M856.32,70.1c0,2.8-17,5.07-37.91,5.07S780.5,72.9,780.5,70.1s17-5.07,37.91-5.07S856.32,67.3,856.32,70.1Z"/><path class="cls-2" d="M581.3,61.7c0,1.89-11.43,3.41-25.52,3.41s-25.53-1.52-25.53-3.41,11.43-3.42,25.53-3.42S581.3,59.81,581.3,61.7Z"/><path class="cls-7" d="M565.78,61.66c0,1.24-7.58,2.26-16.94,2.26s-16.93-1-16.93-2.26,7.58-2.27,16.93-2.27S565.78,60.4,565.78,61.66Z"/><path class="cls-2" d="M799,43.4c0,2.08-12.59,3.75-28.12,3.75s-28.11-1.67-28.11-3.75,12.57-3.77,28.11-3.77S799,41.31,799,43.4Z"/><path class="cls-7" d="M781.9,43.35c0,1.37-8.35,2.49-18.66,2.49s-18.65-1.12-18.65-2.49,8.35-2.5,18.65-2.5S781.9,42,781.9,43.35Z"/><path class="cls-5" d="M550.43,79.14l43.82,155.54S573.41,105.38,550.43,79.14Z"/><path class="cls-5" d="M526,114.51l-3.81,104.71S510.09,152.7,526,114.51Z"/><path class="cls-5" d="M671.27,93,654.63,232.18S653.73,135.54,671.27,93Z"/><path class="cls-5" d="M795.8,100.54,758.28,232.18S773.19,125.92,795.8,100.54Z"/><path class="cls-5" d="M933.43,92.13,901.52,230.86S935.58,128.93,933.43,92.13Z"/><path class="cls-2" d="M650.88,35.46l-21-20.6s-5.14.58-5.29.44l-34.4,0-34.41,0c-.14.14-5.28-.44-5.28-.44l-21,20.61h0c-.12.08-.19.16-.19.23,0,1.69,27.24,3.06,60.86,3.06s60.85-1.37,60.85-3.06Q651.09,35.58,650.88,35.46Z"/><polygon class="cls-8" points="558.87 15.88 557.2 15.84 553.64 22.88 559.31 17.44 564.05 15.65 558.87 15.88"/><path class="cls-8" d="M572.75,17.57l-1.72,12,6.55-11.82.23-1.48a2.94,2.94,0,0,0-1.66-.08C575.34,16.41,572.75,17.57,572.75,17.57Z"/><path class="cls-8" d="M591.75,17.32l-.32.27s6.11,8.05,6.11,8.12,3.24-8,3.24-8l-2.51-1.65Z"/><path class="cls-8" d="M619.41,20.82,622.08,23c-.26-2.53-1-6.19-1-6.19a24.62,24.62,0,0,0-5.23-.93l-1.68,1c.19,0,2.37.18,2.37.18Z"/><path class="cls-9" d="M590.24,12.84c-21.93,0-39.7.91-39.7,2,0,.51.94,1,6.72,1.3,4.61-.27,5.71-.23,5.52,0,0,0-3.43,1.22-3.47,1.27,3.78.18,8.47,0,13.44.13.26-.18,3.63-1.19,3.88-1.38s1,1.4,1,1.54c3.86.06,9.26-.13,13.53-.13,2.1,0,6.28-1.39,6.7-1.15.22.13,2.76,1.16,3,1.29,6.6-.08,10.83-.48,15.78-.7a10.47,10.47,0,0,0-.72-1.11c-.14-.29,4.43.63,5.26.85,6.54-.37,8.84-1.39,8.84-1.92C629.94,13.75,612.17,12.84,590.24,12.84Z"/><path class="cls-6" d="M550.54,14.86c0,.29.47.52,1.05.65s1.21.21,1.84.28c1.26.13,2.57.21,3.86.28h-.07l2.59-.18a26.55,26.55,0,0,1,2.71-.05c.19,0,1,.17.56.44l-.49.18-1,.36-1.87.69-.4-.27,6.66,0h6.76l-.62.15a7.9,7.9,0,0,1,1-.4l.9-.3.88-.31.77-.26.16-.07.07,0,0,0h0l.19-.09,0,0a1.78,1.78,0,0,1,.92,0,.81.81,0,0,1,.29.15,1.75,1.75,0,0,1,.18.15,2.71,2.71,0,0,1,.3.51l.21.47.09.25a.88.88,0,0,1,.07.29l-.7-.31,12.54-.15c.55,0,1,0,1.44,0s.86-.12,1.29-.2c.91-.17,1.8-.39,2.74-.6.49-.1.91-.22,1.57-.3a1.44,1.44,0,0,1,.35,0,2.07,2.07,0,0,1,.65.07,2.29,2.29,0,0,1,.31.12l.13.06.54.24,2.18.95-.59-.12,7.85-.25c1.32,0,2.64-.12,3.95-.18l3.94-.19-.44.23-.52-.86-.12-.2,0,0h0l0-.11h0a.65.65,0,0,1,.4-.15h.48l1.08.16c1.35.23,2.61.49,3.88.81l-.21,0c1.71-.1,3.44-.19,5.05-.45a15.44,15.44,0,0,0,2.31-.48c.7-.2,1.4-.48,1.52-.85-.07.39-.75.68-1.43.9a15.84,15.84,0,0,1-2.28.56c-1.61.3-3.36.44-5.07.59h-.1l-.12,0c-1.21-.27-2.56-.51-3.84-.7-.33-.05-.67-.1-1-.12,0,0-.2,0,0,0a.26.26,0,0,0,.18-.08l0,0h0c0,.09,0-.13,0-.11h0v0l.16.22.6.89.13.18-.58.05-3.91.23c-1.31.08-2.6.17-3.93.24l-8,.3-.27,0-.32-.14L598,17c-.29-.14-1.07-.38-.44-.22-.32,0-.82.16-1.26.26-.91.2-1.82.44-2.83.62a12.13,12.13,0,0,1-1.66.26c-.61.05-1.2,0-1.68.05-4.14.08-8.35.09-12.59.1H577l-.1-.31-.13-.43-.19-.45a2.42,2.42,0,0,0-.24-.42l-.06-.06.13.05a1.46,1.46,0,0,0,.78,0h0v0h0l.16-.08h0l-.05,0-.13.05-.26.11c-.38.17-.65.25-1,.36l-.89.28-.9.3-.68.25-.4.13h-.22L566,17.78l-6.77-.14-1.07,0,.67-.24,2-.75,1-.36.5-.18c-.11.09.15.12-.07.09-.69-.06-1.64,0-2.47,0l-2.58.1h-.07c-1.29-.1-2.6-.21-3.86-.38a14,14,0,0,1-1.82-.34C551,15.42,550.5,15.15,550.54,14.86Z"/><path class="cls-10" d="M614.14,13.79c-.46.16-2.49.49-2.39.23a1.57,1.57,0,0,1,.19-.33c-3.62-.15-8.1-.26-13.13-.32-.39.26-2.25,1.06-2.21.75a5,5,0,0,0,.07-.78l-6.24,0c-7.36,0-14.13.11-19.42.29,0,.17-.8.84-1.17.63a6.92,6.92,0,0,1-.88-.55c-5.68.23-9.21.55-9.21.92,0,.71,13.74,1.28,30.68,1.28s30.67-.57,30.67-1.28C621.1,14.29,618.48,14,614.14,13.79Z"/><path class="cls-10" d="M590.87,14.24c-8,0-15.93.44-23.71,1.2,5.63.28,14,.45,23.27.45,10.33,0,19.45-.21,25-.54C607.28,14.84,599.12,14.28,590.87,14.24Z"/><path class="cls-8" d="M545.77,24.93a78.1,78.1,0,0,0-7.07,5.74,7.75,7.75,0,0,0-2.52,4.75L540,32.17Z"/><path class="cls-8" d="M564.05,22.91A90.44,90.44,0,0,0,557,30.16a11.24,11.24,0,0,0-2.52,6l6.6-3.83Z"/><path class="cls-8" d="M586.55,22.2a32.78,32.78,0,0,1,2,5.33,6.77,6.77,0,0,1-.64,4.2l-3-3Z"/><path class="cls-8" d="M612.3,27.94a59.51,59.51,0,0,1,4.92,5A7.62,7.62,0,0,1,619,37.07l-4.6-2.64Z"/><path class="cls-8" d="M615.76,25.16a26.62,26.62,0,0,1,2.36,2.4,3.62,3.62,0,0,1,.84,2l-2.2-1.27Z"/><path class="cls-8" d="M564,33.27a15.7,15.7,0,0,1-1.15,2.55,7.27,7.27,0,0,1-1.87,1.87l-.22-1.58Z"/><path class="cls-8" d="M549.69,23a16.18,16.18,0,0,1-1.13,2.55,7.08,7.08,0,0,1-1.89,1.86l-.2-1.57Z"/><path class="cls-8" d="M626.63,20.37a60.57,60.57,0,0,1,4.9,5,7.52,7.52,0,0,1,1.74,4.15l-4.58-2.63Z"/><path class="cls-8" d="M639.47,31.83a26.1,26.1,0,0,1-2.1-1.79,3.17,3.17,0,0,1-.86-1.51l1.83.92Z"/><path class="cls-11" d="M601.7,33.34a2,2,0,0,0-2.31-.28c-.64.33-.5.75-.36,1.16a2,2,0,0,0,1.45,1.28h.39a1.77,1.77,0,0,0,1.19-.42C602.61,34.56,602.14,33.84,601.7,33.34Z"/><path class="cls-11" d="M605.06,35.81c-.29-.23-.89-.35-1.15,0s.33.77,1.08.48C605.31,36.16,605.26,36,605.06,35.81Z"/><path class="cls-11" d="M604.91,30.27a1.5,1.5,0,0,0-1.21-.72c-1,0-1.17,1.18-1.17,1.47a.89.89,0,0,0,.61,1,1.89,1.89,0,0,0,2.08-.53A1.57,1.57,0,0,0,604.91,30.27Z"/><path class="cls-11" d="M579.84,30.16a1.47,1.47,0,0,0,1.73.29.69.69,0,0,0,.48-.88,1.21,1.21,0,0,0-.9-1,1.94,1.94,0,0,0-1.3.27C579.34,29.18,579.58,29.75,579.84,30.16Z"/><path class="cls-11" d="M566.83,30.65a.65.65,0,0,0,.88,0c.2-.24-.12-.61-.74-.4C566.7,30.36,566.7,30.53,566.83,30.65Z"/><path class="cls-11" d="M566,34.93a.86.86,0,0,0,.81.58c.79,0,1.11-.87,1.15-1.09s.11-.56-.31-.76A1.62,1.62,0,0,0,566,34,1.15,1.15,0,0,0,566,34.93Z"/><path class="cls-11" d="M559.41,22.39c0,.38.61.69,1.5.46a1.31,1.31,0,0,0,1-.78c.14-.31.31-.88-.25-1.12a1.1,1.1,0,0,0-.27,0,2.17,2.17,0,0,0-1.14.17A1.3,1.3,0,0,0,559.41,22.39Z"/><path class="cls-11" d="M549.64,26.36c.07.2.43.34.85.1s.24-.59-.48-.46C549.68,26.07,549.59,26.22,549.64,26.36Z"/><path class="cls-11" d="M546.25,30.4a.5.5,0,0,0,.42.66c.75.12,1.6-.73,1.78-.94s.45-.54.17-.77c-.45-.38-1.51-.09-1.86.15A1.54,1.54,0,0,0,546.25,30.4Z"/><path class="cls-11" d="M629,33.11a1.48,1.48,0,0,0,1.74.29.71.71,0,0,0,.46-.89,1.17,1.17,0,0,0-.9-1,1,1,0,0,0-.3,0,1.55,1.55,0,0,0-1,.28C628.48,32.13,628.73,32.71,629,33.11Z"/><path class="cls-11" d="M610.57,19.09a.61.61,0,0,0,.87,0c.21-.23-.12-.59-.73-.38C610.44,18.8,610.44,19,610.57,19.09Z"/><path class="cls-11" d="M609.75,23.36a.9.9,0,0,0,.82.59c.79,0,1.1-.87,1.15-1.1a.59.59,0,0,0-.32-.76,1.6,1.6,0,0,0-1.7.36A1.22,1.22,0,0,0,609.75,23.36Z"/><path class="cls-2" d="M928.14,37.55l-11.21-11s-2.75.31-2.83.23l-18.41,0-18.4,0c-.07.08-2.83-.23-2.83-.23l-11.22,11h0c-.06,0-.11.09-.11.13,0,.9,14.58,1.62,32.56,1.62s32.56-.72,32.56-1.62C928.26,37.63,928.21,37.59,928.14,37.55Z"/><polygon class="cls-8" points="878.93 27.07 878.03 27.04 876.12 30.82 879.16 27.9 881.7 26.95 878.93 27.07"/><path class="cls-8" d="M886.35,28l-.92,6.41,3.5-6.32.12-.79a1.57,1.57,0,0,0-.89,0C887.73,27.35,886.35,28,886.35,28Z"/><path class="cls-8" d="M896.5,27.84l-.16.14s3.26,4.32,3.26,4.34,1.74-4.26,1.74-4.26L900,27.18Z"/><path class="cls-8" d="M911.31,29.71l1.43,1.15c-.14-1.36-.52-3.31-.52-3.31a13.38,13.38,0,0,0-2.81-.49l-.9.54,1.27.09Z"/><path class="cls-9" d="M895.7,25.44c-11.72,0-21.24.49-21.24,1.09,0,.26.51.5,3.6.68,2.47-.13,3.06-.11,3,0s-1.83.67-1.85.69c2,.1,4.52,0,7.19.07.14-.09,1.93-.64,2.07-.74s.52.75.51.83c2.07,0,5-.08,7.24-.08,1.12,0,3.36-.74,3.58-.6s1.48.62,1.59.68c3.54,0,5.79-.25,8.44-.37,0-.09-.35-.5-.38-.59a14.44,14.44,0,0,1,2.82.45c3.48-.2,4.72-.74,4.72-1C916.94,25.93,907.43,25.44,895.7,25.44Z"/><path class="cls-6" d="M874.46,26.53c0,.16.26.28.58.34a9,9,0,0,0,1,.15c.67.08,1.37.11,2.07.16h0l1.38-.1c.47,0,.91-.06,1.45,0,.1,0,.5.1.31.24l-.27.1-.51.19-1,.37-.22-.14,3.56,0h3.61l-.33.06c.18-.06.38-.16.54-.21l.48-.16.47-.16a3.06,3.06,0,0,0,.41-.15l.08,0h0v0h0l.11-.05h0a.82.82,0,0,1,.49,0c.1,0,.12,0,.15.08a.21.21,0,0,1,.1.08,1.64,1.64,0,0,1,.17.26l.1.26.06.13c0,.05,0,.07,0,.15l-.39-.17,6.72-.06a5.87,5.87,0,0,0,.76,0c.19,0,.46-.06.7-.11.49-.08,1-.2,1.47-.31.25-.06.47-.11.83-.17h.18a1.15,1.15,0,0,1,.36,0c.19.07.11,0,.16.07l.06,0,.3.14,1.16.51-.31-.08,4.21-.13c.68,0,1.4-.06,2.1-.09l2.11-.11-.23.12-.29-.45-.06-.11h0v-.07h0v0h0s.08-.06.22-.06a1,1,0,0,1,.25,0c.22,0,.39.05.58.06.72.14,1.39.28,2.07.45h-.11a23.54,23.54,0,0,0,2.7-.25,8.77,8.77,0,0,0,1.24-.25c.37-.11.74-.25.81-.45,0,.2-.4.36-.77.48a7.15,7.15,0,0,1-1.21.28,20,20,0,0,1-2.72.32l0,0-.06,0c-.65-.14-1.38-.26-2.06-.38a4.87,4.87,0,0,0-.51-.05s-.11,0,0,0,.13-.08.09,0h0c0,.05,0-.07,0-.06h0v0l.1.1.31.48.07.1-.3,0-2.1.13-2.1.13-4.26.16h-.15l-.17-.08-1.17-.5c-.15-.08-.57-.21-.23-.12-.17,0-.45.08-.68.13-.48.12-1,.24-1.51.35-.27,0-.52.09-.88.13s-.65,0-.9,0c-2.23.05-4.48.05-6.74.06h-.32l-.06-.17-.06-.22-.1-.24a1.76,1.76,0,0,0-.14-.23l0,0,.07,0a.7.7,0,0,0,.43,0l0,0h0c.05,0-.09,0,.09,0h0l-.07,0-.14.07-.52.18-.47.16-.48.14-.37.14-.21.08h-.12l-3.58,0L879.13,28h-.57l.35-.14,1.1-.39.53-.2.28-.09c-.06.05.08.06,0,0-.37,0-.87,0-1.32,0l-1.38.06h0c-.69-.06-1.4-.11-2.06-.2a9,9,0,0,1-1-.18C874.69,26.82,874.43,26.69,874.46,26.53Z"/><path class="cls-10" d="M908.48,26c-.25.08-1.32.25-1.28.11a1.4,1.4,0,0,1,.12-.18c-1.94-.08-4.35-.13-7-.17-.22.15-1.21.57-1.19.41a1.43,1.43,0,0,0,0-.41h-3.33c-3.95,0-7.56.05-10.39.15,0,.09-.43.45-.62.34s-.33-.2-.48-.31c-3,.14-4.93.31-4.93.49,0,.39,7.35.7,16.42.7s16.41-.31,16.41-.7C912.22,26.22,910.81,26.07,908.48,26Z"/><path class="cls-10" d="M896,26.2a123.31,123.31,0,0,0-12.68.64c3,.15,7.46.24,12.45.24,5.51,0,10.4-.12,13.37-.29C904.82,26.52,900.45,26.21,896,26.2Z"/><path class="cls-8" d="M871.91,31.92A45.11,45.11,0,0,0,868.13,35a4.13,4.13,0,0,0-1.34,2.54l2-1.73Z"/><path class="cls-8" d="M881.7,30.82a48.8,48.8,0,0,0-3.79,3.89A6.15,6.15,0,0,0,876.56,38l3.53-2.06Z"/><path class="cls-8" d="M893.73,30.45a17.42,17.42,0,0,1,1,2.84,3.68,3.68,0,0,1-.34,2.26l-1.59-1.61Z"/><path class="cls-8" d="M907.51,33.52a33.52,33.52,0,0,1,2.62,2.67,4,4,0,0,1,.93,2.21L908.61,37Z"/><path class="cls-8" d="M909.35,32a14.67,14.67,0,0,1,1.27,1.28,2,2,0,0,1,.45,1.06l-1.19-.68Z"/><path class="cls-8" d="M881.64,36.37a8.89,8.89,0,0,1-.6,1.36,3.65,3.65,0,0,1-1,1l-.11-.84Z"/><path class="cls-8" d="M874,30.85a8.89,8.89,0,0,1-.6,1.36,3.76,3.76,0,0,1-1,1l-.11-.85Z"/><path class="cls-8" d="M915.16,29.48a28.9,28.9,0,0,1,2.62,2.65,4.11,4.11,0,0,1,.94,2.22L916.26,33Z"/><path class="cls-8" d="M922,35.61s-.72-.57-1.11-1a1.66,1.66,0,0,1-.47-.8l1,.48Z"/><path class="cls-11" d="M901.84,36.41a1.1,1.1,0,0,0-1.24-.16c-.34.19-.28.41-.2.63a1.05,1.05,0,0,0,.78.68h.21a1,1,0,0,0,.64-.23C902.32,37.06,902.07,36.68,901.84,36.41Z"/><path class="cls-11" d="M903.63,37.73c-.16-.13-.48-.18-.61,0s.18.41.57.25C903.76,37.92,903.73,37.81,903.63,37.73Z"/><path class="cls-11" d="M903.55,34.76a.82.82,0,0,0-.65-.38c-.55,0-.63.63-.63.79a.5.5,0,0,0,.33.52,1,1,0,0,0,1.13-.3A1,1,0,0,0,903.55,34.76Z"/><path class="cls-11" d="M890.13,34.71a.81.81,0,0,0,.93.15.37.37,0,0,0,.26-.47.63.63,0,0,0-.49-.55.19.19,0,0,0-.15,0,.75.75,0,0,0-.53.14C889.87,34.19,890,34.49,890.13,34.71Z"/><path class="cls-11" d="M883.18,35a.32.32,0,0,0,.47,0c.11-.12-.07-.31-.39-.21C883.11,34.81,883.11,34.91,883.18,35Z"/><path class="cls-11" d="M882.74,37.26a.53.53,0,0,0,.44.31c.42,0,.59-.46.62-.59a.31.31,0,0,0-.17-.4.85.85,0,0,0-.91.19A.69.69,0,0,0,882.74,37.26Z"/><path class="cls-11" d="M879.21,30.56c0,.2.33.37.8.25a.67.67,0,0,0,.53-.44c.08-.15.17-.46-.12-.58a.39.39,0,0,0-.16,0,.93.93,0,0,0-.59.09A.69.69,0,0,0,879.21,30.56Z"/><path class="cls-11" d="M874,32.67c0,.11.22.19.44,0s.13-.31-.26-.23C874,32.51,874,32.61,874,32.67Z"/><path class="cls-11" d="M872.16,34.84c0,.16,0,.32.24.34.39.08.86-.38.94-.5s.25-.27.1-.41-.81,0-1,.08A1,1,0,0,0,872.16,34.84Z"/><path class="cls-11" d="M916.43,36.29a.78.78,0,0,0,.92.15.38.38,0,0,0,.25-.48.62.62,0,0,0-.48-.54H917a.74.74,0,0,0-.53.16C916.15,35.76,916.29,36.07,916.43,36.29Z"/><path class="cls-11" d="M906.58,28.79a.33.33,0,0,0,.46,0c.12-.12-.06-.32-.39-.2C906.51,28.63,906.51,28.72,906.58,28.79Z"/><path class="cls-11" d="M906.14,31.07a.49.49,0,0,0,.44.32c.42,0,.59-.47.61-.59s0-.31-.16-.4a.88.88,0,0,0-.92.18A.61.61,0,0,0,906.14,31.07Z"/></g></g></g></svg>