<svg xmlns="http://www.w3.org/2000/svg" viewBox="0 0 2236.07 2236.07"><defs><style>.cls-1{isolation:isolate;}.cls-2,.cls-9{fill:#e4714c;}.cls-3,.cls-6{fill:#ee834e;}.cls-4,.cls-8{fill:#b83c28;}.cls-5{fill:#a83d28;}.cls-6,.cls-7,.cls-8{mix-blend-mode:screen;}.cls-9{opacity:0.6;mix-blend-mode:multiply;}</style></defs><title>Asset 1</title><g class="cls-1"><g id="Layer_2" data-name="Layer 2"><g id="Layer_1-2" data-name="Layer 1"><circle class="cls-2" cx="1118.03" cy="1118.03" r="1118.03" transform="translate(-463.1 1118.03) rotate(-45)"/><path class="cls-3" d="M200.35,1025.93a327.25,327.25,0,0,0,90-8.85,1170.76,1170.76,0,0,1,179.55-28.86c26.81-2.22,53.77-3.3,80.44-7,21.55-3,44.17-8.35,61-22.92C625.7,946,637,926.13,638.53,907c1.1-14-4.27-26.82-13.82-37-10.92-11.63-25.3-19.66-39.62-26.34-17-7.94-34.89-14-52.76-19.73-17.48-5.58-35.11-10.69-52.52-16.47C460,800.9,440.66,792.93,420.58,787c-48.76-14.47-99.08-22.79-149.09-31.53-50.73-8.87-101.67-18-150.77-33.84q-21.5-6.95-42.2-15.89A1111,1111,0,0,0,7.39,989.59c34.33,8.53,68.55,17.57,103.22,24.62C140.19,1020.23,170.15,1024.8,200.35,1025.93Z"/><path class="cls-2" d="M161.42,1245.63c24-.08,48.72-1.33,71.83-8.25,14.39-4.32,31.27-12.12,35.73-27.67,4.88-17-5.8-31.58-17.92-42.43-19.53-17.49-43.95-29.71-67.6-40.58-29.46-13.53-60-24.7-90.85-34.65-28.36-9.15-57.09-17.27-86.14-23.94l-5.2-1.21c-.78,17-1.27,34-1.27,51.13q0,56.38,5.51,111.36,34.78,6.6,70,10.78C104,1243.51,132.71,1245.72,161.42,1245.63Z"/><path class="cls-4" d="M967,962.67c10.67-12,21.12-29.06,17.46-45.85-4.18-19.16-24.72-27.72-41.91-31.61C926.56,881.6,910,881,893.72,881.4c-12.92.34-25.76,3.55-38.25,6.74a307.25,307.25,0,0,0-45.31,15c-13.36,5.74-27,12.7-37.52,22.91-8.58,8.3-13.66,18.34-11.5,30.41a48.65,48.65,0,0,0,2.65,9.23c15,9.17,33,14.54,49.46,18.76A337.41,337.41,0,0,0,883.83,995c12,.45,23.92-1.53,35.65-4q10.1-2.12,20-5A135.77,135.77,0,0,0,967,962.67Z"/><path class="cls-3" d="M1777.75,433c-10.94-5.72-23.86-7.16-36-7.37-17.27-.31-34.6,1.89-51.67,5.41a205.29,205.29,0,0,1,26.36-1.84c4.13,0,4.12,6.4,0,6.41a204,204,0,0,0-21.26,1.15,208,208,0,0,0-77.06,24.4c-19.82,10.83-38.5,24.89-52.61,42.67-8.77,11.06-18.2,26.92-15.41,41,2.91,14.79,18.53,20.65,32.58,22.45,31.9,4.08,64.57-5.21,95-13.45a283.58,283.58,0,0,0,74.71-32.26c20.15-12.47,49.17-33.82,44.91-61.2A37.23,37.23,0,0,0,1777.75,433Z"/><path class="cls-3" d="M1154.17,1145c-14.54-9.25-33.53-12.27-50.27-14.63a344,344,0,0,0-69.31-2.52c-20.09,1.26-41.45,3.83-59.91,12.36a3.39,3.39,0,0,1-4.57-1.87,19.28,19.28,0,0,0-2.55,4.89,23.09,23.09,0,0,0,3.27,20.61c5.39,7.22,14.2,11.72,22.39,14.94,11.11,4.38,22.88,7,34.65,8.93,22.75,3.65,46.61,4.83,69.54,2.17,10.12-1.18,19.32-4.49,28.75-8.28,9.75-3.92,20-8.39,28.22-15.06a25.87,25.87,0,0,0,6.18-6.62,8.4,8.4,0,0,0,1.48-5.43,11.14,11.14,0,0,0-2-4.44A23.1,23.1,0,0,0,1154.17,1145Z"/><path class="cls-5" d="M560.25,572.59c134.65-7.55,269.2-30.23,401-58.1,118-24.94,234.26-58.63,346.22-103.49,112.28-45,220.31-101.5,318.82-171.89q44.76-32,86.51-67.85C1540.55,62.8,1336.64,0,1118,0,717.27,0,365.82,210.91,168.44,527.75,294.07,570.48,428.35,580,560.25,572.59Z"/><path class="cls-3" d="M256.9,1654.13c75.2,18.79,149.08,40,223,63.27,158.75,49.89,319.74,96.1,484.8,119.68,170.83,24.41,341.57,10.42,512-10.42,166-20.29,332.66-46.67,500.33-42.4q18.92.48,37.87,1.3a1112.46,1112.46,0,0,0,219.9-615.22c-85.64-.88-171.64-5.8-256.37-.33-91.21,5.89-180.81,29.17-269,52.18-91.52,23.9-182.19,50.82-273.51,75.44s-183.66,47-277.29,61.63c-84,13.16-169.2,19.14-254,25.47-168.81,12.59-339.19,18.66-507.8.11-132.4-14.56-263.89-45.17-384.69-101.17a1110.4,1110.4,0,0,0,105.3,333.77C163.66,1630.83,210.32,1642.49,256.9,1654.13Z"/><path class="cls-6" d="M244,1490.32c25.34,3.46,50.36,9,75.16,15.21,52.36,13,104,29.14,157.15,39,47.53,8.8,97.45,12.56,144.45-.72-3.4-2.51-6.87-4.94-10.44-7.2-45.57-28.83-100.93-39-153.24-48-26.67-4.61-53.44-8.66-80-14.1-20.38-4.18-40.29-10-60.45-15.13-42.79-10.8-85.9-20.31-128.53-31.81-45.15-12.17-90.34-26-132.65-46.18-9.18-4.37-18.49-9.16-27.57-14.46q11.27,49.53,26.85,97.32c35.2,6.71,70.66,12.1,106.19,16.61C188.56,1484.35,216.38,1486.54,244,1490.32Z"/><path class="cls-6" d="M501.47,1400.23c34.49,13.36,71.45,21.49,107.65,28.65,83.4,16.47,168.82,21.65,253.65,17,86.81-4.8,172.56-19.66,257.61-37.15,82.4-17,164.69-37.88,248.1-49.35,42-5.78,84.47-7.81,126.48-13.76a532.69,532.69,0,0,0,120.69-31.95c36.32-14.22,71.71-30.68,108-44.91a614.78,614.78,0,0,1,113.95-32.53c77.47-14.18,156.39-18,235-19.6,52.74-1.07,106.06-1,159.31-2.41q1.86-21.81,2.88-43.84c-85.64-.88-171.64-5.8-256.37-.33-91.21,5.89-180.81,29.17-269,52.18-91.52,23.9-182.19,50.82-273.51,75.44s-183.66,47-277.29,61.63c-84,13.16-169.2,19.14-254,25.47-140.51,10.48-282.09,16.39-422.85,7.4C488.36,1395,494.88,1397.68,501.47,1400.23Z"/><path class="cls-4" d="M459.6,1717q58.38,10.41,116.82,20.6c38.92,6.76,77.76,14.1,117.15,17.56,36.95,3.25,74,4,111.11,4.71,35.16.68,70.75.38,105.63,5.29,31.45,4.43,62.5,11.36,93.93,16,29.32,4.29,60,7.16,89.31,1.29a47.49,47.49,0,0,0-3.68-8.29c-11.13-19.22-32.13-31.94-51.23-42-28.08-14.8-58.33-25.42-88.62-34.69-68.27-20.88-138.72-34.69-209.11-46.2q-41.83-6.84-83.89-12.36c-34-4.46-68.11-7.87-102-13.32a1254.75,1254.75,0,0,1-168.37-39.21c-55.31-16.94-108.52-38.59-162.09-60.22-47.66-19.25-96.06-36.63-143.43-56.62q-14.43-6.09-28.81-12.55a1111.69,1111.69,0,0,0,87.31,202.48q42.6,7.59,85.17,15.25Q342.22,1695.82,459.6,1717Z"/><path class="cls-4" d="M911.53,2131.72c40.88-.52,81.82-3.25,122.52-6.91,55.25-5,110.9-11.79,164.71-25.58,21.65-5.55,43.54-12.17,63.31-22.79,12.42-6.68,26.93-16.16,31-30.59,4.31-15.29-6.18-29.85-16.24-40.25-24.32-25.14-56.73-37.5-90-45.88-41.6-10.46-84.36-15.2-126.71-21.49-18.55-2.75-37.16-5.66-55.38-10.23-28.31-7.1-57.5-11.55-86.36-15.8-59.36-8.73-119.15-14-178.77-20.5-26.63-2.9-53.43-5.56-79.8-10.37-21.42-3.9-42.62-9-63.65-14.62-92.9-25-182.6-60.49-275.24-86.4-39.59-11.08-80.9-21.13-122.58-26.61a1122.93,1122.93,0,0,0,434.49,371.79l1.53.08c51.71,2.59,103.49,3.6,155.26,4.34C830.17,2130.49,870.93,2132.23,911.53,2131.72Z"/><path class="cls-4" d="M146,580.27c63.44,10,125.52,27.37,187,45.52C386.59,641.6,440,659.52,494.65,671.16,577.13,688.71,661,701.33,745.24,706.1a1239.41,1239.41,0,0,0,252.07-11.26c84.84-12.6,171.47-30.67,250.22-65.47C1382,570,1487.43,465.16,1610.33,387.14A1105.77,1105.77,0,0,1,1849.76,272.8C1653.67,102.86,1397.88,0,1118,0,696,0,328.6,233.89,138.3,579.1,140.87,579.48,143.44,579.87,146,580.27Z"/><path class="cls-4" d="M1877.21,650c-49.6,19.79-100.55,36.45-150.91,54.16-103.11,36.27-206.65,74-301.57,128.88-46.84,27.09-91.3,58.4-131.27,94.94-22.06,20.16-46.16,43.16-57.4,71.65-5.69,14.42-6.64,30.16,2.37,43.43,9.56,14.08,26.49,22.24,42,27.93,22.59,8.29,46.61,12.68,70.4,15.82,28.57,3.76,57.4,5.54,86.19,6.51,59.08,2,118.21.28,177.26-1.56,22.81-.71,45.63-1.54,68.45-1.7,27.47-.2,54.14,3.28,81.44,6.61,65.6,8,131.32,16.56,197.49,17.41,33.79.43,67.67-1.16,101.15-5.87,24.65-3.48,49.15-8.73,73.5-13.91,33.2-7.06,66.25-15.31,98.62-25.63a1111.66,1111.66,0,0,0-162.08-532.57q-28.58,21.51-58.36,41C1971.12,605.55,1925.4,630.77,1877.21,650Z"/><path class="cls-4" d="M2135.88,1298.76c-71.26,19.54-144.38,31-217.69,39.56-41.08,4.77-82.38,7.61-123.43,12.53-44.67,5.37-88.9,14-132.64,24.45-82,19.55-161.75,46.34-242.61,69.78-31.1,9-62.46,18-92,31.29-27.51,12.41-54.38,29.06-72.06,54.06a160.48,160.48,0,0,0,13.14,12.81c50.17,43.11,122,54.08,185.83,57.63,75.2,4.18,150.69-2.68,225.38-10.93,32.88-3.63,65.7-7.71,98.6-11.1a704.61,704.61,0,0,1,121.87-2.22c47.53,3.36,94.45,11.8,140.67,23.19,25.53,6.3,50.76,13.67,76,20.81a1110.28,1110.28,0,0,0,108.92-351.45C2196.38,1280.45,2166.38,1290.4,2135.88,1298.76Z"/><g class="cls-7"><path class="cls-4" d="M707.5,2088.48c9.91-2,20.12-4,30.23-4.65,12.68-.76,25.55-.16,38.26-.53,39.08-1.15,79.26-3.29,117.23-13.25,13.42-3.52,29.2-8.1,39-18.57,8.65-9.22,5.49-20.45-1.68-30.15-10.42-14.09-25.26-21.45-41.69-26.49-22.27-6.83-45.68-9.92-68.8-12.23-54.06-5.41-108.47-5.49-162.67-8.7-21-1.23-42.24-2.59-62.8-7.05-12.41-2.69-24.57-6.9-36.65-10.77-15.29-4.91-30.49-10.07-45.67-15.32-66-22.81-131.78-47.12-199.81-63.47-6.21-1.5-12.49-2.92-18.8-4.29a1121.73,1121.73,0,0,0,315.59,240.65c20.89-5.91,41.79-11.74,62.83-17.06C683.83,2093.63,695.62,2090.83,707.5,2088.48Z"/><path class="cls-4" d="M1499.3,139.14c-36.31-9.71-74.51-12.83-111.88-12.32-54.05.73-107.85,9-160.44,21.21-11.86,2.74-23.62,5.8-35.41,8.84-16.55,4.26-33.67,7-50.51,9.83-34.18,5.81-68.59,10.25-103,14.17-70.68,8-141.66,13.81-212,24.42-65.79,9.92-133.42,23-194.43,50.38-22.72,10.18-45.35,21-66.19,34.7C547,302.46,528.59,317.59,519.2,338c-19,41.29,14.3,86.61,48.06,108.47,36,23.31,79.91,33,121.79,39.24C738,493,787.6,494.79,837,495.74c43.89.84,87.89.27,131.73,2.92,18.44,1.12,36.72,3.4,55.21,3.94,21.51.62,43,.07,64.5-1.43a750.31,750.31,0,0,0,140.42-23.42c47.22-12.56,93.39-29.77,136.41-53,41.09-22.21,79.51-50.13,110.56-85.23,29.27-33.08,52.65-73.74,62-117.21,5.83-27-1-52.95-22-71.35A109.55,109.55,0,0,0,1499.3,139.14Z"/><path class="cls-8" d="M1347,214c-22.14-5.92-45.43-7.82-68.21-7.51-32.95.45-65.74,5.51-97.8,12.93-7.23,1.67-14.4,3.54-21.59,5.39-10.09,2.6-20.52,4.25-30.79,6-20.84,3.54-41.82,6.25-62.82,8.64-43.09,4.91-86.35,8.42-129.25,14.89-40.11,6-81.33,14-118.52,30.71-13.85,6.21-27.65,12.8-40.35,21.15-11.21,7.38-22.43,16.6-28.16,29.05-11.57,25.17,8.72,52.8,29.3,66.12,22,14.22,48.72,20.15,74.25,23.92,29.82,4.42,60.08,5.53,90.18,6.11,26.76.51,53.58.17,80.31,1.78,11.24.68,22.38,2.07,33.65,2.4,13.11.38,26.24,0,39.33-.87a458,458,0,0,0,85.6-14.28c28.78-7.66,56.93-18.14,83.15-32.32,25-13.55,48.47-30.57,67.4-52,17.84-20.17,32.1-44.95,37.82-71.46,3.55-16.44-.59-32.28-13.41-43.49A67.45,67.45,0,0,0,1347,214Z"/><path class="cls-4" d="M2156.3,927.82c-28.82-4.5-57.43-10.24-86.21-15-26.43-4.32-53.22-8-80.06-7.4-23.51.5-47,2.58-70.45,3.8-37,1.92-74.19,2.92-111.25,1.2-33.6-1.56-69.39-4.27-100.84-17.14-11.21-4.59-22.37-10.77-30-20.46-7.14-9.13-9.53-20.3-7.72-31.66,2.11-13.25,11.93-23.06,22.18-30.89,14.81-11.32,31.9-19.6,48.92-27,39.49-17.16,80.9-29.62,122.17-41.68,14.54-4.25,29.18-8.24,43.56-13,12-4,23.54-9.3,35-14.45,16.17-7.23,32.11-15,47.85-23.09,43.87-22.62,86.11-48.15,128.66-73.14q-6.33-12.65-13-25.1c-56.81,41.87-119.17,75.63-184.08,103.37-37.49,16-75.74,30.21-114.34,43.32q-29.31,10-58.85,19.21c-15.38,4.85-30.74,10.16-46.42,13.93a1088.59,1088.59,0,0,0-128.48,39.41c-25.43,9.57-50.52,20.23-74.54,33-21.16,11.21-42.14,24-59.34,40.83-12.62,12.34-24.18,28.19-24.62,46.52-.48,20.31,11.87,37.09,29.6,45.91,22.47,11.18,49.5,12.41,74.13,12.11,27.41-.33,54.72-3.54,81.82-7.46,24.94-3.6,49.43-7.46,74.65-8.69,44.43-2.17,88.9,0,133,5.39s87.74,13.44,131.43,21.2a896.19,896.19,0,0,0,97.32,11.79c64.49,4.28,129.85,3.41,194-5.2-2.4-24.42-5.66-48.59-9.6-72.53C2199.14,934,2177.34,931.1,2156.3,927.82Z"/><path class="cls-4" d="M2061.24,722.09c-20.21,10.15-41.88,21.44-57.43,38.25-5,5.37-9.66,11.94-10.61,19.39s2.46,13.8,6.88,19.4c11.63,14.74,29.77,23.55,47,29.86,23.68,8.68,48.7,13.56,73.6,17.16,27.76,4,55.75,6.35,83.81,7.75a1108.34,1108.34,0,0,0-56-169.83c-3.49,1.4-7,2.79-10.48,4.21C2112.15,698.82,2086.25,709.53,2061.24,722.09Z"/><path class="cls-4" d="M2027.36,1374.54c-43.28,1-86.59,2.18-129.75,5.76-42.08,3.49-84.1,9.29-125,20-38,10-74.84,24.41-108.55,44.72,2.63,2.62,5.32,5.18,8.16,7.58,33.65,28.49,79.12,39.07,122,43.44,47.25,4.81,94.9,2.56,142.23.23,21-1,42-2.16,62.94-2.34,26.88-.23,53.59,2.72,80.06,7.2,27.79,4.71,55.27,11,82.79,17.1a1109.71,1109.71,0,0,0,46.18-152.41c-17.3,1.89-34.65,3.3-52,4.37C2113.44,1372.84,2070.39,1373.56,2027.36,1374.54Z"/></g><path class="cls-4" d="M554.3,1253.26a11.18,11.18,0,0,1,1.16-.78l.11-.12A2.39,2.39,0,0,0,554.3,1253.26Z"/><path class="cls-4" d="M553.11,1187.22c-29.87-13.46-64.15-18-96.56-19.94-30.93-1.85-64.28-1.62-94.25,7.2-24.15,7.11-52.1,25.54-56,52.61-1.44,9.82,1.94,17.86,7.66,24.41a37.34,37.34,0,0,0,9.22,16.42c21.43,22.58,57.47,28.47,86.93,31.77,35.54,4,73.08,2.37,108-5.67,28.43-6.56,61.8-19.18,71.45-49.78C598.33,1216.22,576.2,1197.62,553.11,1187.22Zm7.53,56c0-.28,0-.48,0-.69-.07.35-.15.74-.28,1.17-.33,1-.78,2-1.12,3.07,0,.1,0,.11-.06.19s-.06.09-.11.18c-.7,1.21-1.41,2.41-2.13,3.61a2.4,2.4,0,0,1-.18.26c-.42.44-.83.88-1.23,1.33a.58.58,0,0,1,.26,0,.68.68,0,0,0-.37.13l-.18.2c-1.75,1.9-1.6,1.31-1,.58-1.66,1.18-4.09,3.13-4.55,3.44-.21.14-.44.27-.66.4-.91.46-1.8,1-2.71,1.39l-.08,0a50.78,50.78,0,0,0,14.64-18C560.85,1241.46,560.67,1242.35,560.64,1243.24Z"/><path class="cls-4" d="M560.68,1242.55c.2-1.15.09-1.63,0,0Z"/><path class="cls-4" d="M753.75,1292.24a5.88,5.88,0,0,0-2.6-3.26,29.56,29.56,0,0,0-7.72-2.91,34.43,34.43,0,0,0-5.19-.67c-.6,0-1.21,0-1.82.08h-.36a18.78,18.78,0,0,0-7.87,1.61,24.65,24.65,0,0,0-4.51,2.54,22.5,22.5,0,0,0-4.95,4.89,22.31,22.31,0,0,0-8.74,7,10.53,10.53,0,0,0-1.61,6.22,6.36,6.36,0,0,0,2.76,5,10.6,10.6,0,0,0,7.48,1.11c2.47-.39,5-.62,7.47-.89l-3,.3c2-.19,4-.47,6-.74.28,0,.57,0,.85-.1,3.61-.5,7.21-1.05,10.78-1.68l3.41-1.1,3.34-1.89a17.66,17.66,0,0,0,5.82-6.81,11.13,11.13,0,0,0,1.22-6A4.17,4.17,0,0,0,753.75,1292.24Z"/><path class="cls-4" d="M1487.11,1237.5a6.45,6.45,0,0,0-3.4-2.65,8.06,8.06,0,0,0-4.45-1.07,16.48,16.48,0,0,0-6.88,1.46c-.81.27-1.62.56-2.41.9a29.85,29.85,0,0,0-4.92,2.65,22.32,22.32,0,0,0-3.29,2.78c-.14.14-.26.28-.39.43a28.59,28.59,0,0,0-2.23,2.92c-4,2.65-7.66,5.79-10.08,10-1.51,2.61-2.37,6-.48,8.65s5.42,3.24,8.29,2.5a13.51,13.51,0,0,1,2.08-.36c1.91-.14,3.82-.18,5.73-.46.66-.1,1.33-.23,2-.38a20,20,0,0,0,5.3-1.85,45.57,45.57,0,0,0,5.18-3,42.82,42.82,0,0,0,4.64-4,38.29,38.29,0,0,0,3.81-4.67,13.23,13.23,0,0,0,2.19-4.12,24.93,24.93,0,0,0,.77-4.12A8.5,8.5,0,0,0,1487.11,1237.5Z"/><path class="cls-4" d="M1647.49,1704.19c-20.89-6.22-43-9.3-64.66-11-28.94-2.32-58.28-3.7-87.31-3.81-34.4-.14-71.6,1.71-103.25,16.57a81.14,81.14,0,0,0-11.74,6.75,278.1,278.1,0,0,0-51.36,26c-3.52,2.24-6.87,7.3-5.69,11.66,4.62,17.07,19.15,27.73,34.52,34.69,19.77,9,41.88,12.42,63.32,14.53,50.92,5,103.44,1,153.72-7.9,20.71-3.66,41.4-8.3,61.23-15.44a119.47,119.47,0,0,0,22.88-11c9.67-6,20.75-14.53,23.93-26.08C1688.81,1718.27,1662.81,1708.75,1647.49,1704.19Z"/><path class="cls-4" d="M1661.32,1739.45c0-1-.6-1.6,0,0Z"/><path class="cls-6" d="M1789.61,1932.75c-71.93,18-143.43,36-216.66,48.14-74.58,12.34-149.67,21.15-224.46,32.06-73.16,10.66-147.33,22-217.88,44.59-65.08,20.87-128.6,47.25-195.48,62.12-31.85,7.09-64.45,11.45-97.13,11-30.45-.41-60.79-5.65-90.9-9.82-59.85-8.28-119.55-17.72-178.87-29.16,162.36,91.88,349.94,144.38,549.8,144.38,309,0,588.69-125.35,791.06-328C1868.8,1913.68,1828.9,1922.89,1789.61,1932.75Z"/><path class="cls-9" d="M1118,0C500.56,0,0,500.56,0,1118s500.56,1118,1118,1118,1118-500.56,1118-1118S1735.51,0,1118,0Zm714.34,1399.26c-88.34,97.89-203.65,170-324.64,220.53-125.45,52.42-259.93,82.43-395.24,93.71s-272.74,3.83-405.76-24c-120-25.06-240.55-65.86-342.76-134.78-82.68-55.75-151.84-130.4-197.29-219.43a574.61,574.61,0,0,1-29.44-68.54c-6.56-14.62-12.54-29.58-17.75-44.92-19.11-56.26-29.39-115.26-34-174.41-5.62-72.61-3.41-146,8-217.94,24.22-152.23,91.53-295.52,195-410C385.1,312.64,498.93,221.23,628.13,156.77,755.34,93.3,895.81,56.13,1037.32,44.08c131.84-11.22,266,5.21,391.43,47.26,123.6,41.44,239.06,108,334.53,197,97.82,91.21,171,204.7,215.73,330.6,46.43,130.56,57.84,273.06,33.34,409.4C1987.69,1165.55,1925.93,1295.59,1832.37,1399.26Z"/><path class="cls-9" d="M2209,872.51c12.84,103,12.69,207.28-5.13,310.25-24.93,144.13-79.35,284.46-169.41,400.49-78.22,100.77-179.25,182-289.86,244.75-112.49,63.82-235,109.41-360.43,140.29-123.09,30.3-249.23,48.34-376.13,47.89-131.38-.46-264-19.08-388.2-62.7-59.9-21-117.86-48-171.69-81.72s-101.82-74.35-145.86-119.83C210.39,1657.08,136.11,1545.41,81,1425.56a1220.58,1220.58,0,0,1-78-224.84c42.32,578.86,525.33,1035.35,1115,1035.35,617.48,0,1118-500.56,1118-1118A1122.13,1122.13,0,0,0,2209,872.51Z"/></g></g></g></svg>