<svg xmlns="http://www.w3.org/2000/svg" viewBox="0 0 1072 86"><defs><style>.cls-1{isolation:isolate;}.cls-2{fill:none;}.cls-3{fill:#fff;mix-blend-mode:soft-light;}.cls-4{fill:#a94336;}.cls-5{fill:#dac35a;}.cls-6{fill:#f1e69b;}</style></defs><title>Asset 1</title><g class="cls-1"><g id="Layer_2" data-name="Layer 2"><g id="meteor"><g id="Layer_1-2" data-name="Layer 1"><rect class="cls-2" width="268" height="86"/><path class="cls-3" d="M173.18,51a5.4,5.4,0,0,0,4.09,1.43,1.66,1.66,0,0,1,1.33.37,2.07,2.07,0,0,1,.32,1c.45,2.07,2.94,2.84,5,3.21a13.75,13.75,0,0,0,6,.18c2.24-.61,4.13-2.32,6.44-2.56a14.4,14.4,0,0,0,15,1.72c1.76-.86,3.43-2.12,5.39-2.25,3.09-.2,6,2.48,9,1.7,3.51-.91,5.93-6.44,6.35-9.76.53-4.11-1.34-9.49-5-11.74A15.94,15.94,0,0,0,222,32.6c-2.15-.46-4.42-.92-6.53-.28a5.41,5.41,0,0,1-2.53.5c-1.29-.27-1.9-1.71-2.79-2.69a4.85,4.85,0,0,0-6.5-.41c-1.23,1.05-2.23,2.86-3.83,2.66-.68-.09-1.39-.55-2-.22a2.6,2.6,0,0,0-.66.7c-1.06,1.29-3.11,1.27-4.6.53a24.47,24.47,0,0,1-4-3,9.35,9.35,0,0,0-5.5-2.12,5.7,5.7,0,0,0-5,2.72,6.87,6.87,0,0,0-.66,3.85A13,13,0,0,0,180.28,42c-2.28.51-4.66,1.13-6.35,2.75S171.61,49.31,173.18,51Zm16.68-12.13a5.76,5.76,0,0,1-1,1.49,1.93,1.93,0,0,1-1.09.81,1.83,1.83,0,0,1-1-.21A11.54,11.54,0,0,1,181,35.41a2.44,2.44,0,0,1-.3-1.74,1.9,1.9,0,0,1,.63-.9c2.26-1.93,4.31-.05,5.76,1.69C188.16,35.74,190.63,37,189.86,38.91Zm6,6.9a5,5,0,0,1-4.07-2.21c-.79-1.4-.28-3.53,1.25-4,2-.64,4.14,1.6,6.08.82a4.64,4.64,0,0,1,7.2-4,2.12,2.12,0,0,0,.66.36c.55.13,1.06-.28,1.52-.61,3.58-2.55,6.65-.59,9.94,1,3.52,1.73,6.45,3.88,7,8.1a5.68,5.68,0,0,1-.49,3.5c-1.36,2.46-5,2.71-7.46,1.36-.77.86-1.76,1.8-2.9,1.63-1.62-.24-2.28-2.5-3.89-2.83a3.15,3.15,0,0,0-2.7,1.2,9.33,9.33,0,0,1-2.23,2.12,1.92,1.92,0,0,1-2.66-.64c-.12-.3-.15-.67-.4-.87-.5-.4-1.14.22-1.63.63a3.3,3.3,0,0,1-4.45-.76A5.83,5.83,0,0,1,195.82,45.81ZM176.17,48.2A2.3,2.3,0,0,1,177.31,46a9.38,9.38,0,0,1,4.74-1.26l2.18-.17a10.7,10.7,0,0,1,7.32,2.7,1.05,1.05,0,0,1,.38.46c.15.4-.16.8-.44,1.12A9,9,0,0,1,189.12,51a3.14,3.14,0,0,1-3,.1,4.51,4.51,0,0,1-1.07-1l-2.19-2.58a1.2,1.2,0,0,0-.68-.5.73.73,0,0,0-.33,0c-1.13.34-.93,2.31-2,2.76a2,2,0,0,1-.87.08C177.77,49.78,176.4,49.33,176.17,48.2Z"/><path class="cls-3" d="M226.9,36.35a15.4,15.4,0,0,1,3,2.68,6.74,6.74,0,0,1,1.5,2.1c.65,1.71-.16,3.57-.55,5.36-.16.74-.25,1.49-.47,2.22a7.06,7.06,0,0,1-3.7,4.29,8,8,0,0,1-5.7.41.76.76,0,0,1-.45-.26c-.24-.32.06-.78.4-1,1.35-.92,3.3-.65,4.55-1.71s1.25-3,1.15-4.59c-.14-2.16-.38-4.56-2-6a12.09,12.09,0,0,1-2.12-1.76,1.74,1.74,0,0,1,.65-2.57C224.25,35.05,226,35.77,226.9,36.35Z"/><path class="cls-4" d="M227.55,39.45a6.15,6.15,0,0,1,2-.18,6.28,6.28,0,0,1,2.11.79l3.75,2a5.32,5.32,0,0,1,2.4,1.95c.89,1.64-.29,3.8-2,4.57a8.33,8.33,0,0,1-5.49,0,19.58,19.58,0,0,0-5.48-1,10.17,10.17,0,0,0-2.67.51,4.12,4.12,0,0,1-1.42.28,1.17,1.17,0,0,1-1.1-.81c-.11-.48.41-1,.85-.82l-12.78,0A5.71,5.71,0,0,1,211,45.66a12.92,12.92,0,0,1-5.53-1.28,22.23,22.23,0,0,0,9.9-3.49,5.05,5.05,0,0,1,1.29-.7c1-.3,2.19.18,3.25-.08l-2.11-1.43C221.39,39.74,223.93,40.17,227.55,39.45Z"/><path class="cls-3" d="M171.31,37.76a3.33,3.33,0,0,1,1.05,1,3,3,0,0,1-.53,3,26,26,0,0,0-2.05,2.53,3.44,3.44,0,0,1-.75,1.12,2.43,2.43,0,0,1-2,.23,26.91,26.91,0,0,1-3.86-1,3.67,3.67,0,0,1-2.06-1.27,3.75,3.75,0,0,1-.21-2.84,26.82,26.82,0,0,1,.75-2.76,4.29,4.29,0,0,1,.81-1.61C164.74,33.77,169.24,36.37,171.31,37.76Z"/><path class="cls-3" d="M162.45,42a.64.64,0,0,0,.07.28.63.63,0,0,0,.37.21,3.58,3.58,0,0,0,1.53,0,2.84,2.84,0,0,0,1.06-.36,3.4,3.4,0,0,0,1.29-1.86,3.52,3.52,0,0,0,.21-1,2,2,0,0,0-3.1-1.82C162.52,38.5,162.3,40.48,162.45,42Z"/><path class="cls-3" d="M157.81,41.78a2.19,2.19,0,0,1-.85.83,4.11,4.11,0,0,1-2.34.79,1.85,1.85,0,0,1-1.8-1.43,4.34,4.34,0,0,1,.24-1.46,3.32,3.32,0,0,1,.6-1.72C155.14,37.29,158.65,39.94,157.81,41.78Z"/><path class="cls-3" d="M170.32,50.25l-1.41,1.29a2.35,2.35,0,0,1-.8.57,3.26,3.26,0,0,1-3.38-2.19,2.52,2.52,0,0,1,.85-1.72c.58-.67,2.34-.6,3.19-.34S171.12,49.51,170.32,50.25Z"/><path class="cls-5" d="M236.55,44.52c.13,1.48-.24,3.64-2.26,3.75s-5.34-2-6.72-1.74-3.92.22-4.63-.49-3.85-.71-6.68-.46,1.7-.92,1.7-.92-4.35-.36-4.91-1,6.84-.37,6.84-.37-3.31-1.36-2.57-1.92,6.4,1.55,8.52,1,.32-2.4,2.83-2S236.41,42.82,236.55,44.52Z"/><path class="cls-6" d="M228,43.85a.48.48,0,0,0,.15.2c.81.69,1.88,1.06,2.63,1.81a3.51,3.51,0,0,0,1,.88,2.08,2.08,0,0,0,1.39,0,8.86,8.86,0,0,0,1.34-.47,1.72,1.72,0,0,0,.83-.59,1.33,1.33,0,0,0-.13-1.46,3.67,3.67,0,0,0-1.23-.94A7.82,7.82,0,0,0,230.18,42C229.5,42,227.78,43,228,43.85Z"/><path class="cls-6" d="M223.17,44.25a15.3,15.3,0,0,0,2.1,1.25,1.38,1.38,0,0,0,.34.12,1.54,1.54,0,0,0,.86-.26,3.23,3.23,0,0,1,1-.28.2.2,0,0,0,.15-.07c.29-.47-1.37-1.29-1.74-1.31A8.84,8.84,0,0,0,223.17,44.25Z"/><rect class="cls-2" x="268.5" width="268" height="86"/><path class="cls-3" d="M412,50.73c.19.88-.12,1.85.25,2.67s1,1.1,1.35,1.78a2.25,2.25,0,0,1-.36,2.14,6.53,6.53,0,0,1-1.71,1.47,7.58,7.58,0,0,1-2.93,1.41,7.42,7.42,0,0,1-1.94,0c-.93-.1-1.87-.2-2.8-.38a4.59,4.59,0,0,1-2.26-1,3.8,3.8,0,0,1-.91-1.33,6.47,6.47,0,0,1,.62-6,7.55,7.55,0,0,1,5.13-3.23,5.92,5.92,0,0,1,3.15.6C410.71,49.25,411.75,49.37,412,50.73Z"/><path class="cls-3" d="M401.05,54.79a3.55,3.55,0,0,0,2.45,3.08,6,6,0,0,0,1.59.2,19.41,19.41,0,0,0,3.14-.2,1.25,1.25,0,0,0,.77-.3,1.21,1.21,0,0,0,.25-.79c0-.86-.11-1.72,0-2.58s.44-1.76,0-2.51a2.48,2.48,0,0,0-2.14-1C404.51,50.57,400.81,51.35,401.05,54.79Z"/><path class="cls-3" d="M397.15,47.76a2.67,2.67,0,0,1-2.52-.92c-1.38-1.83,1.43-4.51,3.31-4a3.28,3.28,0,0,1,2.16,2.27C400.34,46.52,398.31,47.59,397.15,47.76Z"/><path class="cls-3" d="M399,30.24a4.34,4.34,0,0,1,.62,2.37A6.05,6.05,0,0,1,397.77,36a4,4,0,0,1-1.91,1.41,5.35,5.35,0,0,1-1.69,0,7.44,7.44,0,0,0-2.4.16,3,3,0,0,1-1.52.14A2.53,2.53,0,0,1,389,36.26a12.46,12.46,0,0,1-1.28-2.92,4.16,4.16,0,0,1,.33-3.1,4.9,4.9,0,0,1,2.17-1.79,12.08,12.08,0,0,1,4.36-1.21C396.61,27.07,398.09,28.54,399,30.24Z"/><path class="cls-3" d="M408.62,30.56a2,2,0,0,1,.81-3,2.35,2.35,0,0,1,2.14.79C413.46,30.36,409.81,32,408.62,30.56Z"/><path class="cls-3" d="M429.42,56.72a1,1,0,0,1-.34,1.89,8.38,8.38,0,0,1-4.28.32,3.87,3.87,0,0,1-1.64-.49,1.54,1.54,0,0,1-.77-1.45,1.68,1.68,0,0,1,.46-.86C424.54,54.26,427.79,55.23,429.42,56.72Z"/><path class="cls-3" d="M404.92,44.5c2.66.91,5.55.61,8.36.6a1.93,1.93,0,0,1,1.16.25c.52.37.53,1.12.6,1.75a6.52,6.52,0,0,0,6.2,5.64c1.64,0,3.27-.61,4.89-.37,1.82.27,3.3,1.56,4.88,2.51s3.73,1.51,5.19.38a6.08,6.08,0,0,0,11.1,1.43A26.58,26.58,0,0,0,451.51,62a9,9,0,0,0,6.14,2.55,5.51,5.51,0,0,0,5.16-3.71,3.73,3.73,0,0,1,.41-1.19c.62-.86,2-.71,2.76-1.49a7.92,7.92,0,0,0,.79-1.43,3.48,3.48,0,0,1,3.5-1.17c1.29.19,2.53.72,3.83.78,3.54.16,6.24-3,8.12-6a13.7,13.7,0,0,0,2.06-4.56,5.21,5.21,0,0,0-1.21-4.67,3.17,3.17,0,0,1-.84-1c-.3-.76.29-1.55.72-2.24a7.09,7.09,0,0,0-.13-7.51c-1.6-2.38-3.67-2.51-6.18-3s-3.79-1.07-6.3.28c-1.83,1-4.08,2.11-5.85,1-1-.61-1.63-1.84-2.77-2.06a14.59,14.59,0,0,0-1.62,0,5.55,5.55,0,0,1-2.93-1.78c-3.74-3.3-9.65-4.63-13.75-1.8-2.15,1.49-3.52,3.87-5.54,5.53-4,3.29-9.8,3.16-14.88,2.14a17.43,17.43,0,0,0-6.2-.58c-2.06.34-4.1,1.84-4.29,3.92a1.33,1.33,0,0,1-.15.63c-.26.4-.86.29-1.31.16a12.45,12.45,0,0,0-6.21-.58,5.58,5.58,0,0,0-4.39,4C399.91,41,402.27,43.59,404.92,44.5Zm10.15-5.37a4.28,4.28,0,0,1,3.82-3.2,7.51,7.51,0,0,1,5,1.57,14,14,0,0,0,2.64,1.73,8.16,8.16,0,0,0,3.11.41,6.06,6.06,0,0,0,3.18-.65c1.19-.74,1.75-2.14,2.42-3.37s1.72-2.49,3.12-2.5a3.75,3.75,0,0,0,1.16,0,2.17,2.17,0,0,0,1-1c1.43-2.37,3.28-4.64,5.82-5.72s5.92-.63,7.5,1.65a25.41,25.41,0,0,1,1.51,3.31,3.45,3.45,0,0,0,2.69,2.2c1.31.06,2.35-1,3.54-1.58,2.59-1.21,5.24.18,7.68,1.06s4.66,1.17,6.28,3.32a7.35,7.35,0,0,1,1.09,6.59c-.74,2.27-2.6,4.17-2.83,6.55a1.74,1.74,0,0,1-.33,1.13,1.45,1.45,0,0,1-.72.33,13.92,13.92,0,0,1-7.75-.48,3.14,3.14,0,0,0-1.19-.28c-1.23.05-1.81,1.48-2.41,2.55a7,7,0,0,1-12.82-1.17,10.32,10.32,0,0,0-.79-2.18,1.76,1.76,0,0,0-2-.89,2.15,2.15,0,0,0-1.11,1.46,4.54,4.54,0,0,1-.75,1.74,1.14,1.14,0,0,1-1.67.12c-.16-.22-.21-.52-.37-.74a1.21,1.21,0,0,0-1.54-.12c-.5.27-.89.7-1.39,1a2.8,2.8,0,0,1-3.12-.69,5.89,5.89,0,0,1-1.43-3A2.87,2.87,0,0,0,434,47a1.91,1.91,0,0,0-1.91-.55,12.59,12.59,0,0,0-1.95.78c-3.33,1.35-7.06-.09-10.35-1.52a4.46,4.46,0,0,1-1.5-.89c-.81-.84-.85-2.13-1.08-3.28S416.24,39.1,415.07,39.13ZM412,38.92c.57.4,1.3,1,.94,1.73s-3.06,1.66-3.8,1.66a1.72,1.72,0,0,1-.94-.35,3.77,3.77,0,0,1-1.53-2.27C406,36.54,410.68,38,412,38.92Z"/><path class="cls-3" d="M478.79,31.12l-1.75-.9a4.62,4.62,0,0,0-1.06-.43,10.92,10.92,0,0,0-2.48.12c-.55,0-1.2-.08-1.54.35a1,1,0,0,0,0,1,2.88,2.88,0,0,0,.71.81A24.31,24.31,0,0,1,477,36.16c.95,1.31,1.83,3.62,3.94,2.79,1.34-.52,1.65-2.23,1.51-3.5C482.19,33.24,480.65,32.07,478.79,31.12Z"/><path class="cls-3" d="M478.22,47.57a6.7,6.7,0,0,1-4.2,4.65,4.37,4.37,0,0,0-1.24.62,1.13,1.13,0,0,0-.43,1.23,1.23,1.23,0,0,0,1,.69,5,5,0,0,0,3.22-.81,11.55,11.55,0,0,0,3.79-2.66A4,4,0,0,0,481,47"/><path class="cls-4" d="M489.06,34.55c5.55.31,13,3.94,14.41,8.45,1.26,3.9-.75,10.3-12.17,10s-26-3.25-26.4-4.17.85-1.47.85-1.47-13.13.46-13.67-.85a3.3,3.3,0,0,1,.39-2.73s-11.35-1.05-12-2.36S454.48,39,454.17,39s-5.56-1.24-5.33-1.93,22.46-.85,22.46-.85S482.27,34.16,489.06,34.55Z"/><path class="cls-5" d="M452.89,41.73q2.85.35,5.72.45c.12.83-1.6.88-1.62,1.73a1,1,0,0,0,.54.76c1.48,1,3.41.87,5.16.55a16.29,16.29,0,0,1,5.27-.54,1.45,1.45,0,0,1,.8.32.6.6,0,0,1,.1.79c-.21.24-.7.31-.65.62a4.07,4.07,0,0,1,1.63.57.89.89,0,0,0,0,1.12,2.31,2.31,0,0,0,1,.64c3.34,1.3,7,1.44,10.57,1.56a85.61,85.61,0,0,0,8.92,0c3.25-.24,6.77-1,8.81-3.58a4.73,4.73,0,0,0,1-4.45,6.48,6.48,0,0,0-1.95-2.44,11.42,11.42,0,0,0-5.12-3,14.64,14.64,0,0,0-5.06.23,31.06,31.06,0,0,1-6.24.44,1.68,1.68,0,0,0-1.36.33c-.33.35,0,1.13.45.92a19,19,0,0,1-7.42.28c-1.14-.26-2.23-.74-3.38-1-2.36-.55-4.84-.17-7.27-.26-1.64-.06-3.57-.22-4.61,1.05l.73,1a7.74,7.74,0,0,1-3.07.92A4.2,4.2,0,0,0,452.89,41.73Z"/><path class="cls-6" d="M497.16,41.36a3.3,3.3,0,0,1,.69,1.15,3.58,3.58,0,0,1-.14,2.07,2.55,2.55,0,0,1-.42.86,2.71,2.71,0,0,1-1,.67,19,19,0,0,1-4.12,1.31l1.38-1.9a.74.74,0,0,0,.2-.5.72.72,0,0,0-.29-.42,11.23,11.23,0,0,0-5-2.49c-.34-.07-.79-.26-.73-.61,0-.18.22-.3.36-.42a8.41,8.41,0,0,0,.93-1.34c.83-1.11,3.08-.92,4.25-.67A7,7,0,0,1,497.16,41.36Z"/><path class="cls-6" d="M479.08,41.44c-1.26.29-2.58.74-3.8.33-.51-.17-.95-.48-1.46-.65a5.71,5.71,0,0,0-1.75-.21c-2.21,0-4.41,0-6.62.1a1.69,1.69,0,0,0-.92.21.62.62,0,0,0-.21.84A22.29,22.29,0,0,1,468,41.8a4.17,4.17,0,0,1,3,.87c.84.82,1,2.18,1.83,3a3.38,3.38,0,0,0,2.38.72c.85,0,1.69-.2,2.54-.19a10.6,10.6,0,0,0,2.7,0,6.14,6.14,0,0,0,1.84-1,20.51,20.51,0,0,1,4.35-2.22A15.24,15.24,0,0,0,485,41.5a3,3,0,0,0-1.35-.48A14.64,14.64,0,0,0,479.08,41.44Z"/><path class="cls-6" d="M484.37,47.07c1.22.1,3,.34,4.08-.26.53-.28,1.17-.78.62-1.23-1.11-.91-4.4.61-5.37,1.07C483.78,47,484.05,47.05,484.37,47.07Z"/><path class="cls-3" d="M389.4,33.47a2.85,2.85,0,0,0,.88,1,1.65,1.65,0,0,0,.92.44,1.49,1.49,0,0,0,1-.57,4.45,4.45,0,0,0,.87-1.11,2,2,0,0,0-1.83-3A2.62,2.62,0,0,0,389.4,33.47Z"/><rect class="cls-2" x="536.5" width="268" height="86"/><path class="cls-3" d="M726.25,67.21c2.25,1.13,5.51.42,7.71-.63.66-.31,6.93-4.73,6.13-5.53,4.07,4,9.4,3.69,14.57,2.54a18.57,18.57,0,0,0,2.74-.77,22.6,22.6,0,0,0,2.71-1.32l4.47-2.41a17,17,0,0,0,5.18-3.7,15.86,15.86,0,0,0,2.41-4.5,14.19,14.19,0,0,0,1.3-5.47c-.07-2.41-1.28-4.71-1.17-7.12a31.51,31.51,0,0,0,.44-4,7.4,7.4,0,0,0-1.15-3.22,17.35,17.35,0,0,0-9.88-7.7c-1.58-.46-2.22-1.49-3.55-2.33a9.69,9.69,0,0,0-10.6.35c-.14-1.81-2-3.09-3.83-3.2a11.43,11.43,0,0,0-5.23,1.35c-1.87.82-3.83,1.71-5,3.41a9.94,9.94,0,0,1-.77,1.18,2.73,2.73,0,0,1-2.4.91c-1.4-.18-2.41-1.37-3.64-2s-3.3-.37-3.37,1c-1.3-2.6-4.54-3.79-7.42-3.4a14.93,14.93,0,0,0-7.6,4A4.6,4.6,0,0,0,706.67,27a8.17,8.17,0,0,1-.3,1.79c-.63,1.34-2.61,1.09-4,.51s-3.11-1.23-4.17-.19c-1.85-4.62-7.12-8.25-11.79-6.55a7.32,7.32,0,0,0-2.77,11.94c-1.79.31-3.38-1.07-4.9-2.06s-3.89-1.53-4.93,0a4.14,4.14,0,0,0-7.56,2.52c-3.46-.68-7.69.14-9.25,3.3-1.31,2.67-.08,6.07,2.2,8s5.36,2.57,8.33,2.74,6-.31,8.86.26c-.23,0-.59,2.12-.57,2.39A2.72,2.72,0,0,0,677,53.43a17.34,17.34,0,0,0,5.79,3.06l2.7.78a1.15,1.15,0,0,1,.56.28,1.65,1.65,0,0,1,.2.37c1.17,2.49,5.94,2.45,8.13,2,1.55-.35,3.1-1,4.66-.76a1,1,0,0,1,.64.3,1.36,1.36,0,0,1,.25.53,4.81,4.81,0,0,0,3.68,2.94c2.77.53,5.18-.58,7.73-1.34a7.62,7.62,0,0,1,4.18.1,23.3,23.3,0,0,1,3.9,1.63C721.77,64.46,723.85,66,726.25,67.21ZM758.49,37.8a13.51,13.51,0,0,0-.57,2.8c0,.76.14,1.52.17,2.29a7,7,0,0,1-2.35,5.48l-1.09,4.71a15.31,15.31,0,0,1-4.08,4.83,4.94,4.94,0,0,1-2.1,1.07,5.59,5.59,0,0,1-2.36-.24,23.29,23.29,0,0,0-5.52-1,6.59,6.59,0,0,0-5.07,2c-.76.9-1.25,2.12-2.31,2.63a4.57,4.57,0,0,1-1.68.33c-2.09.14-4.38.23-6.1-1a9,9,0,0,0-1.62-1.15c-.59-.25-1.27-.25-1.86-.49-1.71-.7-1.92-2.86-3.68-3.59a4.07,4.07,0,0,0-2.39-.21c-.18,0-2.08,1-1.9,1.1a5.75,5.75,0,0,0-7.72,1.43,4.16,4.16,0,0,1-1.07,1.31,2,2,0,0,1-2.35-.46,4.64,4.64,0,0,1-1.07-2.32,4.09,4.09,0,0,0-.43-1.29,3.17,3.17,0,0,0-1.24-1c-2.71-1.51-4.22-.82-7.09-.36s-5.85-.47-8.66-1.4a3.43,3.43,0,0,1-1.44-.75c-1.76-1.76,1.26-5.26-.42-7.09-1.23-1.34-3.38-.21-5.11.39a7.73,7.73,0,0,1-7.21-1.23,3.83,3.83,0,0,1-1.64-2.86,5.07,5.07,0,0,1,.69-2.19c1-2,2.36-4.23,4.56-4.37,1.65-.11,3.07,1,4.47,1.91a8.44,8.44,0,0,0,4.72,1.5c2.55-.11,4.37-1.78,3.35-4.23-.9-2.17-.61-5.16,1.47-6.26a4.21,4.21,0,0,1,4.67.85,4,4,0,0,1,1.48,2.92c0,1.11-.41,1.62.94,2.24a6.1,6.1,0,0,0,5.89-.51,7.39,7.39,0,0,1,2.31-1.44,5.79,5.79,0,0,1,2.77.37c1.46.37,3.73.5,4.95-.59s.41-2.49.68-3.8a5,5,0,0,1,6.66-3.54c1.49.67,2.63,2.11,4.23,2.39a10.26,10.26,0,0,0,3-.25,8.83,8.83,0,0,1,7.92,3.3c1.89,2.44,3.19,4.69,6.65,4.7a24.47,24.47,0,0,0,6.07-1.2,35.47,35.47,0,0,1,7.31-1.09,9.25,9.25,0,0,1,3.36.32C759.23,33.63,759.05,35.53,758.49,37.8Z"/><path class="cls-3" d="M741.56,48.66a8,8,0,0,1-2.22,2l-4.76,3.24a2.85,2.85,0,0,0-1,.92A1,1,0,0,0,733.8,56l7.74-2.25c1.85-.54,4-1.06,5.64-.11a2.52,2.52,0,0,1,1.33,1.75,3.05,3.05,0,0,1-1.58,2.67,14,14,0,0,0-2.67,1.86,1.13,1.13,0,0,0-.32.62c0,.47.42.82.85,1a10.35,10.35,0,0,0,7.59.22,30.29,30.29,0,0,0,6.9-3.56c2.55-1.6,5.17-3.27,6.92-5.72,2.07-2.91,2.68-6.61,2.86-10.18a28.55,28.55,0,0,0-1.65-12.11c-1.77-4.35-7-6.34-11.19-7.5a5.46,5.46,0,0,0-2.71-.23,2,2,0,0,0-1.63,1.93,6.41,6.41,0,0,1-5.34-.45,10.78,10.78,0,0,0-1.58-.91c-1.79-.69-3.78.43-5.1,1.82A3.45,3.45,0,0,0,738.73,27a4.13,4.13,0,0,0,.43,1.67c1,2.42,2.51,5,2.9,7.68a22.65,22.65,0,0,1,0,2.33,23.06,23.06,0,0,0,.58,2.84C743,43.33,742.58,47.12,741.56,48.66Z"/><path class="cls-3" d="M656.53,31.71a1.82,1.82,0,0,1,.57,1.59,2.52,2.52,0,0,1-.5.94,17.87,17.87,0,0,0-1.89,2.39,8.11,8.11,0,0,1-1,1.73,2.9,2.9,0,0,1-1.52.76,5.63,5.63,0,0,1-5.56-2.75,4.46,4.46,0,0,1-.76-2.47c.05-1.8,1.62-3.25,3.33-3.81A7.53,7.53,0,0,1,656.53,31.71Z"/><path class="cls-3" d="M654.46,44.39a2.56,2.56,0,0,1-2.07,1.38,2.6,2.6,0,0,1-2.12-.35,1.9,1.9,0,0,1-.57-1.79,3.19,3.19,0,0,1,1-1.66,2.77,2.77,0,0,1,.55-.42C652.94,40.61,655.09,42.6,654.46,44.39Z"/><path class="cls-3" d="M645.09,41.91a1.52,1.52,0,0,1-.53.65,13.54,13.54,0,0,1-8.7,3.57c-3.2,0-6.49-2-7.42-5.06a3.45,3.45,0,0,1-.06-2.13,4,4,0,0,1,.71-1.19,13.84,13.84,0,0,1,2.32-2.14,7.71,7.71,0,0,1,2.9-1.52c2.55-.56,5.18,1,7,2.68C642.33,37.68,645.53,40.58,645.09,41.91Z"/><path class="cls-4" d="M726.16,52.27c.76,0-5.66,2.46-4.34,3.78s22.1-.57,22.1-.57-1.13,3.4,8.88,4.54,32.69.19,34.39-11.15c1.4-9.38-4.56-14.36-10.83-17.62a18.91,18.91,0,0,0-7.62-2.07c-4.88-.31-13.08-2.5-18.43-2.8-4.87-.28-3,3.37-3,3.37s-24.9-2.78-26.21-.34c-1.66,3.1,6.11,3.43,3.28,4.57-2.39,1-6.29.84-8.83.49a46.61,46.61,0,0,0-8.1-.11c-1.15.06-2.56.57-2.64,1.72-.66,2.45,11.27,2.68,12.64,2.78-7.65.68-24,0-31.51,1.35-1.08.2-2.5,1.16-1.82,2a1.62,1.62,0,0,0,1.13.45l5.85.73a4.54,4.54,0,0,0-3.35,2.1c-1.34,2.88,19.5.33,17.62,2.77-2,.81-10.87.22-9.49,1.81,3,3.7,8.45,3.83,13.19,3.59C714.83,53.39,720.35,52.27,726.16,52.27Z"/><path class="cls-5" d="M714.5,41.48a12.47,12.47,0,0,0-4.25,1.23c1.62,1.7,4.83-.34,6.74,1a11.86,11.86,0,0,0-6.17,3.43c5.31,1.36,11-.61,16.38.34a7.18,7.18,0,0,1,3.17,1.24c1,.77,1.67,1.93,2.79,2.51a6.77,6.77,0,0,0,3.69.35,26.45,26.45,0,0,1,10,.6c1.69.51,3.27,1.31,4.9,2a32,32,0,0,0,28.72-2.67,7.92,7.92,0,0,0,2.09-1.76,7.72,7.72,0,0,0,1.16-5,10.77,10.77,0,0,0-.69-3.73,11.31,11.31,0,0,0-4.39-4.74,32,32,0,0,0-20.07-5.35,2.71,2.71,0,0,0,1.33,1.28,60.84,60.84,0,0,1-12.79.39c-2-.22-4-.64-6-.82a41,41,0,0,0-11.26.82c.11,1,1.51,1,2.38,1.51,1.56.83,1.18,2.82.11,3.88s-2.17,1-3.46,1.14C724.09,39.85,719.3,40.7,714.5,41.48Z"/><path class="cls-6" d="M739.78,37.59a.83.83,0,0,1-.06,1.16,2.41,2.41,0,0,1-1.16.55l-12.45,3.43a64.32,64.32,0,0,0,10.57,0,10.84,10.84,0,0,0,3-.57c1.45-.57,2.63-1.68,4.07-2.28,2.78-1.16,6.11-.23,8.88-1.41-2.64-1.33-11-4.5-13.43-1.42C739.34,37.32,739.55,37.38,739.78,37.59Z"/><path class="cls-6" d="M737.78,47.74c2.55.35,5.23-.7,7.67.09.67.22,1.29.56,2,.77a7.6,7.6,0,0,0,1.9.29,13.31,13.31,0,0,0,9.63-3.69c-3.5-1.08-6.82-2.72-10.49-1.85a36.75,36.75,0,0,0-5.51,1.75C741.89,45.53,738.74,47.87,737.78,47.74Z"/><path class="cls-6" d="M777.92,41.34a6.79,6.79,0,0,1,.19,7.14,8.09,8.09,0,0,1-4.81,3.06c-1.88.49-3.84.6-5.75,1a11.51,11.51,0,0,1-3.18.36,3,3,0,0,1-2.56-1.65,1,1,0,0,1-.07-.6c.16-.62,1-.65,1.64-.69a4.32,4.32,0,0,0,3-1.45c-1.67,0-2.25-2.17-3.36-3.41s-2.75-1.54-4.29-2-3.19-1.17-3.76-2.66c.11.29,3.84-.62,4.17-.78,1.38-.64,1.07-1,1.85-2.21,1-1.52,2.25-1.83,4-1.76C769.5,35.86,775.33,37.21,777.92,41.34Z"/><path class="cls-3" d="M630.66,41.47a4.62,4.62,0,0,0,1.72,1.62,2.45,2.45,0,0,0,.92.34,2.65,2.65,0,0,0,1.25-.3c.67-.27,1.41-.64,1.57-1.34.22-.94-.35-1.76,0-2.75.2-.67.81-1.17.71-1.93-.14-1.08-.94-1.24-1.9-1.13C632.46,36.24,629.13,38.85,630.66,41.47Z"/><path class="cls-3" d="M651,34.72c.78-.27,1.67-1.32,1.14-2.18s-1.15-.47-1.9-.32c-1,.21-3.3,1-1.87,2.17a1.61,1.61,0,0,0,.47.24A3.27,3.27,0,0,0,651,34.72Z"/><rect class="cls-2" x="804" width="268" height="86"/><path class="cls-3" d="M839.07,54.44c1,2.84,2.57,6,5.51,6.65,2.31.52,4.74-.73,7.06-.25a13.88,13.88,0,0,1,3.85,1.92,12.44,12.44,0,0,0,9.4,1.55,8.2,8.2,0,0,0,6.07-6.9l5.59-.09a2.72,2.72,0,0,1,2.15.6c.84,1,0,2.46.14,3.72.19,1.45,1.74,2.34,3.19,2.55s2.94,0,4.37.25a23.63,23.63,0,0,1,3.25,1.14c4.11,1.45,9.45.1,11.25-3.86A19.7,19.7,0,0,1,902,59.23a4.24,4.24,0,0,1,6.71-.15c.84,1.21,1,2.83,2,3.92a6.58,6.58,0,0,0,3.15,1.57c3.1.89,6.54,1.77,9.47.38a6.66,6.66,0,0,1,2-.82c1.29-.13,2.39.85,3.43,1.63a14.07,14.07,0,0,0,16.82-.33c1.81-1.47,4.1-3.53,6.07-2.29A6.7,6.7,0,0,1,953,64.55a8.06,8.06,0,0,0,11.44.34,4.8,4.8,0,0,0,6.73-1.14c5.29,3.35,12.3,3.11,17.75.24,2.72-1.44,3.77-3.51,5.86-5.47,2.28-2.12,5.16-3,6.66-5.94s4.74-5.42,5.41-8.83c.77-4-2.42-7.49-3.79-11.29-1.25-3.49-1.24-7.84-4.23-10-2.2-1.61-5.3-1.4-7.63-2.8-1.83-1.09-3-3.07-4.86-4.12-2.2-1.25-5-1-7.36-.07s-4.49,2.34-6.79,3.4a45.79,45.79,0,0,1-10.05,2.91,2.47,2.47,0,0,1-1.59,0,3,3,0,0,1-1.07-1.39,7.27,7.27,0,0,0-9.3-2.93,7.77,7.77,0,0,1-2.34,1,5.82,5.82,0,0,1-3-.77c-2.66-1.12-5.86-1.52-8.34,0-3.37,2-4.25,6.59-7.27,9.08S921.82,29,917.87,29s-8.53.88-10.36,4.38a25.94,25.94,0,0,1-8.91-6.08c-1.18-1.23-2.48-2.7-4.18-2.66a5.56,5.56,0,0,0-3,1.44l-6.87,5.21a15.31,15.31,0,0,0-3.23,3c-1.23,1.69-1.71,3.82-2.78,5.62s-3.22,3.32-5.17,2.57A12.5,12.5,0,0,0,867,34.94a8.71,8.71,0,0,0-9.46,1.33c-.86.83-1.51,1.87-2.38,2.68-4.45,4.12-13.24,1.52-16.33,6.72C837.26,48.27,838.06,51.59,839.07,54.44ZM878,48.19c1.2-1.83,3.87-1.91,5.58-3.28,2.63-2.11,2.15-6.47,4.48-8.9s6.83-1.74,9.18.77c1.67,1.78,2.65,4.28,4.77,5.48s4.47.8,6.69.27c1.73-.42,3.71-1.22,4.09-3a16.41,16.41,0,0,0,0-2.43c.06-.81.57-1.72,1.38-1.73s1.45.92,2.27.86c.19-1.42,2.1-1.62,3.5-1.89,3.27-.63,6.3-3.6,9.45-2.51a25.2,25.2,0,0,1,8.32-7.28,6.87,6.87,0,0,1,2-.8,8.41,8.41,0,0,1,1.88-.08c4.45.16,8.91.41,13.36.66a45.49,45.49,0,0,1,4.67.41,24.26,24.26,0,0,1,7.51,2.45c2.42,1.25,4.76,3.12,5.45,5.75.63,2.43-.27,5.07.41,7.49.83,2.94,2.7,4.64,2.3,7.92a11.18,11.18,0,0,1-1.74,5.2c-2.15,3-8.08,7.88-11.7,8.18-2.17.18-4.18-1.08-6.32-1.51-3.73-.74-7.41,1.11-10.92,2.55s-7.81,2.42-10.9.22c-1.62-1.14-2.89-3.12-4.87-3.18s-3.6,1.84-5.53,1.56a21.4,21.4,0,0,1-2.38-.89c-2.52-.72-5.65,1.44-7.63-.27a7.52,7.52,0,0,1-1.37-2.11,7.61,7.61,0,0,0-11.26-1.7,23.77,23.77,0,0,1-2.31,2.29c-1.71,1.21-4,1.11-6.1,1s-4.72-.57-5.66-2.52a7.67,7.67,0,0,0-.83-1.84c-.76-.91-2.15-.82-3.34-.91a5.74,5.74,0,0,1-4-1.93A3.76,3.76,0,0,1,878,48.19Zm-21.64,1.68a2.84,2.84,0,0,1,.31-1.09l.92-2.07c3-6.66,7.9-2.59,12.46,0,1,.55,2.12,1.41,1.9,2.52a2.35,2.35,0,0,1-.79,1.2c-1.63,1.53-3.91,2.58-4.68,4.68a4.63,4.63,0,0,1-.79,1.81,1.94,1.94,0,0,1-1.84.41,4.94,4.94,0,0,1-1.72-.92,25.44,25.44,0,0,1-5-4.9A2.68,2.68,0,0,1,856.31,49.87Zm-9.42-2.18c2.3-.89,8.05,1.39,5.92,4.54a3.75,3.75,0,0,1-1,.91,12.31,12.31,0,0,1-2.95,1.67,4.31,4.31,0,0,1-3.31-.07C842,53,844.13,48.76,846.89,47.69Z"/><path class="cls-3" d="M989.12,22.37A17.13,17.13,0,0,0,981,20a9.63,9.63,0,0,0-7.57,3.41,2.49,2.49,0,0,0-.55,1.07c-.27,1.53,1.69,2.47,2.25,3.91.85,2.19-1.73,4.86-.44,6.83a6.48,6.48,0,0,0,2.08,1.55,5.82,5.82,0,0,1,1.78,7.48c-1.53,2.66-5.15,4-5.79,7-.42,1.92.53,4.17-.6,5.78-.89,1.26-3,2.25-2.33,3.65a2.42,2.42,0,0,0,1.5,1.07c3.81,1.43,8.05,2.86,11.86,1.41a15.35,15.35,0,0,0,4.06-2.58c4.27-3.5,8.17-7.61,10.51-12.61C1002.59,37.58,998.91,27.73,989.12,22.37Z"/><path class="cls-3" d="M854.48,66.87c.55.37,1.09,1,.93,1.6s-.72.83-1.23,1a24.56,24.56,0,0,1-4.74,1.62,8.22,8.22,0,0,1-4.93-.38A3.51,3.51,0,0,1,843,69.56a2,2,0,0,1-.24-1.89,2.85,2.85,0,0,1,1.57-1.25C847.37,65.11,851.59,64.93,854.48,66.87Z"/><path class="cls-3" d="M847.72,69.88a2.72,2.72,0,0,0,2.81-.72c.28-.2.6-.47.54-.81s-.41-.49-.73-.58a14.08,14.08,0,0,0-3.1-.4,5.19,5.19,0,0,0-2-.06c-.54.2-1.06.92-.71,1.48S847,69.7,847.72,69.88Z"/><path class="cls-3" d="M871.14,67.44c-1.28-5.12,4.77-4.76,4.5-2.11-.15,1.48-2.26,2.09-3.36,2.67a.9.9,0,0,1-.69.14C871.32,68.05,871.21,67.72,871.14,67.44Z"/><path class="cls-3" d="M876.57,32.06c-.28,1-1.35,1.68-2.32,2.18a4.26,4.26,0,0,1-2.76.7,5.28,5.28,0,0,1-1.82-1,11.52,11.52,0,0,0-3.08-1.58c-2.07-.68-4.5-.87-6-2.5a2.1,2.1,0,0,1-.52-2.25,2.31,2.31,0,0,1,.71-.75,7.84,7.84,0,0,1,6.31-1.35C869.35,26,877.72,28.41,876.57,32.06Z"/><path class="cls-3" d="M866.16,29.75a1.85,1.85,0,0,0,.71.26,1.78,1.78,0,0,0,1.18-.45,1.89,1.89,0,0,0,.73-.88,1.47,1.47,0,0,0-.41-1.42c-.88-.94-3.12-1.83-4.34-1.09-.55.34-1.37,1.3-1,1.92S865.42,29.37,866.16,29.75Z"/><path class="cls-4" d="M1021.2,30c10.59,4.27,18.33,8.88,16.63,15.49s-4.16,17.57-20.41,17.39-39.86-.38-39.67-2.08,4.34-3.4,4.34-3.4S963.58,61,963.2,58.91s-4.35-2.46-4.35-2.46-21.53,3.21-21.53,1.14,9.44-4.73,9.44-4.73-29.47,3.78-31,2.27,11.9-3.78,11.14-4-32.23.19-31.41-2.26,33.3-2.46,33.3-2.46-9.25-1.7-7.74-3,27.2-3.4,27.2-3.4l-16.06-2.84S956,35.67,958.66,34s-10.39-.94-10-2.65,33.25-.56,40.24-1.32-.07-2.64,3.18-3.21S1012.41,26.46,1021.2,30Z"/><path class="cls-5" d="M966.49,35.37a4.66,4.66,0,0,0-2.07,1.19,1.7,1.7,0,0,0-.1,2.2c-5.84-.44-11.19,3.06-16.92,4.31-4.17.91-8.67.65-12.5,2.53l10.39,1.2-10.2,2.91a84.39,84.39,0,0,0,19.39,0c2.17-.25,4.45-.57,6.45.28l-3.52,2.78c5.64-1.11,11.19,2.41,16.94,2.41,2.92,0,5.88-.9,8.71-.21a35,35,0,0,1,3.42,1.25c4.41,1.61,9.27,1.14,14,1.19,6,.06,12,1,17.93,0s11.95-4.32,13.85-10a8.11,8.11,0,0,0,0-5.6,9.68,9.68,0,0,0-2.46-3.3,24.82,24.82,0,0,0-13.35-6.08,40.31,40.31,0,0,0-14.79.91l.84,1.27c-.06-.09-8.1.32-9,.22-3.11-.32-6.19-.92-9.29-1.3A38.88,38.88,0,0,0,966.49,35.37Z"/><path class="cls-6" d="M1022.16,38.05a7.22,7.22,0,0,1,3.07,1.27,10,10,0,0,1,1.68,2.28,17.39,17.39,0,0,1,1.95,3.25c1.1,3-.83,6.49-3.62,8.06s-6.19,1.61-9.37,1.24a4.32,4.32,0,0,0,1.56-1.5,4.53,4.53,0,0,1-2.48-1.2,2,2,0,0,1-.24-2.55l-7.92-3.51c-.57-.25-1.25-.68-1.15-1.3s1.1-.81,1.74-1.17c1.28-.72,1.15-2.57.85-4A22.49,22.49,0,0,1,1022.16,38.05Z"/><path class="cls-6" d="M996.5,52.63a9.09,9.09,0,0,0-2.6-.84,9.89,9.89,0,0,0-1.72.13,10.45,10.45,0,0,1-6.73-1.63c1.86-.67,3.37-2.21,5.32-2.57a8.36,8.36,0,0,1,3,.13c2,.36,4,.87,6,1.38l11.52,3c-1.62,1.83-4.65,1.54-6.86,1.58A20.27,20.27,0,0,1,996.5,52.63Z"/><path class="cls-6" d="M991.78,38.5a13.36,13.36,0,0,1-2.26-1.08,19,19,0,0,0-6.15-1.55,23.52,23.52,0,0,0-5.23-.23c-4.19.4-7.89,2.78-11.41,5.09,3.59,1.82,8-1.64,11.83-.31,1.94.68,3.28,2.5,5.13,3.4a10.5,10.5,0,0,0,4.08.81c2.51.11,15.82-.2,15.14-3.77S994.27,39.19,991.78,38.5Z"/><path class="cls-6" d="M963.52,45.09l.53.53-3,1.62a27.82,27.82,0,0,1,6.39,3.46,5.25,5.25,0,0,0,1.35.79c1.23.4,2.53-.28,3.71-.82a36.33,36.33,0,0,1,5.29-1.73l4.61-1.24a3.09,3.09,0,0,0-2.2-1.27c-2.84-.66-5.75-1-8.58-1.62a16.45,16.45,0,0,0-4.05-.7A38.15,38.15,0,0,0,963.52,45.09Z"/><path class="cls-6" d="M956.05,45.31a20.82,20.82,0,0,0,3.36-3,16,16,0,0,0-4.89.68,8.53,8.53,0,0,0-2.32,1c-.36.23-1.82,1.85-2.06,1.84l4.23.2a2.07,2.07,0,0,0,.61,0,2.1,2.1,0,0,0,.7-.39Z"/></g></g></g></g></svg>