<svg xmlns="http://www.w3.org/2000/svg" viewBox="0 0 126.65 161.89"><defs><style>.cls-1{isolation:isolate;}.cls-2{fill:#ea4325;}.cls-3{fill:#ffe500;}.cls-4{fill:#fff8ac;}.cls-5{fill:#505ca9;}.cls-6{fill:#5d3896;}.cls-7{fill:#f04c5a;}.cls-8,.cls-9{fill:#f8a699;}.cls-9{mix-blend-mode:multiply;}.cls-10{fill:#f27383;}.cls-11{fill:#3abdaa;}.cls-12{fill:#fff;}</style></defs><title>Asset 1</title><g class="cls-1"><g id="Layer_2" data-name="Layer 2"><g id="spaceship"><g id="body"><g id="fire"><polygon class="cls-2" points="81.44 126.83 43.25 126.83 43.25 132.84 46.09 132.84 46.09 137.31 49.15 137.31 49.15 142.26 50.94 142.26 50.94 151.75 55 151.75 55 158.07 58.37 158.07 58.37 161.89 66.31 161.89 66.31 158.07 70.66 158.07 70.66 151.75 73.75 151.75 73.75 142.26 75.54 142.26 75.54 137.31 78.6 137.31 78.6 132.84 81.44 132.84 81.44 126.83"/><polygon class="cls-3" points="73.06 126.83 51.63 126.83 51.63 132.84 53.23 132.84 53.23 137.31 54.94 137.31 54.94 142.26 55.95 142.26 55.95 151.75 58.22 151.75 58.22 158.07 60.12 158.07 60.12 161.89 64.57 161.89 64.57 158.07 67.01 158.07 67.01 151.75 68.74 151.75 68.74 142.26 69.75 142.26 69.75 137.31 71.46 137.31 71.46 132.84 73.06 132.84 73.06 126.83"/><polygon class="cls-4" points="66.51 126.83 58.18 126.83 58.18 132.84 58.8 132.84 58.8 137.31 59.47 137.31 59.47 142.26 59.86 142.26 59.86 151.75 60.74 151.75 60.74 158.07 61.48 158.07 61.48 161.89 63.21 161.89 63.21 158.07 64.16 158.07 64.16 151.75 64.83 151.75 64.83 142.26 65.22 142.26 65.22 137.31 65.89 137.31 65.89 132.84 66.51 132.84 66.51 126.83"/><rect class="cls-2" x="44.73" y="140.06" width="3.37" height="3.41"/><rect class="cls-2" x="50.87" y="156.46" width="1.72" height="1.74"/><rect class="cls-3" x="47.19" y="146.16" width="1.8" height="1.83"/><rect class="cls-2" x="76.6" y="140.06" width="3.37" height="3.41" transform="translate(156.56 283.54) rotate(180)"/><rect class="cls-2" x="72.11" y="156.46" width="1.72" height="1.74" transform="translate(145.93 314.66) rotate(180)"/><rect class="cls-3" x="75.7" y="146.16" width="1.8" height="1.83" transform="translate(153.19 294.15) rotate(180)"/></g><g id="main"><polygon class="cls-5" points="35.81 104.32 19.7 104.32 19.7 109.17 13.84 109.17 13.84 114.83 8.59 114.83 8.59 125.53 35.81 125.53 35.81 104.32"/><rect class="cls-6" y="118.09" width="36.17" height="7.45"/><polygon class="cls-5" points="90.84 104.32 106.95 104.32 106.95 109.17 112.81 109.17 112.81 114.83 118.06 114.83 118.06 125.53 90.84 125.53 90.84 104.32"/><rect class="cls-6" x="90.47" y="118.09" width="36.17" height="7.45"/><polygon class="cls-7" points="40.59 139.57 27.28 139.57 27.28 135.56 22.44 135.56 22.44 130.89 18.1 130.89 18.1 122.04 40.59 122.04 40.59 139.57"/><rect class="cls-6" x="11" y="122.04" width="29.89" height="6.15"/><polygon class="cls-7" points="86.06 139.57 99.37 139.57 99.37 135.56 104.21 135.56 104.21 130.89 108.55 130.89 108.55 122.04 86.06 122.04 86.06 139.57"/><rect class="cls-6" x="85.76" y="122.04" width="29.89" height="6.15"/><rect class="cls-5" x="59.38" y="103.94" width="9.79" height="42.23" transform="translate(-61.19 188.53) rotate(-89.64)"/><rect class="cls-6" x="56.63" y="83.67" width="15.38" height="66.36" transform="translate(-52.94 180.44) rotate(-89.64)"/><rect class="cls-7" x="29.43" y="30.14" width="69.78" height="90.48" transform="translate(0.47 -0.4) rotate(0.35)"/><rect class="cls-8" x="29.26" y="89.72" width="69.78" height="26.9" transform="translate(0.64 -0.39) rotate(0.35)"/><rect class="cls-9" x="64.69" y="89.83" width="34.36" height="26.9" transform="translate(0.64 -0.5) rotate(0.35)"/><rect class="cls-10" x="41.87" y="13.92" width="45.14" height="85" transform="translate(0.35 -0.4) rotate(0.35)"/><rect class="cls-7" x="53.05" y="0.07" width="23" height="80.42" transform="translate(0.25 -0.4) rotate(0.35)"/><polygon class="cls-11" points="82.87 36.45 77.91 36.42 77.95 29.68 65.56 29.61 65.22 29.61 52.82 29.53 52.78 36.27 46.27 36.23 46.19 49.42 52.7 49.46 52.65 56.2 65.05 56.27 65.39 56.28 77.79 56.35 77.83 49.62 82.79 49.65 82.87 36.45"/><rect class="cls-11" x="58.1" y="43.12" width="12.74" height="17.22" transform="matrix(-1, -0.01, 0.01, -1, 128.63, 103.86)"/><rect class="cls-11" x="58.22" y="25.53" width="12.74" height="17.22" transform="translate(128.96 68.68) rotate(-179.65)"/><polygon class="cls-12" points="71.32 35.54 68.97 35.52 68.99 32.33 63.1 32.29 62.94 32.29 57.06 32.25 57.04 35.45 53.95 35.43 53.91 41.7 57 41.72 56.98 44.91 62.86 44.95 63.02 44.95 68.91 44.99 68.93 41.79 71.28 41.8 71.32 35.54"/></g></g></g></g></g></svg>