<svg xmlns="http://www.w3.org/2000/svg" viewBox="0 0 1109.5 198.27"><defs><style>.cls-1,.cls-6{fill:none;}.cls-2{fill:#235882;}.cls-3{fill:#d6657a;}.cls-4{fill:#327bb8;}.cls-5{fill:#ff8ba1;}.cls-6{stroke:#c7c7c7;stroke-miterlimit:10;}.cls-7{fill:#ededed;}.cls-8{fill:#c7c7c7;}.cls-9{fill:#80b4e0;}.cls-10{fill:#5581a6;}.cls-11{fill:#fff;}</style></defs><title>Asset 1</title><g id="Layer_2" data-name="Layer 2"><g id="Layer_1-2" data-name="Layer 1"><g id="Layer_2-2" data-name="Layer 2"><g id="Layer_1-2-2" data-name="Layer 1-2"><rect class="cls-1" y="0.25" width="185" height="198"/><g id="spaceship"><g id="body"><rect class="cls-2" x="120.88" y="120.76" width="26.23" height="10.49"/><path class="cls-2" d="M145.46,120.76v25.59h30.92A31.48,31.48,0,0,0,145.46,120.76Z"/><path class="cls-3" d="M145.46,146.35v5.89h31.48a31.43,31.43,0,0,0-.56-5.89Z"/><rect class="cls-4" x="37.22" y="120.76" width="26.23" height="10.49"/><path class="cls-4" d="M38.87,120.76v25.59H8A31.48,31.48,0,0,1,38.87,120.76Z"/><path class="cls-5" d="M38.87,146.35v5.89H7.39A31.48,31.48,0,0,1,8,146.35Z"/><polygon class="cls-4" points="77.82 26.05 92.17 26.05 92.17 1.2 77.82 26.05"/><polygon class="cls-2" points="92.17 1.2 92.17 26.05 106.52 26.05 92.17 1.2"/><path class="cls-5" d="M92.17,30.74H69.68a32.19,32.19,0,0,0-9.54,22.92v92.69h32Z"/><rect class="cls-4" x="60.14" y="146.35" width="32.03" height="5.89"/><path class="cls-4" d="M92.17,21.36a32.21,32.21,0,0,0-22.49,9.38H92.17Z"/><path class="cls-2" d="M115.21,30.74a32.24,32.24,0,0,0-22.77-9.39h-.27v9.38Z"/><rect class="cls-2" x="92.17" y="146.35" width="32.58" height="5.89"/><path class="cls-3" d="M115.21,30.74h-23V146.35h32.58V53.66A32.21,32.21,0,0,0,115.21,30.74Z"/><line class="cls-6" x1="37.22" y1="120.76" x2="37.22" y2="78.97"/><path class="cls-5" d="M33.34,78.8a3.88,3.88,0,0,0,3.88,3.88V74.92a3.88,3.88,0,0,0-3.88,3.88Z"/><path class="cls-3" d="M37.22,74.92v7.76a3.88,3.88,0,0,0,0-7.76Z"/><path class="cls-5" d="M32.47,88.41a6.71,6.71,0,0,0,0,9.49h0L42,88.41a6.71,6.71,0,0,0-9.49,0Z"/><path class="cls-3" d="M42,88.41,32.47,97.9A6.72,6.72,0,1,0,42,88.41Z"/><line class="cls-6" x1="145.45" y1="120.76" x2="145.45" y2="78.97"/><path class="cls-5" d="M141.57,78.8a3.88,3.88,0,0,0,3.88,3.88h0V74.92a3.88,3.88,0,0,0-3.88,3.88Z"/><path class="cls-3" d="M145.45,74.92v7.76a3.88,3.88,0,1,0,0-7.76Z"/><path class="cls-5" d="M140.7,88.41a6.71,6.71,0,0,0,0,9.49h0l9.49-9.49a6.71,6.71,0,0,0-9.49,0Z"/><path class="cls-3" d="M150.19,88.41,140.7,97.9a6.71,6.71,0,0,0,9.49-9.49Z"/><path class="cls-7" d="M77.81,66.11A14.36,14.36,0,0,0,92.17,80.47h0V51.75A14.36,14.36,0,0,0,77.81,66.11Z"/><path class="cls-8" d="M92.17,51.75V80.47a14.36,14.36,0,0,0,0-28.72Z"/><path class="cls-9" d="M94.85,55.79a10.7,10.7,0,0,0-13.1,7.55v0l20.67,5.54a10.7,10.7,0,0,0-7.55-13.1Z"/><path class="cls-10" d="M102.41,68.9,81.74,63.36a10.7,10.7,0,0,0,20.67,5.54Z"/><g id="fire"><path class="cls-3" d="M29.18,162.26A18.4,18.4,0,0,1,13,173.78V183a3,3,0,0,0,5.89,0v-4.24a2.94,2.94,0,0,1,2.94-2.94h0a2.94,2.94,0,0,1,2.94,2.94h0v16.57a2.94,2.94,0,0,0,2.94,2.94h0a2.94,2.94,0,0,0,2.94-2.94h0V167.19A8.83,8.83,0,0,0,29.18,162.26Z"/><path class="cls-5" d="M29.18,162.26A8.84,8.84,0,0,0,13,167.19v6.59A18.4,18.4,0,0,0,29.18,162.26Z"/></g><g id="fire-2"><path class="cls-3" d="M168.25,162.26a18.39,18.39,0,0,1-16.17,11.52V183a3,3,0,0,0,5.9,0v-4.24a2.93,2.93,0,0,1,2.92-2.94h0a3,3,0,0,1,3,2.88v16.63a2.93,2.93,0,0,0,2.92,2.94h0a2.94,2.94,0,0,0,2.95-2.93h0V167.19A8.86,8.86,0,0,0,168.25,162.26Z"/><path class="cls-5" d="M168.25,162.26a8.84,8.84,0,0,0-16.17,4.93v6.59A18.39,18.39,0,0,0,168.25,162.26Z"/></g></g><polygon class="cls-11" points="77.81 85.41 78.36 87.86 80.81 88.41 78.36 88.96 77.81 91.41 77.26 88.96 74.81 88.41 77.26 87.86 77.81 85.41"/><polygon class="cls-11" points="69.72 101.93 69.95 102.95 70.97 103.18 69.95 103.41 69.72 104.43 69.5 103.41 68.47 103.18 69.5 102.95 69.72 101.93"/></g><rect class="cls-1" x="185" y="0.08" width="185" height="198"/><g id="spaceship-2"><g id="body-2"><rect class="cls-2" x="305.88" y="120.59" width="26.23" height="10.49"/><path class="cls-2" d="M330.46,120.59v25.59h30.92A31.48,31.48,0,0,0,330.46,120.59Z"/><path class="cls-3" d="M330.46,146.18v5.89h31.48a31.43,31.43,0,0,0-.56-5.89Z"/><rect class="cls-4" x="222.22" y="120.59" width="26.23" height="10.49"/><path class="cls-4" d="M223.87,120.59v25.59H193A31.48,31.48,0,0,1,223.87,120.59Z"/><path class="cls-5" d="M223.87,146.18v5.89H192.39a31.43,31.43,0,0,1,.56-5.89Z"/><polygon class="cls-4" points="262.82 25.88 277.17 25.88 277.17 1.03 262.82 25.88"/><polygon class="cls-2" points="277.17 1.03 277.17 25.88 291.51 25.88 277.17 1.03"/><path class="cls-5" d="M277.17,30.57H254.68a32.23,32.23,0,0,0-9.54,22.92v92.69h32Z"/><rect class="cls-4" x="245.14" y="146.18" width="32.03" height="5.89"/><path class="cls-4" d="M277.17,21.19a32.21,32.21,0,0,0-22.49,9.38h22.49Z"/><path class="cls-2" d="M300.21,30.57a32.24,32.24,0,0,0-22.77-9.39h-.27v9.38Z"/><rect class="cls-2" x="277.17" y="146.18" width="32.58" height="5.89"/><path class="cls-3" d="M300.21,30.57h-23V146.18h32.58V53.49A32.21,32.21,0,0,0,300.21,30.57Z"/><line class="cls-6" x1="222.22" y1="120.59" x2="222.22" y2="78.8"/><path class="cls-5" d="M218.34,78.63a3.88,3.88,0,0,0,3.88,3.88h0V74.75a3.88,3.88,0,0,0-3.88,3.88Z"/><path class="cls-3" d="M222.22,74.75v7.76a3.88,3.88,0,0,0,0-7.76Z"/><path class="cls-5" d="M217.47,88.25a6.7,6.7,0,0,0,0,9.48h0L227,88.25a6.71,6.71,0,0,0-9.49,0Z"/><path class="cls-3" d="M227,88.25l-9.49,9.48a6.71,6.71,0,0,0,9.78-9.19Z"/><line class="cls-6" x1="330.45" y1="120.59" x2="330.45" y2="78.8"/><path class="cls-5" d="M326.57,78.63a3.88,3.88,0,0,0,3.88,3.88h0V74.75a3.88,3.88,0,0,0-3.88,3.88Z"/><path class="cls-3" d="M330.45,74.75v7.76a3.88,3.88,0,0,0,0-7.76Z"/><path class="cls-5" d="M325.7,88.25a6.7,6.7,0,0,0,0,9.48h0l9.49-9.48a6.71,6.71,0,0,0-9.49,0Z"/><path class="cls-3" d="M335.19,88.25l-9.49,9.48a6.71,6.71,0,0,0,9.78-9.19A4,4,0,0,0,335.19,88.25Z"/><path class="cls-7" d="M262.81,65.94A14.36,14.36,0,0,0,277.17,80.3h0V51.58a14.36,14.36,0,0,0-14.36,14.36Z"/><path class="cls-8" d="M277.17,51.58V80.3a14.36,14.36,0,0,0,0-28.72Z"/><path class="cls-9" d="M287.5,63.17a10.71,10.71,0,0,0-13.11-7.57l5.55,20.67a10.7,10.7,0,0,0,7.57-13.09Z"/><path class="cls-10" d="M279.94,76.27,274.39,55.6a10.7,10.7,0,0,0,5.55,20.67Z"/><g id="fire-3"><path class="cls-3" d="M214.18,162.1A18.39,18.39,0,0,1,198,173.61v9.25a3,3,0,0,0,5.89,0v-4.24a2.94,2.94,0,0,1,2.94-2.94h0a2.94,2.94,0,0,1,2.94,2.94h0v16.57a3,3,0,0,0,3,2.95h0a3,3,0,0,0,2.94-2.95V167A8.74,8.74,0,0,0,214.18,162.1Z"/><path class="cls-5" d="M214.18,162.1A8.84,8.84,0,0,0,198,167v6.58A18.39,18.39,0,0,0,214.18,162.1Z"/></g><g id="fire-4"><path class="cls-3" d="M353.25,162.1a18.38,18.38,0,0,1-16.17,11.51v9.25a3,3,0,0,0,5.9,0v-4.24a2.94,2.94,0,0,1,2.94-2.94h0a3,3,0,0,1,2.95,2.94v16.57a2.94,2.94,0,0,0,2.93,2.95h0a3,3,0,0,0,2.95-2.95V167A8.74,8.74,0,0,0,353.25,162.1Z"/><path class="cls-5" d="M353.25,162.1a8.84,8.84,0,0,0-16.17,4.9v6.58A18.39,18.39,0,0,0,353.25,162.1Z"/></g></g><polygon class="cls-11" points="262.81 84.25 263.54 87.52 266.81 88.25 263.54 88.98 262.81 92.25 262.08 88.98 258.81 88.25 262.08 87.52 262.81 84.25"/><polygon class="cls-11" points="254.72 101.01 255.09 102.65 256.72 103.01 255.09 103.38 254.72 105.01 254.36 103.38 252.72 103.01 254.36 102.65 254.72 101.01"/></g><rect class="cls-1" x="369.5" y="0.17" width="185" height="198"/><g id="spaceship-3"><g id="body-3"><rect class="cls-2" x="490.38" y="120.67" width="26.23" height="10.49"/><path class="cls-2" d="M515,120.67v25.59h30.92A31.48,31.48,0,0,0,515,120.67Z"/><path class="cls-3" d="M515,146.26v5.89h31.48a31.43,31.43,0,0,0-.56-5.89Z"/><rect class="cls-4" x="406.72" y="120.68" width="26.23" height="10.49"/><path class="cls-4" d="M408.37,120.67v25.59H377.45A31.48,31.48,0,0,1,408.37,120.67Z"/><path class="cls-5" d="M408.37,146.26v5.89H376.89a31.43,31.43,0,0,1,.56-5.89Z"/><polygon class="cls-4" points="447.32 25.96 461.67 25.96 461.67 1.11 447.32 25.96"/><polygon class="cls-2" points="461.67 1.11 461.67 25.96 476.01 25.96 461.67 1.11"/><path class="cls-5" d="M461.67,30.65H439.18a32.23,32.23,0,0,0-9.54,22.92v92.69h32Z"/><rect class="cls-4" x="429.64" y="146.26" width="32.03" height="5.89"/><path class="cls-4" d="M461.67,21.27a32.31,32.31,0,0,0-22.49,9.38h22.49Z"/><path class="cls-2" d="M484.71,30.65a32.23,32.23,0,0,0-22.77-9.38h-.27v9.38Z"/><rect class="cls-2" x="461.67" y="146.26" width="32.58" height="5.89"/><path class="cls-3" d="M484.71,30.65h-23V146.26h32.58V53.57A32.21,32.21,0,0,0,484.71,30.65Z"/><line class="cls-6" x1="406.72" y1="120.67" x2="406.72" y2="78.89"/><path class="cls-5" d="M402.84,78.71a3.87,3.87,0,0,0,3.86,3.88h0V74.84a3.87,3.87,0,0,0-3.88,3.86Z"/><path class="cls-3" d="M406.72,74.84v7.75a3.88,3.88,0,0,0,0-7.75Z"/><path class="cls-5" d="M402,88.33a6.71,6.71,0,0,0,0,9.49h0l9.49-9.49a6.71,6.71,0,0,0-9.49,0Z"/><path class="cls-3" d="M411.46,88.33,402,97.82a6.71,6.71,0,0,0,9.49-9.49h0Z"/><line class="cls-6" x1="514.95" y1="120.67" x2="514.95" y2="78.89"/><path class="cls-5" d="M511.07,78.71a3.87,3.87,0,0,0,3.86,3.88H515V74.84a3.87,3.87,0,0,0-3.93,3.81Z"/><path class="cls-3" d="M515,74.84v7.75a3.88,3.88,0,0,0,0-7.75Z"/><path class="cls-5" d="M510.2,88.33a6.71,6.71,0,0,0,0,9.49h0l9.49-9.49a6.71,6.71,0,0,0-9.49,0Z"/><path class="cls-3" d="M519.69,88.33l-9.49,9.49a6.71,6.71,0,1,0,9.49-9.49Z"/><path class="cls-7" d="M447.31,66a14.36,14.36,0,0,0,14.36,14.36V51.67A14.35,14.35,0,0,0,447.31,66Z"/><path class="cls-8" d="M461.67,51.67V80.38a14.36,14.36,0,0,0,.76-28.71C462.18,51.66,461.92,51.66,461.67,51.67Z"/><path class="cls-9" d="M469.1,73.46a10.68,10.68,0,0,0,0-15.12h0L454,73.46a10.68,10.68,0,0,0,15.12,0Z"/><path class="cls-10" d="M454,73.46,469.1,58.33A10.7,10.7,0,0,0,454,73.46Z"/><g id="fire-5"><path class="cls-3" d="M398.68,162.18a18.38,18.38,0,0,1-16.17,11.51v9.25a2.95,2.95,0,1,0,5.89.34,1.93,1.93,0,0,0,0-.34v-4.23a3,3,0,0,1,2.94-3h0a3,3,0,0,1,2.94,3v16.57a3,3,0,0,0,3,2.94h0a2.94,2.94,0,0,0,2.94-2.94h0V167.11A8.74,8.74,0,0,0,398.68,162.18Z"/><path class="cls-5" d="M398.68,162.18a8.84,8.84,0,0,0-16.17,4.93v6.58A18.38,18.38,0,0,0,398.68,162.18Z"/></g><g id="fire-6"><path class="cls-3" d="M537.75,162.18a18.38,18.38,0,0,1-16.17,11.51v9.25a2.95,2.95,0,0,0,5.9,0v-4.23a3,3,0,0,1,2.88-3h.06a3,3,0,0,1,3,3v16.57a2.94,2.94,0,0,0,2.94,2.94h0a3,3,0,0,0,3-2.94V167.11A8.79,8.79,0,0,0,537.75,162.18Z"/><path class="cls-5" d="M537.75,162.18a8.84,8.84,0,0,0-16.17,4.93v6.58A18.38,18.38,0,0,0,537.75,162.18Z"/></g></g><polygon class="cls-11" points="447.31 83.33 448.22 87.42 452.31 88.33 448.22 89.25 447.31 93.33 446.39 89.25 442.31 88.33 446.39 87.42 447.31 83.33"/><polygon class="cls-11" points="439.22 100.35 439.73 102.59 441.97 103.1 439.73 103.6 439.22 105.85 438.72 103.6 436.47 103.1 438.72 102.59 439.22 100.35"/></g><rect class="cls-1" x="554.5" width="185" height="198"/><g id="spaceship-4"><g id="body-4"><rect class="cls-2" x="675.38" y="120.51" width="26.23" height="10.49"/><path class="cls-2" d="M700,120.51V146.1h30.92A31.48,31.48,0,0,0,700,120.51Z"/><path class="cls-3" d="M700,146.1V152h31.48a31.43,31.43,0,0,0-.56-5.89Z"/><rect class="cls-4" x="591.72" y="120.51" width="26.23" height="10.49"/><path class="cls-4" d="M593.37,120.51V146.1H562.45A31.48,31.48,0,0,1,593.37,120.51Z"/><path class="cls-5" d="M593.37,146.1V152H561.89a31.43,31.43,0,0,1,.56-5.89Z"/><polygon class="cls-4" points="632.32 25.8 646.67 25.8 646.67 0.94 632.32 25.8"/><polygon class="cls-2" points="646.67 0.94 646.67 25.8 661.01 25.8 646.67 0.94"/><path class="cls-5" d="M646.67,30.49H624.18a32.19,32.19,0,0,0-9.54,22.92V146.1h32Z"/><rect class="cls-4" x="614.64" y="146.1" width="32.03" height="5.89"/><path class="cls-4" d="M646.67,21.11a32.21,32.21,0,0,0-22.49,9.38h22.49Z"/><path class="cls-2" d="M669.71,30.49a32.24,32.24,0,0,0-22.77-9.39h-.27v9.38Z"/><rect class="cls-2" x="646.67" y="146.1" width="32.58" height="5.89"/><path class="cls-3" d="M669.71,30.49h-23V146.1h32.58V53.41A32.21,32.21,0,0,0,669.71,30.49Z"/><line class="cls-6" x1="591.72" y1="120.51" x2="591.72" y2="78.72"/><path class="cls-5" d="M587.84,78.55a3.88,3.88,0,0,0,3.88,3.88h0V74.67a3.88,3.88,0,0,0-3.88,3.88Z"/><path class="cls-3" d="M591.72,74.67v7.76a3.88,3.88,0,0,0,0-7.76Z"/><path class="cls-5" d="M587,88.16a6.71,6.71,0,0,0,0,9.49h0l9.49-9.49a6.71,6.71,0,0,0-9.49,0Z"/><path class="cls-3" d="M596.46,88.16,587,97.65a6.71,6.71,0,0,0,9.49-9.49Z"/><line class="cls-6" x1="699.95" y1="120.51" x2="699.95" y2="78.72"/><path class="cls-5" d="M696.07,78.55A3.88,3.88,0,0,0,700,82.43h0V74.67a3.88,3.88,0,0,0-3.93,3.83Z"/><path class="cls-3" d="M700,74.67v7.76a3.88,3.88,0,0,0,0-7.76Z"/><path class="cls-5" d="M695.2,88.16a6.71,6.71,0,0,0,0,9.49h0l9.49-9.49a6.71,6.71,0,0,0-9.49,0Z"/><path class="cls-3" d="M704.69,88.16l-9.49,9.49a6.71,6.71,0,0,0,9.49-9.49Z"/><path class="cls-7" d="M632.31,65.86a14.36,14.36,0,0,0,14.36,14.36V51.5A14.36,14.36,0,0,0,632.31,65.86Z"/><path class="cls-8" d="M646.67,51.5V80.22a14.36,14.36,0,1,0,0-28.72Z"/><path class="cls-9" d="M643.86,76A10.68,10.68,0,0,0,657,68.49v0l-20.67-5.53A10.68,10.68,0,0,0,643.84,76Z"/><path class="cls-10" d="M636.29,62.94,657,68.47a10.7,10.7,0,0,0-20.67-5.53Z"/><g id="fire-7"><path class="cls-3" d="M583.68,162a18.39,18.39,0,0,1-16.17,11.52v9.25a3,3,0,0,0,5.89,0v-4.24a2.94,2.94,0,0,1,2.94-2.94h0a2.94,2.94,0,0,1,2.94,2.94h0V195.1a2.94,2.94,0,0,0,2.94,2.94h.06a2.94,2.94,0,0,0,2.94-2.94h0V166.94A8.82,8.82,0,0,0,583.68,162Z"/><path class="cls-5" d="M583.68,162a8.84,8.84,0,0,0-16.17,4.93v6.59A18.39,18.39,0,0,0,583.68,162Z"/></g><g id="fire-8"><path class="cls-3" d="M722.75,162a18.39,18.39,0,0,1-16.17,11.52v9.25a3,3,0,0,0,5.9,0v-4.24a2.93,2.93,0,0,1,2.92-2.94h0a3,3,0,0,1,3,2.88V195.1a2.93,2.93,0,0,0,2.92,2.94h0a3,3,0,0,0,3-2.88V166.94A8.84,8.84,0,0,0,722.75,162Z"/><path class="cls-5" d="M722.75,162a8.84,8.84,0,0,0-16.17,4.93v6.59A18.39,18.39,0,0,0,722.75,162Z"/></g></g><polygon class="cls-11" points="632.31 82.16 633.4 87.07 638.31 88.16 633.4 89.26 632.31 94.16 631.21 89.26 626.31 88.16 631.21 87.07 632.31 82.16"/><polygon class="cls-11" points="624.22 99.43 624.86 102.29 627.72 102.93 624.86 103.57 624.22 106.43 623.58 103.57 620.72 102.93 623.58 102.29 624.22 99.43"/></g><rect class="cls-1" x="739.5" y="0.17" width="185" height="198"/><g id="spaceship-5"><g id="body-5"><rect class="cls-2" x="860.38" y="120.67" width="26.23" height="10.49"/><path class="cls-2" d="M885,120.67v25.59h30.92A31.48,31.48,0,0,0,885,120.67Z"/><path class="cls-3" d="M885,146.26v5.89h31.48a31.43,31.43,0,0,0-.56-5.89Z"/><rect class="cls-4" x="776.72" y="120.68" width="26.23" height="10.49"/><path class="cls-4" d="M778.37,120.67v25.59H747.45A31.48,31.48,0,0,1,778.37,120.67Z"/><path class="cls-5" d="M778.37,146.26v5.89H746.89a31.43,31.43,0,0,1,.56-5.89Z"/><polygon class="cls-4" points="817.32 25.96 831.67 25.96 831.67 1.11 817.32 25.96"/><polygon class="cls-2" points="831.67 1.11 831.67 25.96 846.01 25.96 831.67 1.11"/><path class="cls-5" d="M831.67,30.65H809.18a32.23,32.23,0,0,0-9.54,22.92v92.69h32Z"/><rect class="cls-4" x="799.64" y="146.26" width="32.03" height="5.89"/><path class="cls-4" d="M831.67,21.27a32.31,32.31,0,0,0-22.49,9.38h22.49Z"/><path class="cls-2" d="M854.71,30.65a32.23,32.23,0,0,0-22.77-9.38h-.27v9.38Z"/><rect class="cls-2" x="831.67" y="146.26" width="32.58" height="5.89"/><path class="cls-3" d="M854.71,30.65h-23V146.26h32.58V53.57A32.21,32.21,0,0,0,854.71,30.65Z"/><line class="cls-6" x1="776.72" y1="120.67" x2="776.72" y2="78.89"/><path class="cls-5" d="M772.84,78.71a3.87,3.87,0,0,0,3.86,3.88h0V74.84a3.87,3.87,0,0,0-3.88,3.86Z"/><path class="cls-3" d="M776.72,74.84v7.75a3.88,3.88,0,0,0,0-7.75Z"/><path class="cls-5" d="M772,88.33a6.71,6.71,0,0,0,0,9.49h0l9.49-9.49a6.71,6.71,0,0,0-9.49,0Z"/><path class="cls-3" d="M781.46,88.33,772,97.82a6.71,6.71,0,0,0,9.49-9.49h0Z"/><line class="cls-6" x1="884.95" y1="120.67" x2="884.95" y2="78.89"/><path class="cls-5" d="M881.07,78.71a3.87,3.87,0,0,0,3.86,3.88H885V74.84a3.87,3.87,0,0,0-3.93,3.81Z"/><path class="cls-3" d="M885,74.84v7.75a3.88,3.88,0,0,0,0-7.75Z"/><path class="cls-5" d="M880.2,88.33a6.71,6.71,0,0,0,0,9.49h0l9.49-9.49a6.71,6.71,0,0,0-9.49,0Z"/><path class="cls-3" d="M889.69,88.33l-9.49,9.49a6.71,6.71,0,0,0,9.49-9.49Z"/><path class="cls-7" d="M817.31,66a14.36,14.36,0,0,0,14.36,14.36V51.67A14.35,14.35,0,0,0,817.31,66Z"/><path class="cls-8" d="M831.67,51.67V80.38a14.36,14.36,0,0,0,.76-28.71C832.18,51.66,831.92,51.66,831.67,51.67Z"/><path class="cls-9" d="M821.35,68.71a10.7,10.7,0,0,0,13.09,7.57h0L828.92,55.6a10.7,10.7,0,0,0-7.57,13.09Z"/><path class="cls-10" d="M828.92,55.6l5.54,20.67a10.7,10.7,0,0,0-5.54-20.67Z"/><g id="fire-9"><path class="cls-3" d="M768.68,162.18a18.38,18.38,0,0,1-16.17,11.51v9.25a2.95,2.95,0,1,0,5.89.34,1.93,1.93,0,0,0,0-.34v-4.23a3,3,0,0,1,2.94-3h0a3,3,0,0,1,2.94,3v16.57a3,3,0,0,0,3,2.94h0a2.94,2.94,0,0,0,2.94-2.94h0V167.11A8.77,8.77,0,0,0,768.68,162.18Z"/><path class="cls-5" d="M768.68,162.18a8.84,8.84,0,0,0-16.17,4.93v6.58A18.38,18.38,0,0,0,768.68,162.18Z"/></g><g id="fire-10"><path class="cls-3" d="M907.75,162.18a18.38,18.38,0,0,1-16.17,11.51v9.25a2.95,2.95,0,0,0,5.9,0v-4.23a3,3,0,0,1,2.88-3h.06a3,3,0,0,1,3,3v16.57a2.94,2.94,0,0,0,2.94,2.94h0a3,3,0,0,0,3-2.94V167.11A8.79,8.79,0,0,0,907.75,162.18Z"/><path class="cls-5" d="M907.75,162.18a8.84,8.84,0,0,0-16.17,4.93v6.58A18.38,18.38,0,0,0,907.75,162.18Z"/></g></g><polygon class="cls-11" points="817.31 81.33 818.59 87.05 824.31 88.33 818.59 89.61 817.31 95.33 816.03 89.61 810.31 88.33 816.03 87.05 817.31 81.33"/><polygon class="cls-11" points="809.22 98.85 810 102.32 813.47 103.1 810 103.87 809.22 107.35 808.45 103.87 804.97 103.1 808.45 102.32 809.22 98.85"/></g><rect class="cls-1" x="924.5" width="185" height="198"/><g id="spaceship-6"><g id="body-6"><rect class="cls-2" x="1045.38" y="120.51" width="26.23" height="10.49"/><path class="cls-2" d="M1070,120.51V146.1h30.92A31.48,31.48,0,0,0,1070,120.51Z"/><path class="cls-3" d="M1070,146.1V152h31.48a31.43,31.43,0,0,0-.56-5.89Z"/><rect class="cls-4" x="961.72" y="120.51" width="26.23" height="10.49"/><path class="cls-4" d="M963.37,120.51V146.1H932.45A31.48,31.48,0,0,1,963.37,120.51Z"/><path class="cls-5" d="M963.37,146.1V152H931.89a31.43,31.43,0,0,1,.56-5.89Z"/><polygon class="cls-4" points="1002.32 25.8 1016.67 25.8 1016.67 0.94 1002.32 25.8"/><polygon class="cls-2" points="1016.67 0.94 1016.67 25.8 1031.02 25.8 1016.67 0.94"/><path class="cls-5" d="M1016.67,30.49H994.18a32.19,32.19,0,0,0-9.54,22.92V146.1h32Z"/><rect class="cls-4" x="984.64" y="146.1" width="32.03" height="5.89"/><path class="cls-4" d="M1016.67,21.11a32.21,32.21,0,0,0-22.49,9.38h22.49Z"/><path class="cls-2" d="M1039.71,30.49a32.24,32.24,0,0,0-22.77-9.39h-.27v9.38Z"/><rect class="cls-2" x="1016.67" y="146.1" width="32.58" height="5.89"/><path class="cls-3" d="M1039.71,30.49h-23V146.1h32.58V53.41A32.21,32.21,0,0,0,1039.71,30.49Z"/><line class="cls-6" x1="961.72" y1="120.51" x2="961.72" y2="78.72"/><path class="cls-5" d="M957.84,78.55a3.88,3.88,0,0,0,3.88,3.88h0V74.67a3.88,3.88,0,0,0-3.88,3.88Z"/><path class="cls-3" d="M961.72,74.67v7.76a3.88,3.88,0,0,0,0-7.76Z"/><path class="cls-5" d="M957,88.16a6.71,6.71,0,0,0,0,9.49h0l9.49-9.49a6.71,6.71,0,0,0-9.49,0Z"/><path class="cls-3" d="M966.46,88.16,957,97.65a6.71,6.71,0,0,0,9.49-9.49h0Z"/><line class="cls-6" x1="1069.95" y1="120.51" x2="1069.95" y2="78.72"/><path class="cls-5" d="M1066.07,78.55a3.88,3.88,0,0,0,3.88,3.88h0V74.67a3.88,3.88,0,0,0-3.88,3.88Z"/><path class="cls-3" d="M1070,74.67v7.76a3.88,3.88,0,1,0,0-7.76Z"/><path class="cls-5" d="M1065.2,88.16a6.71,6.71,0,0,0,0,9.49h0l9.49-9.49a6.71,6.71,0,0,0-9.49,0Z"/><path class="cls-3" d="M1074.69,88.16l-9.49,9.49a6.71,6.71,0,1,0,9.49-9.49Z"/><path class="cls-7" d="M1002.31,65.86a14.36,14.36,0,0,0,14.36,14.36V51.5A14.36,14.36,0,0,0,1002.31,65.86Z"/><path class="cls-8" d="M1016.67,51.5V80.22a14.36,14.36,0,1,0,0-28.72Z"/><path class="cls-9" d="M1009.1,58.29a10.69,10.69,0,0,0,0,15.12h0l15.13-15.13a10.69,10.69,0,0,0-15.12,0Z"/><path class="cls-10" d="M1024.23,58.29,1009.1,73.42a10.7,10.7,0,0,0,15.13-15.13Z"/><g id="fire-11"><path class="cls-3" d="M953.68,162a18.39,18.39,0,0,1-16.17,11.52v9.25a3,3,0,0,0,5.89,0v-4.24a2.94,2.94,0,0,1,2.94-2.94h0a2.94,2.94,0,0,1,2.94,2.94h0V195.1a2.94,2.94,0,0,0,2.94,2.94h.06a2.94,2.94,0,0,0,2.94-2.94h0V166.94A8.82,8.82,0,0,0,953.68,162Z"/><path class="cls-5" d="M953.68,162a8.84,8.84,0,0,0-16.17,4.93v6.59A18.39,18.39,0,0,0,953.68,162Z"/></g><g id="fire-12"><path class="cls-3" d="M1092.75,162a18.39,18.39,0,0,1-16.17,11.52v9.25a3,3,0,0,0,5.9,0v-4.24a2.93,2.93,0,0,1,2.92-2.94h0a2.94,2.94,0,0,1,2.95,2.93h0V195.1a2.93,2.93,0,0,0,2.92,2.94h0a3,3,0,0,0,3-2.88V166.94A8.79,8.79,0,0,0,1092.75,162Z"/><path class="cls-5" d="M1092.75,162a8.84,8.84,0,0,0-16.17,4.93v6.59A18.39,18.39,0,0,0,1092.75,162Z"/></g></g><polygon class="cls-11" points="1002.31 80.08 1003.79 86.69 1010.39 88.16 1003.79 89.64 1002.31 96.25 1000.83 89.64 994.22 88.16 1000.83 86.69 1002.31 80.08"/><polygon class="cls-11" points="994.22 97.65 995.19 101.96 999.5 102.93 995.19 103.89 994.22 108.21 993.26 103.89 988.94 102.93 993.26 101.96 994.22 97.65"/></g></g></g></g></g></svg>