<svg xmlns="http://www.w3.org/2000/svg" viewBox="0 0 1366 4500"><defs><style>.cls-1{isolation:isolate;}.cls-2{fill:#00afae;}.cls-3{opacity:0.3;mix-blend-mode:screen;}.cls-4{fill:#fff100;}</style></defs><title>sky</title><g class="cls-1"><g id="sky"><rect id="background" class="cls-2" width="1366" height="4500"/><g id="stars-2"><g class="cls-3"><path class="cls-4" d="M1216.52,10a1.84,1.84,0,1,1-1.83-1.84A1.86,1.86,0,0,1,1216.52,10Z"/><path class="cls-4" d="M1164.24,93.53a6,6,0,1,1-6-6A6,6,0,0,1,1164.24,93.53Z"/><path class="cls-4" d="M1207.17,113.24a2.51,2.51,0,1,1-2.5-2.49A2.51,2.51,0,0,1,1207.17,113.24Z"/><path class="cls-4" d="M1222.93,295.37a4.92,4.92,0,1,1,4.93,4.94A4.94,4.94,0,0,1,1222.93,295.37Z"/><path class="cls-4" d="M1178.55,258a1.83,1.83,0,1,1,1.83,1.85A1.84,1.84,0,0,1,1178.55,258Z"/><path class="cls-4" d="M1152.31,301.73a3.57,3.57,0,1,1,3.57,3.56A3.57,3.57,0,0,1,1152.31,301.73Z"/><path class="cls-4" d="M1230.84,174.45a6,6,0,1,1,6,6A6,6,0,0,1,1230.84,174.45Z"/><path class="cls-4" d="M1187.91,154.74a2.5,2.5,0,0,1,5,0,2.5,2.5,0,1,1-5,0Z"/><path class="cls-4" d="M1053.65,76.77a2.49,2.49,0,1,1-2.49-2.5A2.48,2.48,0,0,1,1053.65,76.77Z"/><path class="cls-4" d="M1069.42,258.9a4.93,4.93,0,1,1,4.92,4.92A4.91,4.91,0,0,1,1069.42,258.9Z"/><path class="cls-4" d="M1025,221.53a1.85,1.85,0,1,1,1.83,1.83A1.84,1.84,0,0,1,1025,221.53Z"/><path class="cls-4" d="M1077.32,138a6,6,0,1,1,6,5.95A6,6,0,0,1,1077.32,138Z"/><path class="cls-4" d="M1034.39,118.25a2.51,2.51,0,1,1,2.49,2.51A2.51,2.51,0,0,1,1034.39,118.25Z"/><path class="cls-4" d="M1285.3,57.07a6,6,0,1,1-6-6A5.95,5.95,0,0,1,1285.3,57.07Z"/><path class="cls-4" d="M1328.23,76.77a2.51,2.51,0,1,1-2.5-2.5A2.5,2.5,0,0,1,1328.23,76.77Z"/><path class="cls-4" d="M1344,258.9a4.93,4.93,0,1,1,4.93,4.92A4.92,4.92,0,0,1,1344,258.9Z"/><path class="cls-4" d="M1299.61,221.53a1.83,1.83,0,1,1,3.66,0,1.83,1.83,0,1,1-3.66,0Z"/><path class="cls-4" d="M1273.37,265.26a3.58,3.58,0,1,1,3.57,3.55A3.56,3.56,0,0,1,1273.37,265.26Z"/><path class="cls-4" d="M1351.9,138a6,6,0,1,1,5.95,5.95A6,6,0,0,1,1351.9,138Z"/><path class="cls-4" d="M1308.94,118.25a2.51,2.51,0,0,1,5,0,2.51,2.51,0,1,1-5,0Z"/></g><g class="cls-3"><path class="cls-4" d="M1172.16,389.29a4.94,4.94,0,1,1-5-4.94A4.94,4.94,0,0,1,1172.16,389.29Z"/><path class="cls-4" d="M1216.52,426.67a1.84,1.84,0,1,1-3.68,0,1.84,1.84,0,1,1,3.68,0Z"/><path class="cls-4" d="M1242.76,383a3.56,3.56,0,1,1-3.57-3.58A3.57,3.57,0,0,1,1242.76,383Z"/><path class="cls-4" d="M1164.24,510.22a6,6,0,1,1-6-6A6,6,0,0,1,1164.24,510.22Z"/><path class="cls-4" d="M1207.17,529.93a2.51,2.51,0,1,1-2.5-2.51A2.52,2.52,0,0,1,1207.17,529.93Z"/><path class="cls-4" d="M1222.93,712.05a4.92,4.92,0,1,1,4.93,4.93A4.94,4.94,0,0,1,1222.93,712.05Z"/><path class="cls-4" d="M1178.55,674.66a1.83,1.83,0,1,1,1.83,1.85A1.84,1.84,0,0,1,1178.55,674.66Z"/><path class="cls-4" d="M1152.31,718.4a3.57,3.57,0,1,1,3.57,3.57A3.57,3.57,0,0,1,1152.31,718.4Z"/><path class="cls-4" d="M1230.84,591.12a6,6,0,1,1,6,6A5.95,5.95,0,0,1,1230.84,591.12Z"/><path class="cls-4" d="M1187.91,571.41a2.5,2.5,0,1,1,2.49,2.49A2.48,2.48,0,0,1,1187.91,571.41Z"/><path class="cls-4" d="M1018.64,352.81a4.93,4.93,0,1,1-4.92-4.93A4.94,4.94,0,0,1,1018.64,352.81Z"/><path class="cls-4" d="M1063,390.19a1.84,1.84,0,1,1-1.84-1.85A1.84,1.84,0,0,1,1063,390.19Z"/><path class="cls-4" d="M1089.26,346.46a3.57,3.57,0,1,1-3.59-3.57A3.59,3.59,0,0,1,1089.26,346.46Z"/><path class="cls-4" d="M1053.65,493.45a2.49,2.49,0,1,1-2.49-2.51A2.48,2.48,0,0,1,1053.65,493.45Z"/><path class="cls-4" d="M1069.42,675.57a4.93,4.93,0,1,1,4.92,4.93A4.91,4.91,0,0,1,1069.42,675.57Z"/><path class="cls-4" d="M1025,638.21a1.85,1.85,0,1,1,1.83,1.84A1.84,1.84,0,0,1,1025,638.21Z"/><path class="cls-4" d="M1077.32,554.64a6,6,0,1,1,6,6A6,6,0,0,1,1077.32,554.64Z"/><path class="cls-4" d="M1034.39,534.92a2.51,2.51,0,1,1,2.49,2.51A2.49,2.49,0,0,1,1034.39,534.92Z"/><path class="cls-4" d="M1293.2,352.81a4.93,4.93,0,1,1-4.93-4.93A4.91,4.91,0,0,1,1293.2,352.81Z"/><path class="cls-4" d="M1337.57,390.19a1.83,1.83,0,1,1-1.83-1.85A1.83,1.83,0,0,1,1337.57,390.19Z"/><path class="cls-4" d="M1363.82,346.46a3.57,3.57,0,1,1-3.55-3.57A3.59,3.59,0,0,1,1363.82,346.46Z"/><path class="cls-4" d="M1285.3,473.74a6,6,0,1,1-6-6A5.95,5.95,0,0,1,1285.3,473.74Z"/><path class="cls-4" d="M1328.23,493.45a2.51,2.51,0,1,1-2.5-2.51A2.49,2.49,0,0,1,1328.23,493.45Z"/><path class="cls-4" d="M1344,675.57a4.93,4.93,0,1,1,4.93,4.93A4.91,4.91,0,0,1,1344,675.57Z"/><path class="cls-4" d="M1299.61,638.21a1.83,1.83,0,1,1,1.85,1.84A1.85,1.85,0,0,1,1299.61,638.21Z"/><path class="cls-4" d="M1273.37,681.93a3.58,3.58,0,1,1,3.57,3.57A3.56,3.56,0,0,1,1273.37,681.93Z"/><path class="cls-4" d="M1351.9,554.64a6,6,0,1,1,5.95,6A6,6,0,0,1,1351.9,554.64Z"/><path class="cls-4" d="M1308.94,534.92a2.51,2.51,0,1,1,2.52,2.51A2.5,2.5,0,0,1,1308.94,534.92Z"/></g><g class="cls-3"><path class="cls-4" d="M1172.16,818.38a4.94,4.94,0,1,1-5-4.94A4.93,4.93,0,0,1,1172.16,818.38Z"/><path class="cls-4" d="M1216.52,855.76a1.84,1.84,0,1,1-3.68,0,1.84,1.84,0,1,1,3.68,0Z"/><path class="cls-4" d="M1242.76,812a3.56,3.56,0,1,1-3.57-3.59A3.58,3.58,0,0,1,1242.76,812Z"/><path class="cls-4" d="M1164.24,939.3a6,6,0,1,1-6-5.95A6,6,0,0,1,1164.24,939.3Z"/><path class="cls-4" d="M1018.64,781.9a4.93,4.93,0,1,1-4.92-4.91A4.94,4.94,0,0,1,1018.64,781.9Z"/><path class="cls-4" d="M1063,819.27a1.84,1.84,0,1,1-1.84-1.84A1.85,1.85,0,0,1,1063,819.27Z"/><path class="cls-4" d="M1089.26,775.54a3.57,3.57,0,1,1-3.59-3.55A3.59,3.59,0,0,1,1089.26,775.54Z"/><path class="cls-4" d="M1053.65,922.54a2.49,2.49,0,1,1-5,0,2.49,2.49,0,1,1,5,0Z"/><path class="cls-4" d="M1293.2,781.9a4.93,4.93,0,1,1-4.93-4.91A4.91,4.91,0,0,1,1293.2,781.9Z"/><path class="cls-4" d="M1337.57,819.27a1.83,1.83,0,1,1-1.83-1.84A1.84,1.84,0,0,1,1337.57,819.27Z"/><path class="cls-4" d="M1363.82,775.54a3.57,3.57,0,1,1-3.55-3.55A3.59,3.59,0,0,1,1363.82,775.54Z"/><path class="cls-4" d="M1285.3,902.83a6,6,0,1,1-6-6A6,6,0,0,1,1285.3,902.83Z"/><path class="cls-4" d="M1328.23,922.54a2.51,2.51,0,1,1-2.5-2.51A2.5,2.5,0,0,1,1328.23,922.54Z"/></g></g><g id="stars-3"><g class="cls-3"><path class="cls-4" d="M173.54,40.66a6,6,0,1,1-6-6A6,6,0,0,1,173.54,40.66Z"/><path class="cls-4" d="M216.47,60.37a2.51,2.51,0,1,1-2.5-2.51A2.51,2.51,0,0,1,216.47,60.37Z"/><path class="cls-4" d="M232.23,242.49a4.92,4.92,0,1,1,4.92,4.94A4.93,4.93,0,0,1,232.23,242.49Z"/><path class="cls-4" d="M187.84,205.12a1.84,1.84,0,0,1,3.67,0,1.84,1.84,0,1,1-3.67,0Z"/><path class="cls-4" d="M161.61,248.86a3.56,3.56,0,1,1,3.57,3.56A3.57,3.57,0,0,1,161.61,248.86Z"/><path class="cls-4" d="M240.14,121.58a6,6,0,1,1,6,5.94A5.95,5.95,0,0,1,240.14,121.58Z"/><path class="cls-4" d="M197.21,101.85a2.48,2.48,0,0,1,2.48-2.49,2.5,2.5,0,1,1,0,5A2.48,2.48,0,0,1,197.21,101.85Z"/><path class="cls-4" d="M63,23.89a2.5,2.5,0,1,1-5,0,2.5,2.5,0,1,1,5,0Z"/><path class="cls-4" d="M78.72,206a4.92,4.92,0,1,1,4.93,4.91A4.91,4.91,0,0,1,78.72,206Z"/><path class="cls-4" d="M34.34,168.65a1.85,1.85,0,1,1,1.82,1.84A1.84,1.84,0,0,1,34.34,168.65Z"/><path class="cls-4" d="M86.62,85.09a6,6,0,1,1,6,5.94A6,6,0,0,1,86.62,85.09Z"/><path class="cls-4" d="M43.69,65.38a2.51,2.51,0,1,1,2.49,2.49A2.5,2.5,0,0,1,43.69,65.38Z"/><path class="cls-4" d="M448.08,40.66a6,6,0,1,1-5.94-6A6,6,0,0,1,448.08,40.66Z"/><path class="cls-4" d="M491,60.37a2.5,2.5,0,1,1-2.5-2.51A2.5,2.5,0,0,1,491,60.37Z"/><path class="cls-4" d="M506.75,242.49a4.94,4.94,0,1,1,4.95,4.94A5,5,0,0,1,506.75,242.49Z"/><path class="cls-4" d="M462.41,205.12a1.84,1.84,0,0,1,3.67,0,1.84,1.84,0,1,1-3.67,0Z"/><path class="cls-4" d="M436.18,248.86a3.57,3.57,0,1,1,7.13,0,3.57,3.57,0,0,1-7.13,0Z"/><path class="cls-4" d="M514.68,121.58a6,6,0,1,1,6,5.94A6,6,0,0,1,514.68,121.58Z"/><path class="cls-4" d="M471.76,101.85a2.5,2.5,0,1,1,2.49,2.5A2.49,2.49,0,0,1,471.76,101.85Z"/><path class="cls-4" d="M294.6,4.18a6,6,0,1,1-6-6A6,6,0,0,1,294.6,4.18Z"/><path class="cls-4" d="M337.52,23.89a2.5,2.5,0,0,1-5,0,2.5,2.5,0,1,1,5,0Z"/><path class="cls-4" d="M353.29,206a4.93,4.93,0,1,1,4.92,4.91A4.91,4.91,0,0,1,353.29,206Z"/><path class="cls-4" d="M308.91,168.65a1.84,1.84,0,0,1,1.85-1.84,1.84,1.84,0,0,1,0,3.68A1.84,1.84,0,0,1,308.91,168.65Z"/><path class="cls-4" d="M282.67,212.37a3.57,3.57,0,1,1,3.56,3.57A3.56,3.56,0,0,1,282.67,212.37Z"/><path class="cls-4" d="M361.2,85.09A6,6,0,1,1,367.14,91,6,6,0,0,1,361.2,85.09Z"/><path class="cls-4" d="M318.24,65.38a2.51,2.51,0,0,1,5,0,2.51,2.51,0,0,1-5,0Z"/><path class="cls-4" d="M743.7,40.66a6,6,0,1,1-6-6A5.95,5.95,0,0,1,743.7,40.66Z"/><path class="cls-4" d="M786.63,60.37a2.51,2.51,0,1,1-2.5-2.51A2.51,2.51,0,0,1,786.63,60.37Z"/><path class="cls-4" d="M802.4,242.49a4.92,4.92,0,1,1,4.93,4.94A4.95,4.95,0,0,1,802.4,242.49Z"/><path class="cls-4" d="M758,205.12a1.84,1.84,0,1,1,1.85,1.85A1.87,1.87,0,0,1,758,205.12Z"/><path class="cls-4" d="M731.79,248.86a3.56,3.56,0,1,1,3.56,3.56A3.56,3.56,0,0,1,731.79,248.86Z"/><path class="cls-4" d="M810.32,121.58a5.95,5.95,0,1,1,5.94,5.94A5.95,5.95,0,0,1,810.32,121.58Z"/><path class="cls-4" d="M767.38,101.85a2.5,2.5,0,1,1,2.49,2.5A2.48,2.48,0,0,1,767.38,101.85Z"/><path class="cls-4" d="M590.2,4.18a6,6,0,1,1-6-6A6,6,0,0,1,590.2,4.18Z"/><path class="cls-4" d="M633.12,23.89a2.47,2.47,0,0,1-2.48,2.5,2.51,2.51,0,0,1-2.53-2.5,2.54,2.54,0,0,1,2.53-2.51A2.49,2.49,0,0,1,633.12,23.89Z"/><path class="cls-4" d="M648.88,206a4.94,4.94,0,1,1,4.94,4.91A4.94,4.94,0,0,1,648.88,206Z"/><path class="cls-4" d="M604.51,168.65a1.84,1.84,0,1,1,1.83,1.84A1.85,1.85,0,0,1,604.51,168.65Z"/><path class="cls-4" d="M578.28,212.37a3.56,3.56,0,1,1,3.58,3.57A3.54,3.54,0,0,1,578.28,212.37Z"/><path class="cls-4" d="M656.81,85.09a6,6,0,1,1,6,5.94A6,6,0,0,1,656.81,85.09Z"/><path class="cls-4" d="M613.87,65.38a2.5,2.5,0,1,1,2.49,2.49A2.49,2.49,0,0,1,613.87,65.38Z"/><path class="cls-4" d="M1018.26,40.66a6,6,0,1,1-6-6A6,6,0,0,1,1018.26,40.66Z"/><path class="cls-4" d="M1006.34,248.86a3.56,3.56,0,1,1,3.57,3.56A3.57,3.57,0,0,1,1006.34,248.86Z"/><path class="cls-4" d="M864.75,4.18a6,6,0,1,1-6-6A6,6,0,0,1,864.75,4.18Z"/><path class="cls-4" d="M907.7,23.89a2.51,2.51,0,0,1-5,0,2.51,2.51,0,1,1,5,0Z"/><path class="cls-4" d="M923.45,206a4.93,4.93,0,1,1,4.92,4.91A4.92,4.92,0,0,1,923.45,206Z"/><path class="cls-4" d="M879.07,168.65a1.85,1.85,0,1,1,1.85,1.84A1.84,1.84,0,0,1,879.07,168.65Z"/><path class="cls-4" d="M852.85,212.37a3.56,3.56,0,1,1,3.55,3.57A3.54,3.54,0,0,1,852.85,212.37Z"/><path class="cls-4" d="M931.35,85.09a6,6,0,1,1,6,5.94A6,6,0,0,1,931.35,85.09Z"/><path class="cls-4" d="M888.42,65.38a2.51,2.51,0,1,1,2.51,2.49A2.5,2.5,0,0,1,888.42,65.38Z"/></g><g class="cls-3"><path class="cls-4" d="M181.45,336.41a4.94,4.94,0,1,1-4.95-4.94A4.93,4.93,0,0,1,181.45,336.41Z"/><path class="cls-4" d="M225.82,373.79a1.85,1.85,0,1,1-1.84-1.85A1.86,1.86,0,0,1,225.82,373.79Z"/><path class="cls-4" d="M252.06,330.06a3.57,3.57,0,1,1-3.57-3.57A3.58,3.58,0,0,1,252.06,330.06Z"/><path class="cls-4" d="M173.54,457.33a6,6,0,1,1-6-5.95A6,6,0,0,1,173.54,457.33Z"/><path class="cls-4" d="M216.47,477.06a2.51,2.51,0,1,1-2.5-2.52A2.51,2.51,0,0,1,216.47,477.06Z"/><path class="cls-4" d="M232.23,659.16a4.92,4.92,0,1,1,4.92,4.94A4.92,4.92,0,0,1,232.23,659.16Z"/><path class="cls-4" d="M187.84,621.78a1.84,1.84,0,0,1,3.67,0,1.84,1.84,0,1,1-3.67,0Z"/><path class="cls-4" d="M161.61,665.52a3.56,3.56,0,1,1,3.57,3.58A3.57,3.57,0,0,1,161.61,665.52Z"/><path class="cls-4" d="M240.14,538.25a6,6,0,1,1,6,6A5.95,5.95,0,0,1,240.14,538.25Z"/><path class="cls-4" d="M197.21,518.54a2.48,2.48,0,0,1,2.48-2.5,2.49,2.49,0,1,1,0,5A2.47,2.47,0,0,1,197.21,518.54Z"/><path class="cls-4" d="M27.94,299.94A4.94,4.94,0,1,1,23,295,4.93,4.93,0,0,1,27.94,299.94Z"/><path class="cls-4" d="M72.31,337.31a1.84,1.84,0,1,1-1.84-1.85A1.85,1.85,0,0,1,72.31,337.31Z"/><path class="cls-4" d="M98.55,293.58A3.57,3.57,0,1,1,95,290,3.58,3.58,0,0,1,98.55,293.58Z"/><path class="cls-4" d="M63,440.56a2.5,2.5,0,1,1-5,0,2.5,2.5,0,1,1,5,0Z"/><path class="cls-4" d="M78.72,622.69a4.92,4.92,0,1,1,4.93,4.93A4.92,4.92,0,0,1,78.72,622.69Z"/><path class="cls-4" d="M34.34,585.33a1.85,1.85,0,1,1,3.69,0,1.85,1.85,0,0,1-3.69,0Z"/><path class="cls-4" d="M86.62,501.77a6,6,0,1,1,6,6A6,6,0,0,1,86.62,501.77Z"/><path class="cls-4" d="M43.69,482.05a2.51,2.51,0,1,1,2.49,2.51A2.5,2.5,0,0,1,43.69,482.05Z"/><path class="cls-4" d="M456,336.41a4.92,4.92,0,1,1-4.93-4.94A4.91,4.91,0,0,1,456,336.41Z"/><path class="cls-4" d="M500.39,373.79a1.84,1.84,0,1,1-3.68,0,1.84,1.84,0,1,1,3.68,0Z"/><path class="cls-4" d="M526.61,330.06a3.57,3.57,0,1,1-3.55-3.57A3.58,3.58,0,0,1,526.61,330.06Z"/><path class="cls-4" d="M448.08,457.33a6,6,0,1,1-5.94-5.95A6,6,0,0,1,448.08,457.33Z"/><path class="cls-4" d="M491,477.06a2.5,2.5,0,1,1-2.5-2.52A2.51,2.51,0,0,1,491,477.06Z"/><path class="cls-4" d="M506.75,659.16a4.94,4.94,0,1,1,4.95,4.94A5,5,0,0,1,506.75,659.16Z"/><path class="cls-4" d="M462.41,621.78a1.84,1.84,0,0,1,3.67,0,1.84,1.84,0,1,1-3.67,0Z"/><path class="cls-4" d="M436.18,665.52a3.57,3.57,0,0,1,7.13,0,3.57,3.57,0,1,1-7.13,0Z"/><path class="cls-4" d="M514.68,538.25a6,6,0,1,1,6,6A6,6,0,0,1,514.68,538.25Z"/><path class="cls-4" d="M471.76,518.54a2.5,2.5,0,1,1,2.49,2.48A2.49,2.49,0,0,1,471.76,518.54Z"/><path class="cls-4" d="M302.5,299.94a4.93,4.93,0,1,1-4.93-4.93A4.9,4.9,0,0,1,302.5,299.94Z"/><path class="cls-4" d="M346.86,337.31a1.82,1.82,0,1,1-1.81-1.85A1.83,1.83,0,0,1,346.86,337.31Z"/><path class="cls-4" d="M373.12,293.58a3.57,3.57,0,1,1-3.56-3.56A3.58,3.58,0,0,1,373.12,293.58Z"/><path class="cls-4" d="M294.6,420.87a6,6,0,1,1-6-6A6,6,0,0,1,294.6,420.87Z"/><path class="cls-4" d="M337.52,440.56a2.5,2.5,0,1,1-5,0,2.5,2.5,0,1,1,5,0Z"/><path class="cls-4" d="M353.29,622.69a4.93,4.93,0,1,1,4.92,4.93A4.92,4.92,0,0,1,353.29,622.69Z"/><path class="cls-4" d="M308.91,585.33a1.84,1.84,0,0,1,1.85-1.85,1.85,1.85,0,0,1,0,3.69A1.85,1.85,0,0,1,308.91,585.33Z"/><path class="cls-4" d="M282.67,629.05a3.57,3.57,0,1,1,3.56,3.56A3.57,3.57,0,0,1,282.67,629.05Z"/><path class="cls-4" d="M361.2,501.77a6,6,0,1,1,5.94,6A6,6,0,0,1,361.2,501.77Z"/><path class="cls-4" d="M318.24,482.05a2.51,2.51,0,1,1,2.52,2.51A2.5,2.5,0,0,1,318.24,482.05Z"/><path class="cls-4" d="M751.62,336.41a4.94,4.94,0,1,1-4.93-4.94A4.93,4.93,0,0,1,751.62,336.41Z"/><path class="cls-4" d="M796,373.79a1.84,1.84,0,1,1-1.84-1.85A1.84,1.84,0,0,1,796,373.79Z"/><path class="cls-4" d="M822.21,330.06a3.56,3.56,0,1,1-3.55-3.57A3.56,3.56,0,0,1,822.21,330.06Z"/><path class="cls-4" d="M743.7,457.33a6,6,0,1,1-6-5.95A5.95,5.95,0,0,1,743.7,457.33Z"/><path class="cls-4" d="M786.63,477.06a2.51,2.51,0,1,1-2.5-2.52A2.51,2.51,0,0,1,786.63,477.06Z"/><path class="cls-4" d="M802.4,659.16a4.92,4.92,0,1,1,4.93,4.94A4.94,4.94,0,0,1,802.4,659.16Z"/><path class="cls-4" d="M758,621.78a1.84,1.84,0,0,1,3.68,0,1.84,1.84,0,1,1-3.68,0Z"/><path class="cls-4" d="M731.79,665.52a3.56,3.56,0,1,1,3.56,3.58A3.55,3.55,0,0,1,731.79,665.52Z"/><path class="cls-4" d="M810.32,538.25a5.95,5.95,0,1,1,5.94,6A5.95,5.95,0,0,1,810.32,538.25Z"/><path class="cls-4" d="M767.38,518.54a2.5,2.5,0,1,1,2.49,2.48A2.49,2.49,0,0,1,767.38,518.54Z"/><path class="cls-4" d="M598.12,299.94a4.94,4.94,0,1,1-4.93-4.93A4.92,4.92,0,0,1,598.12,299.94Z"/><path class="cls-4" d="M642.49,337.31a1.85,1.85,0,1,1-1.85-1.85A1.87,1.87,0,0,1,642.49,337.31Z"/><path class="cls-4" d="M668.71,293.58a3.56,3.56,0,1,1-3.56-3.56A3.56,3.56,0,0,1,668.71,293.58Z"/><path class="cls-4" d="M590.2,420.87a6,6,0,1,1-6-6A5.95,5.95,0,0,1,590.2,420.87Z"/><path class="cls-4" d="M633.12,440.56a2.47,2.47,0,0,1-2.48,2.51,2.52,2.52,0,0,1-2.53-2.51,2.54,2.54,0,0,1,2.53-2.51A2.5,2.5,0,0,1,633.12,440.56Z"/><path class="cls-4" d="M648.88,622.69a4.94,4.94,0,1,1,4.94,4.93A4.95,4.95,0,0,1,648.88,622.69Z"/><path class="cls-4" d="M604.51,585.33a1.84,1.84,0,1,1,1.83,1.84A1.85,1.85,0,0,1,604.51,585.33Z"/><path class="cls-4" d="M578.28,629.05a3.56,3.56,0,1,1,3.58,3.56A3.55,3.55,0,0,1,578.28,629.05Z"/><path class="cls-4" d="M656.81,501.77a6,6,0,1,1,6,6A6,6,0,0,1,656.81,501.77Z"/><path class="cls-4" d="M613.87,482.05a2.5,2.5,0,1,1,2.49,2.51A2.48,2.48,0,0,1,613.87,482.05Z"/><path class="cls-4" d="M1026.17,336.41a4.93,4.93,0,1,1-4.92-4.94A4.93,4.93,0,0,1,1026.17,336.41Z"/><path class="cls-4" d="M1018.26,457.33a6,6,0,1,1-6-5.95A6,6,0,0,1,1018.26,457.33Z"/><path class="cls-4" d="M1006.34,665.52a3.56,3.56,0,1,1,3.57,3.58A3.56,3.56,0,0,1,1006.34,665.52Z"/><path class="cls-4" d="M872.67,299.94a4.94,4.94,0,1,1-4.94-4.93A4.93,4.93,0,0,1,872.67,299.94Z"/><path class="cls-4" d="M917.05,337.31a1.86,1.86,0,0,1-1.83,1.86,1.86,1.86,0,0,1,0-3.71A1.85,1.85,0,0,1,917.05,337.31Z"/><path class="cls-4" d="M943.29,293.58a3.58,3.58,0,1,1-3.58-3.56A3.58,3.58,0,0,1,943.29,293.58Z"/><path class="cls-4" d="M864.75,420.87a6,6,0,1,1-6-6A6,6,0,0,1,864.75,420.87Z"/><path class="cls-4" d="M907.7,440.56a2.51,2.51,0,1,1-5,0,2.51,2.51,0,0,1,5,0Z"/><path class="cls-4" d="M923.45,622.69a4.93,4.93,0,1,1,4.92,4.93A4.93,4.93,0,0,1,923.45,622.69Z"/><path class="cls-4" d="M879.07,585.33a1.85,1.85,0,1,1,3.69,0,1.85,1.85,0,0,1-3.69,0Z"/><path class="cls-4" d="M852.85,629.05a3.56,3.56,0,1,1,3.55,3.56A3.55,3.55,0,0,1,852.85,629.05Z"/><path class="cls-4" d="M931.35,501.77a6,6,0,1,1,6,6A6,6,0,0,1,931.35,501.77Z"/><path class="cls-4" d="M888.42,482.05a2.51,2.51,0,1,1,2.51,2.51A2.5,2.5,0,0,1,888.42,482.05Z"/></g><g class="cls-3"><path class="cls-4" d="M181.45,765.5a4.94,4.94,0,1,1-4.95-4.94A4.93,4.93,0,0,1,181.45,765.5Z"/><path class="cls-4" d="M225.82,802.87a1.85,1.85,0,1,1-3.69,0,1.85,1.85,0,0,1,3.69,0Z"/><path class="cls-4" d="M252.06,759.15a3.57,3.57,0,1,1-3.57-3.57A3.58,3.58,0,0,1,252.06,759.15Z"/><path class="cls-4" d="M173.54,886.42a6,6,0,1,1-6-5.95A6,6,0,0,1,173.54,886.42Z"/><path class="cls-4" d="M27.94,729A4.94,4.94,0,1,1,23,724.1,4.94,4.94,0,0,1,27.94,729Z"/><path class="cls-4" d="M72.31,766.41a1.84,1.84,0,1,1-1.84-1.86A1.84,1.84,0,0,1,72.31,766.41Z"/><path class="cls-4" d="M98.55,722.67A3.57,3.57,0,1,1,95,719.1,3.58,3.58,0,0,1,98.55,722.67Z"/><path class="cls-4" d="M63,869.67a2.5,2.5,0,1,1-2.5-2.51A2.48,2.48,0,0,1,63,869.67Z"/><path class="cls-4" d="M456,765.5a4.92,4.92,0,1,1-4.93-4.94A4.91,4.91,0,0,1,456,765.5Z"/><path class="cls-4" d="M500.39,802.87a1.84,1.84,0,1,1-3.68,0,1.84,1.84,0,0,1,3.68,0Z"/><path class="cls-4" d="M526.61,759.15a3.57,3.57,0,1,1-3.55-3.57A3.58,3.58,0,0,1,526.61,759.15Z"/><path class="cls-4" d="M448.08,886.42a6,6,0,1,1-5.94-5.95A6,6,0,0,1,448.08,886.42Z"/><path class="cls-4" d="M302.5,729a4.93,4.93,0,1,1-4.93-4.93A4.91,4.91,0,0,1,302.5,729Z"/><path class="cls-4" d="M346.86,766.41a1.82,1.82,0,1,1-1.81-1.86A1.82,1.82,0,0,1,346.86,766.41Z"/><path class="cls-4" d="M373.12,722.67a3.57,3.57,0,1,1-3.56-3.57A3.58,3.58,0,0,1,373.12,722.67Z"/><path class="cls-4" d="M294.6,850a6,6,0,1,1-6-6A6,6,0,0,1,294.6,850Z"/><path class="cls-4" d="M337.52,869.67a2.5,2.5,0,1,1-2.5-2.51A2.49,2.49,0,0,1,337.52,869.67Z"/><path class="cls-4" d="M751.62,765.5a4.94,4.94,0,1,1-4.93-4.94A4.93,4.93,0,0,1,751.62,765.5Z"/><path class="cls-4" d="M796,802.87a1.84,1.84,0,1,1-3.67,0,1.84,1.84,0,0,1,3.67,0Z"/><ellipse class="cls-4" cx="818.66" cy="759.15" rx="3.56" ry="3.57"/><path class="cls-4" d="M743.7,886.42a6,6,0,1,1-6-5.95A5.95,5.95,0,0,1,743.7,886.42Z"/><path class="cls-4" d="M598.12,729a4.94,4.94,0,1,1-4.93-4.93A4.93,4.93,0,0,1,598.12,729Z"/><path class="cls-4" d="M642.49,766.41a1.85,1.85,0,1,1-1.85-1.86A1.86,1.86,0,0,1,642.49,766.41Z"/><path class="cls-4" d="M668.71,722.67a3.56,3.56,0,1,1-3.56-3.57A3.56,3.56,0,0,1,668.71,722.67Z"/><path class="cls-4" d="M590.2,850a6,6,0,1,1-6-6A6,6,0,0,1,590.2,850Z"/><path class="cls-4" d="M633.12,869.67a2.47,2.47,0,0,1-2.48,2.49,2.5,2.5,0,1,1,0-5A2.49,2.49,0,0,1,633.12,869.67Z"/><path class="cls-4" d="M1026.17,765.5a4.93,4.93,0,1,1-4.92-4.94A4.93,4.93,0,0,1,1026.17,765.5Z"/><path class="cls-4" d="M1018.26,886.42a6,6,0,1,1-6-5.95A6,6,0,0,1,1018.26,886.42Z"/><path class="cls-4" d="M872.67,729a4.94,4.94,0,1,1-4.94-4.93A4.94,4.94,0,0,1,872.67,729Z"/><path class="cls-4" d="M917.05,766.41a1.85,1.85,0,0,1-1.83,1.84,1.85,1.85,0,0,1,0-3.7A1.86,1.86,0,0,1,917.05,766.41Z"/><path class="cls-4" d="M943.29,722.67a3.58,3.58,0,1,1-3.58-3.57A3.58,3.58,0,0,1,943.29,722.67Z"/><path class="cls-4" d="M864.75,850a6,6,0,1,1-6-6A6,6,0,0,1,864.75,850Z"/><path class="cls-4" d="M907.7,869.67a2.51,2.51,0,1,1-2.51-2.51A2.49,2.49,0,0,1,907.7,869.67Z"/></g></g><g id="stars-2-2" data-name="stars-2"><g class="cls-3"><path class="cls-4" d="M1130.3,1009.51a4.94,4.94,0,1,1-5-4.94A4.93,4.93,0,0,1,1130.3,1009.51Z"/><path class="cls-4" d="M1174.67,1046.88a1.85,1.85,0,1,1-3.69,0,1.85,1.85,0,0,1,3.69,0Z"/><path class="cls-4" d="M1200.9,1003.16a3.56,3.56,0,1,1-3.57-3.57A3.56,3.56,0,0,1,1200.9,1003.16Z"/><path class="cls-4" d="M1122.38,1130.42a6,6,0,1,1-6-6A6,6,0,0,1,1122.38,1130.42Z"/><path class="cls-4" d="M1165.31,1150.14a2.5,2.5,0,1,1-2.49-2.5A2.51,2.51,0,0,1,1165.31,1150.14Z"/><path class="cls-4" d="M1181.08,1332.26a4.92,4.92,0,1,1,4.92,4.94A4.93,4.93,0,0,1,1181.08,1332.26Z"/><path class="cls-4" d="M1136.7,1294.88a1.83,1.83,0,0,1,3.66,0,1.83,1.83,0,1,1-3.66,0Z"/><path class="cls-4" d="M1110.46,1338.63a3.56,3.56,0,1,1,3.56,3.56A3.57,3.57,0,0,1,1110.46,1338.63Z"/><path class="cls-4" d="M1189,1211.35a6,6,0,1,1,6,6A6,6,0,0,1,1189,1211.35Z"/><path class="cls-4" d="M1146.06,1191.64a2.48,2.48,0,0,1,2.48-2.5,2.5,2.5,0,1,1,0,5A2.48,2.48,0,0,1,1146.06,1191.64Z"/><path class="cls-4" d="M976.79,973a4.94,4.94,0,1,1-4.92-4.93A4.93,4.93,0,0,1,976.79,973Z"/><path class="cls-4" d="M1021.16,1010.41a1.84,1.84,0,1,1-1.84-1.85A1.84,1.84,0,0,1,1021.16,1010.41Z"/><path class="cls-4" d="M1047.4,966.68a3.57,3.57,0,1,1-3.58-3.57A3.59,3.59,0,0,1,1047.4,966.68Z"/><path class="cls-4" d="M1011.8,1113.66a2.5,2.5,0,1,1-2.5-2.5A2.48,2.48,0,0,1,1011.8,1113.66Z"/><path class="cls-4" d="M1027.57,1295.8a4.92,4.92,0,1,1,4.92,4.91A4.91,4.91,0,0,1,1027.57,1295.8Z"/><path class="cls-4" d="M983.19,1258.42a1.85,1.85,0,1,1,1.82,1.84A1.84,1.84,0,0,1,983.19,1258.42Z"/><path class="cls-4" d="M1035.46,1174.86a6,6,0,1,1,6,5.94A6,6,0,0,1,1035.46,1174.86Z"/><path class="cls-4" d="M992.53,1155.15a2.51,2.51,0,1,1,2.5,2.51A2.51,2.51,0,0,1,992.53,1155.15Z"/><path class="cls-4" d="M1251.35,973a4.93,4.93,0,1,1-4.93-4.93A4.9,4.9,0,0,1,1251.35,973Z"/><path class="cls-4" d="M1295.71,1010.41a1.82,1.82,0,1,1-1.82-1.85A1.83,1.83,0,0,1,1295.71,1010.41Z"/><path class="cls-4" d="M1322,966.68a3.57,3.57,0,1,1-3.56-3.57A3.59,3.59,0,0,1,1322,966.68Z"/><path class="cls-4" d="M1243.45,1094a6,6,0,1,1-6-6A6,6,0,0,1,1243.45,1094Z"/><path class="cls-4" d="M1286.37,1113.66a2.5,2.5,0,1,1-2.49-2.5A2.49,2.49,0,0,1,1286.37,1113.66Z"/><path class="cls-4" d="M1302.13,1295.8a4.93,4.93,0,1,1,4.93,4.91A4.91,4.91,0,0,1,1302.13,1295.8Z"/><path class="cls-4" d="M1257.76,1258.42a1.83,1.83,0,1,1,1.85,1.84A1.85,1.85,0,0,1,1257.76,1258.42Z"/><path class="cls-4" d="M1231.52,1302.15a3.57,3.57,0,1,1,3.56,3.55A3.55,3.55,0,0,1,1231.52,1302.15Z"/><path class="cls-4" d="M1310.05,1174.86a6,6,0,1,1,5.94,5.94A6,6,0,0,1,1310.05,1174.86Z"/><path class="cls-4" d="M1267.08,1155.15a2.52,2.52,0,0,1,2.53-2.5,2.51,2.51,0,0,1,0,5A2.53,2.53,0,0,1,1267.08,1155.15Z"/></g><g class="cls-3"><path class="cls-4" d="M1130.3,1426.18a4.94,4.94,0,1,1-5-4.94A4.93,4.93,0,0,1,1130.3,1426.18Z"/><path class="cls-4" d="M1174.67,1463.56a1.85,1.85,0,1,1-3.69,0,1.85,1.85,0,1,1,3.69,0Z"/><path class="cls-4" d="M1200.9,1419.84a3.56,3.56,0,1,1-3.57-3.58A3.56,3.56,0,0,1,1200.9,1419.84Z"/><path class="cls-4" d="M1122.38,1547.11a6,6,0,1,1-6-6A6,6,0,0,1,1122.38,1547.11Z"/><path class="cls-4" d="M1165.31,1566.82a2.5,2.5,0,1,1-2.49-2.51A2.51,2.51,0,0,1,1165.31,1566.82Z"/><path class="cls-4" d="M1181.08,1748.94a4.92,4.92,0,1,1,4.92,4.93A4.94,4.94,0,0,1,1181.08,1748.94Z"/><path class="cls-4" d="M1136.7,1711.55a1.83,1.83,0,0,1,3.66,0,1.83,1.83,0,1,1-3.66,0Z"/><path class="cls-4" d="M1110.46,1755.3a3.56,3.56,0,1,1,3.56,3.57A3.56,3.56,0,0,1,1110.46,1755.3Z"/><path class="cls-4" d="M1189,1628a6,6,0,1,1,6,6A5.95,5.95,0,0,1,1189,1628Z"/><path class="cls-4" d="M1146.06,1608.31a2.48,2.48,0,0,1,2.48-2.5,2.5,2.5,0,1,1,0,5A2.48,2.48,0,0,1,1146.06,1608.31Z"/><path class="cls-4" d="M976.79,1389.71a4.94,4.94,0,1,1-4.92-4.93A4.94,4.94,0,0,1,976.79,1389.71Z"/><path class="cls-4" d="M1021.16,1427.08a1.84,1.84,0,1,1-1.84-1.85A1.84,1.84,0,0,1,1021.16,1427.08Z"/><path class="cls-4" d="M1047.4,1383.35a3.57,3.57,0,1,1-3.58-3.57A3.58,3.58,0,0,1,1047.4,1383.35Z"/><path class="cls-4" d="M1011.8,1530.34a2.5,2.5,0,1,1-2.5-2.5A2.48,2.48,0,0,1,1011.8,1530.34Z"/><path class="cls-4" d="M1027.57,1712.47a4.92,4.92,0,1,1,4.92,4.93A4.91,4.91,0,0,1,1027.57,1712.47Z"/><path class="cls-4" d="M983.19,1675.1a1.85,1.85,0,1,1,1.82,1.84A1.84,1.84,0,0,1,983.19,1675.1Z"/><path class="cls-4" d="M1035.46,1591.54a6,6,0,1,1,6,6A6,6,0,0,1,1035.46,1591.54Z"/><path class="cls-4" d="M992.53,1571.82a2.51,2.51,0,1,1,2.5,2.51A2.49,2.49,0,0,1,992.53,1571.82Z"/><path class="cls-4" d="M1251.35,1389.71a4.93,4.93,0,1,1-4.93-4.93A4.91,4.91,0,0,1,1251.35,1389.71Z"/><path class="cls-4" d="M1295.71,1427.08a1.82,1.82,0,1,1-1.82-1.85A1.82,1.82,0,0,1,1295.71,1427.08Z"/><path class="cls-4" d="M1322,1383.35a3.57,3.57,0,1,1-3.56-3.57A3.59,3.59,0,0,1,1322,1383.35Z"/><path class="cls-4" d="M1243.45,1510.63a6,6,0,1,1-6-6A6,6,0,0,1,1243.45,1510.63Z"/><path class="cls-4" d="M1286.37,1530.34a2.5,2.5,0,1,1-2.49-2.5A2.49,2.49,0,0,1,1286.37,1530.34Z"/><path class="cls-4" d="M1302.13,1712.47a4.93,4.93,0,1,1,4.93,4.93A4.91,4.91,0,0,1,1302.13,1712.47Z"/><path class="cls-4" d="M1257.76,1675.1a1.83,1.83,0,1,1,1.85,1.84A1.85,1.85,0,0,1,1257.76,1675.1Z"/><path class="cls-4" d="M1231.52,1718.82a3.57,3.57,0,1,1,3.56,3.57A3.55,3.55,0,0,1,1231.52,1718.82Z"/><path class="cls-4" d="M1310.05,1591.54a6,6,0,1,1,5.94,6A6,6,0,0,1,1310.05,1591.54Z"/><path class="cls-4" d="M1267.08,1571.82a2.51,2.51,0,0,1,2.53-2.49,2.5,2.5,0,0,1,0,5A2.53,2.53,0,0,1,1267.08,1571.82Z"/></g><g class="cls-3"><path class="cls-4" d="M1130.3,1855.27a4.94,4.94,0,1,1-5-4.94A4.92,4.92,0,0,1,1130.3,1855.27Z"/><path class="cls-4" d="M1174.67,1892.65a1.85,1.85,0,1,1-3.69,0,1.85,1.85,0,0,1,3.69,0Z"/><path class="cls-4" d="M1200.9,1848.93a3.56,3.56,0,1,1-3.57-3.58A3.58,3.58,0,0,1,1200.9,1848.93Z"/><path class="cls-4" d="M1122.38,1976.2a6,6,0,1,1-6-6A6,6,0,0,1,1122.38,1976.2Z"/><path class="cls-4" d="M976.79,1818.79a4.94,4.94,0,1,1-4.92-4.91A4.94,4.94,0,0,1,976.79,1818.79Z"/><path class="cls-4" d="M1021.16,1856.17a1.84,1.84,0,1,1-1.84-1.85A1.85,1.85,0,0,1,1021.16,1856.17Z"/><path class="cls-4" d="M1047.4,1812.44a3.57,3.57,0,1,1-7.13,0,3.57,3.57,0,0,1,7.13,0Z"/><path class="cls-4" d="M1011.8,1959.44a2.5,2.5,0,1,1-5,0,2.5,2.5,0,1,1,5,0Z"/><path class="cls-4" d="M1251.35,1818.79a4.93,4.93,0,1,1-4.93-4.91A4.91,4.91,0,0,1,1251.35,1818.79Z"/><path class="cls-4" d="M1295.71,1856.17a1.82,1.82,0,1,1-1.82-1.85A1.83,1.83,0,0,1,1295.71,1856.17Z"/><path class="cls-4" d="M1322,1812.44a3.57,3.57,0,1,1-3.56-3.55A3.59,3.59,0,0,1,1322,1812.44Z"/><path class="cls-4" d="M1243.45,1939.72a6,6,0,1,1-6-6A6,6,0,0,1,1243.45,1939.72Z"/><path class="cls-4" d="M1286.37,1959.44a2.5,2.5,0,1,1-5,0,2.5,2.5,0,1,1,5,0Z"/></g></g><g id="stars-1"><g class="cls-3"><path class="cls-4" d="M139.6,956.64a4.95,4.95,0,1,1-4.95-5A4.92,4.92,0,0,1,139.6,956.64Z"/><path class="cls-4" d="M184,994a1.84,1.84,0,1,1-3.68,0,1.84,1.84,0,1,1,3.68,0Z"/><path class="cls-4" d="M210.2,950.28a3.56,3.56,0,1,1-3.57-3.57A3.57,3.57,0,0,1,210.2,950.28Z"/><path class="cls-4" d="M131.68,1077.55a6,6,0,1,1-6-6A6,6,0,0,1,131.68,1077.55Z"/><path class="cls-4" d="M174.61,1097.26a2.51,2.51,0,1,1-2.5-2.51A2.52,2.52,0,0,1,174.61,1097.26Z"/><path class="cls-4" d="M190.37,1279.39a4.93,4.93,0,1,1,4.93,4.94A4.94,4.94,0,0,1,190.37,1279.39Z"/><path class="cls-4" d="M146,1242a1.84,1.84,0,0,1,3.67,0,1.84,1.84,0,1,1-3.67,0Z"/><path class="cls-4" d="M119.75,1285.76a3.57,3.57,0,1,1,3.57,3.55A3.58,3.58,0,0,1,119.75,1285.76Z"/><path class="cls-4" d="M198.28,1158.48a6,6,0,1,1,5.95,5.94A6,6,0,0,1,198.28,1158.48Z"/><path class="cls-4" d="M155.35,1138.75a2.5,2.5,0,1,1,2.49,2.5A2.48,2.48,0,0,1,155.35,1138.75Z"/><path class="cls-4" d="M30.46,957.53a1.84,1.84,0,1,1-1.84-1.84A1.83,1.83,0,0,1,30.46,957.53Z"/><path class="cls-4" d="M56.69,913.8a3.57,3.57,0,1,1-3.57-3.56A3.58,3.58,0,0,1,56.69,913.8Z"/><path class="cls-4" d="M21.1,1060.79a2.5,2.5,0,0,1-5,0,2.5,2.5,0,1,1,5,0Z"/><path class="cls-4" d="M36.86,1242.92a4.93,4.93,0,1,1,4.93,4.92A4.92,4.92,0,0,1,36.86,1242.92Z"/><path class="cls-4" d="M44.76,1122a6,6,0,1,1,6,5.94A6,6,0,0,1,44.76,1122Z"/><path class="cls-4" d="M1.83,1102.27a2.51,2.51,0,1,1,2.5,2.5A2.5,2.5,0,0,1,1.83,1102.27Z"/><path class="cls-4" d="M414.14,956.64a4.92,4.92,0,0,1-9.84,0,4.92,4.92,0,1,1,9.84,0Z"/><path class="cls-4" d="M458.53,994a1.84,1.84,0,1,1-3.67,0,1.84,1.84,0,1,1,3.67,0Z"/><path class="cls-4" d="M484.75,950.28a3.57,3.57,0,1,1-3.55-3.57A3.57,3.57,0,0,1,484.75,950.28Z"/><path class="cls-4" d="M406.23,1077.55a6,6,0,1,1-5.94-6A6,6,0,0,1,406.23,1077.55Z"/><path class="cls-4" d="M449.17,1097.26a2.5,2.5,0,1,1-2.5-2.51A2.52,2.52,0,0,1,449.17,1097.26Z"/><path class="cls-4" d="M464.9,1279.39a4.94,4.94,0,1,1,5,4.94A5,5,0,0,1,464.9,1279.39Z"/><path class="cls-4" d="M420.56,1242a1.84,1.84,0,0,1,3.67,0,1.84,1.84,0,1,1-3.67,0Z"/><path class="cls-4" d="M394.32,1285.76a3.57,3.57,0,1,1,3.56,3.55A3.55,3.55,0,0,1,394.32,1285.76Z"/><path class="cls-4" d="M472.82,1158.48a6,6,0,1,1,6,5.94A6,6,0,0,1,472.82,1158.48Z"/><path class="cls-4" d="M429.9,1138.75a2.5,2.5,0,1,1,2.5,2.5A2.5,2.5,0,0,1,429.9,1138.75Z"/><path class="cls-4" d="M260.65,920.15a4.93,4.93,0,1,1-4.93-4.92A4.92,4.92,0,0,1,260.65,920.15Z"/><path class="cls-4" d="M305,957.53a1.83,1.83,0,1,1-1.82-1.84A1.82,1.82,0,0,1,305,957.53Z"/><path class="cls-4" d="M331.27,913.8a3.57,3.57,0,1,1-3.56-3.56A3.58,3.58,0,0,1,331.27,913.8Z"/><path class="cls-4" d="M252.74,1041.07a6,6,0,1,1-6-6A5.95,5.95,0,0,1,252.74,1041.07Z"/><path class="cls-4" d="M295.67,1060.79a2.5,2.5,0,1,1-2.5-2.51A2.52,2.52,0,0,1,295.67,1060.79Z"/><path class="cls-4" d="M311.43,1242.92a4.93,4.93,0,1,1,4.93,4.92A4.92,4.92,0,0,1,311.43,1242.92Z"/><path class="cls-4" d="M267.06,1205.55a1.83,1.83,0,1,1,1.84,1.83A1.84,1.84,0,0,1,267.06,1205.55Z"/><path class="cls-4" d="M240.82,1249.26a3.57,3.57,0,1,1,3.56,3.57A3.56,3.56,0,0,1,240.82,1249.26Z"/><path class="cls-4" d="M319.34,1122a6,6,0,1,1,6,5.94A6,6,0,0,1,319.34,1122Z"/><path class="cls-4" d="M276.38,1102.27a2.51,2.51,0,1,1,2.52,2.5A2.5,2.5,0,0,1,276.38,1102.27Z"/><path class="cls-4" d="M709.76,956.64a4.94,4.94,0,0,1-9.88,0,4.94,4.94,0,1,1,9.88,0Z"/><path class="cls-4" d="M754.12,994a1.84,1.84,0,1,1-3.68,0,1.84,1.84,0,1,1,3.68,0Z"/><path class="cls-4" d="M780.36,950.28a3.56,3.56,0,1,1-3.56-3.57A3.56,3.56,0,0,1,780.36,950.28Z"/><path class="cls-4" d="M701.85,1077.55a6,6,0,1,1-6-6A5.95,5.95,0,0,1,701.85,1077.55Z"/><path class="cls-4" d="M744.77,1097.26a2.5,2.5,0,1,1-2.5-2.51A2.51,2.51,0,0,1,744.77,1097.26Z"/><path class="cls-4" d="M760.55,1279.39a4.92,4.92,0,1,1,4.93,4.94A4.94,4.94,0,0,1,760.55,1279.39Z"/><path class="cls-4" d="M716.14,1242a1.85,1.85,0,1,1,1.85,1.85A1.86,1.86,0,0,1,716.14,1242Z"/><path class="cls-4" d="M689.93,1285.76a3.56,3.56,0,1,1,3.57,3.55A3.56,3.56,0,0,1,689.93,1285.76Z"/><path class="cls-4" d="M768.46,1158.48a6,6,0,1,1,5.95,5.94A6,6,0,0,1,768.46,1158.48Z"/><path class="cls-4" d="M725.52,1138.75a2.5,2.5,0,1,1,2.49,2.5A2.49,2.49,0,0,1,725.52,1138.75Z"/><path class="cls-4" d="M556.27,920.15a4.94,4.94,0,1,1-4.94-4.92A4.94,4.94,0,0,1,556.27,920.15Z"/><path class="cls-4" d="M600.63,957.53a1.84,1.84,0,1,1-1.85-1.84A1.84,1.84,0,0,1,600.63,957.53Z"/><path class="cls-4" d="M626.85,913.8a3.55,3.55,0,1,1-3.55-3.56A3.55,3.55,0,0,1,626.85,913.8Z"/><path class="cls-4" d="M548.35,1041.07a6,6,0,1,1-6-6A6,6,0,0,1,548.35,1041.07Z"/><path class="cls-4" d="M591.27,1060.79a2.47,2.47,0,0,1-2.49,2.49,2.49,2.49,0,0,1-2.52-2.49,2.52,2.52,0,0,1,2.52-2.51A2.49,2.49,0,0,1,591.27,1060.79Z"/><path class="cls-4" d="M607,1242.92a4.94,4.94,0,1,1,4.94,4.92A4.94,4.94,0,0,1,607,1242.92Z"/><path class="cls-4" d="M562.66,1205.55a1.85,1.85,0,0,1,1.83-1.85,1.84,1.84,0,1,1-1.83,1.85Z"/><path class="cls-4" d="M536.42,1249.26a3.57,3.57,0,1,1,3.58,3.57A3.55,3.55,0,0,1,536.42,1249.26Z"/><path class="cls-4" d="M615,1122a6,6,0,1,1,5.95,5.94A6,6,0,0,1,615,1122Z"/><path class="cls-4" d="M572,1102.27a2.5,2.5,0,1,1,2.5,2.5A2.48,2.48,0,0,1,572,1102.27Z"/><path class="cls-4" d="M984.31,956.64a4.93,4.93,0,1,1-4.91-5A4.91,4.91,0,0,1,984.31,956.64Z"/><path class="cls-4" d="M976.4,1077.55a6,6,0,1,1-5.95-6A6,6,0,0,1,976.4,1077.55Z"/><path class="cls-4" d="M964.48,1285.76a3.56,3.56,0,1,1,3.57,3.55A3.57,3.57,0,0,1,964.48,1285.76Z"/><path class="cls-4" d="M830.82,920.15a4.94,4.94,0,1,1-4.94-4.92A4.94,4.94,0,0,1,830.82,920.15Z"/><path class="cls-4" d="M875.2,957.53a1.84,1.84,0,1,1-1.83-1.84A1.83,1.83,0,0,1,875.2,957.53Z"/><path class="cls-4" d="M901.44,913.8a3.58,3.58,0,1,1-3.58-3.56A3.59,3.59,0,0,1,901.44,913.8Z"/><path class="cls-4" d="M822.89,1041.07a5.95,5.95,0,1,1-5.95-6A6,6,0,0,1,822.89,1041.07Z"/><path class="cls-4" d="M865.84,1060.79a2.51,2.51,0,0,1-5,0,2.51,2.51,0,1,1,5,0Z"/><path class="cls-4" d="M881.59,1242.92a4.93,4.93,0,1,1,4.93,4.92A4.93,4.93,0,0,1,881.59,1242.92Z"/><path class="cls-4" d="M837.22,1205.55a1.84,1.84,0,1,1,1.85,1.83A1.84,1.84,0,0,1,837.22,1205.55Z"/><path class="cls-4" d="M811,1249.26a3.56,3.56,0,1,1,3.56,3.57A3.55,3.55,0,0,1,811,1249.26Z"/><path class="cls-4" d="M889.5,1122a6,6,0,1,1,6,5.94A6,6,0,0,1,889.5,1122Z"/><path class="cls-4" d="M846.57,1102.27a2.51,2.51,0,1,1,2.51,2.5A2.49,2.49,0,0,1,846.57,1102.27Z"/></g><g class="cls-3"><path class="cls-4" d="M139.6,1373.31a4.95,4.95,0,1,1-4.95-4.94A4.94,4.94,0,0,1,139.6,1373.31Z"/><path class="cls-4" d="M184,1410.69a1.84,1.84,0,1,1-1.83-1.85A1.84,1.84,0,0,1,184,1410.69Z"/><path class="cls-4" d="M210.2,1367a3.56,3.56,0,1,1-3.57-3.56A3.58,3.58,0,0,1,210.2,1367Z"/><path class="cls-4" d="M131.68,1494.22a6,6,0,1,1-6-5.94A6,6,0,0,1,131.68,1494.22Z"/><path class="cls-4" d="M174.61,1514a2.51,2.51,0,1,1-2.5-2.51A2.52,2.52,0,0,1,174.61,1514Z"/><path class="cls-4" d="M190.37,1696.06a4.93,4.93,0,1,1,4.93,4.93A4.94,4.94,0,0,1,190.37,1696.06Z"/><path class="cls-4" d="M146,1658.68a1.84,1.84,0,0,1,3.67,0,1.84,1.84,0,1,1-3.67,0Z"/><path class="cls-4" d="M119.75,1702.42a3.57,3.57,0,1,1,3.57,3.57A3.57,3.57,0,0,1,119.75,1702.42Z"/><path class="cls-4" d="M198.28,1575.15a6,6,0,1,1,5.95,6A5.95,5.95,0,0,1,198.28,1575.15Z"/><path class="cls-4" d="M155.35,1555.43a2.5,2.5,0,1,1,2.49,2.49A2.48,2.48,0,0,1,155.35,1555.43Z"/><path class="cls-4" d="M30.46,1374.21a1.84,1.84,0,1,1-1.84-1.85A1.84,1.84,0,0,1,30.46,1374.21Z"/><path class="cls-4" d="M56.69,1330.48a3.57,3.57,0,1,1-3.57-3.57A3.57,3.57,0,0,1,56.69,1330.48Z"/><path class="cls-4" d="M21.1,1477.46a2.5,2.5,0,1,1-2.5-2.51A2.49,2.49,0,0,1,21.1,1477.46Z"/><path class="cls-4" d="M36.86,1659.59a4.93,4.93,0,1,1,4.93,4.93A4.92,4.92,0,0,1,36.86,1659.59Z"/><path class="cls-4" d="M44.76,1538.67a6,6,0,1,1,6,5.94A6,6,0,0,1,44.76,1538.67Z"/><path class="cls-4" d="M1.83,1518.94a2.51,2.51,0,1,1,2.5,2.51A2.5,2.5,0,0,1,1.83,1518.94Z"/><path class="cls-4" d="M414.14,1373.31a4.92,4.92,0,1,1-4.93-4.94A4.91,4.91,0,0,1,414.14,1373.31Z"/><path class="cls-4" d="M458.53,1410.69a1.84,1.84,0,1,1-3.67,0,1.84,1.84,0,1,1,3.67,0Z"/><path class="cls-4" d="M484.75,1367a3.57,3.57,0,1,1-3.55-3.56A3.58,3.58,0,0,1,484.75,1367Z"/><path class="cls-4" d="M406.23,1494.22a6,6,0,1,1-5.94-5.94A6,6,0,0,1,406.23,1494.22Z"/><path class="cls-4" d="M449.17,1514a2.5,2.5,0,1,1-5,0,2.5,2.5,0,1,1,5,0Z"/><path class="cls-4" d="M464.9,1696.06a4.94,4.94,0,1,1,5,4.93A5,5,0,0,1,464.9,1696.06Z"/><path class="cls-4" d="M420.56,1658.68a1.84,1.84,0,0,1,3.67,0,1.84,1.84,0,1,1-3.67,0Z"/><path class="cls-4" d="M394.32,1702.42a3.57,3.57,0,1,1,3.56,3.57A3.54,3.54,0,0,1,394.32,1702.42Z"/><path class="cls-4" d="M472.82,1575.15a6,6,0,1,1,6,6A6,6,0,0,1,472.82,1575.15Z"/><path class="cls-4" d="M429.9,1555.43a2.5,2.5,0,1,1,2.5,2.49A2.5,2.5,0,0,1,429.9,1555.43Z"/><path class="cls-4" d="M260.65,1336.83a4.93,4.93,0,1,1-4.93-4.93A4.92,4.92,0,0,1,260.65,1336.83Z"/><path class="cls-4" d="M305,1374.21a1.83,1.83,0,1,1-1.82-1.85A1.83,1.83,0,0,1,305,1374.21Z"/><path class="cls-4" d="M331.27,1330.48a3.57,3.57,0,1,1-3.56-3.57A3.57,3.57,0,0,1,331.27,1330.48Z"/><path class="cls-4" d="M252.74,1457.76a6,6,0,1,1-6-6A5.95,5.95,0,0,1,252.74,1457.76Z"/><path class="cls-4" d="M295.67,1477.46a2.5,2.5,0,1,1-2.5-2.51A2.5,2.5,0,0,1,295.67,1477.46Z"/><path class="cls-4" d="M311.43,1659.59a4.93,4.93,0,1,1,4.93,4.93A4.93,4.93,0,0,1,311.43,1659.59Z"/><path class="cls-4" d="M267.06,1622.23a1.83,1.83,0,1,1,1.84,1.83A1.84,1.84,0,0,1,267.06,1622.23Z"/><path class="cls-4" d="M240.82,1665.94a3.57,3.57,0,1,1,3.56,3.56A3.57,3.57,0,0,1,240.82,1665.94Z"/><path class="cls-4" d="M319.34,1538.67a6,6,0,1,1,6,5.94A6,6,0,0,1,319.34,1538.67Z"/><path class="cls-4" d="M276.38,1518.94a2.51,2.51,0,1,1,2.52,2.51A2.5,2.5,0,0,1,276.38,1518.94Z"/><path class="cls-4" d="M709.76,1373.31a4.94,4.94,0,1,1-4.93-4.94A4.93,4.93,0,0,1,709.76,1373.31Z"/><path class="cls-4" d="M754.12,1410.69a1.84,1.84,0,1,1-3.68,0,1.84,1.84,0,1,1,3.68,0Z"/><path class="cls-4" d="M780.36,1367a3.56,3.56,0,1,1-3.56-3.56A3.56,3.56,0,0,1,780.36,1367Z"/><path class="cls-4" d="M701.85,1494.22a6,6,0,1,1-6-5.94A5.95,5.95,0,0,1,701.85,1494.22Z"/><path class="cls-4" d="M744.77,1514a2.5,2.5,0,1,1-2.5-2.51A2.52,2.52,0,0,1,744.77,1514Z"/><path class="cls-4" d="M760.55,1696.06a4.92,4.92,0,1,1,4.93,4.93A4.94,4.94,0,0,1,760.55,1696.06Z"/><path class="cls-4" d="M716.14,1658.68a1.85,1.85,0,0,1,3.69,0,1.85,1.85,0,1,1-3.69,0Z"/><path class="cls-4" d="M689.93,1702.42a3.56,3.56,0,1,1,3.57,3.57A3.55,3.55,0,0,1,689.93,1702.42Z"/><path class="cls-4" d="M768.46,1575.15a6,6,0,1,1,5.95,6A5.95,5.95,0,0,1,768.46,1575.15Z"/><path class="cls-4" d="M725.52,1555.43a2.5,2.5,0,1,1,2.49,2.49A2.48,2.48,0,0,1,725.52,1555.43Z"/><path class="cls-4" d="M556.27,1336.83a4.94,4.94,0,1,1-4.94-4.93A4.93,4.93,0,0,1,556.27,1336.83Z"/><path class="cls-4" d="M600.63,1374.21a1.84,1.84,0,1,1-1.85-1.85A1.85,1.85,0,0,1,600.63,1374.21Z"/><path class="cls-4" d="M626.85,1330.48a3.55,3.55,0,1,1-3.55-3.57A3.54,3.54,0,0,1,626.85,1330.48Z"/><path class="cls-4" d="M548.35,1457.76a6,6,0,1,1-6-6A6,6,0,0,1,548.35,1457.76Z"/><path class="cls-4" d="M591.27,1477.46a2.48,2.48,0,0,1-2.49,2.51,2.51,2.51,0,1,1,2.49-2.51Z"/><path class="cls-4" d="M607,1659.59a4.94,4.94,0,1,1,4.94,4.93A5,5,0,0,1,607,1659.59Z"/><path class="cls-4" d="M562.66,1622.23a1.85,1.85,0,0,1,1.83-1.86,1.85,1.85,0,0,1,0,3.69A1.86,1.86,0,0,1,562.66,1622.23Z"/><path class="cls-4" d="M536.42,1665.94a3.57,3.57,0,1,1,3.58,3.56A3.56,3.56,0,0,1,536.42,1665.94Z"/><path class="cls-4" d="M615,1538.67a6,6,0,1,1,5.95,5.94A6,6,0,0,1,615,1538.67Z"/><path class="cls-4" d="M572,1518.94a2.5,2.5,0,1,1,2.5,2.51A2.48,2.48,0,0,1,572,1518.94Z"/><path class="cls-4" d="M984.31,1373.31a4.93,4.93,0,1,1-4.91-4.94A4.92,4.92,0,0,1,984.31,1373.31Z"/><path class="cls-4" d="M976.4,1494.22a6,6,0,1,1-5.95-5.94A6,6,0,0,1,976.4,1494.22Z"/><path class="cls-4" d="M964.48,1702.42a3.56,3.56,0,1,1,3.57,3.57A3.56,3.56,0,0,1,964.48,1702.42Z"/><path class="cls-4" d="M830.82,1336.83a4.94,4.94,0,1,1-4.94-4.93A4.94,4.94,0,0,1,830.82,1336.83Z"/><path class="cls-4" d="M875.2,1374.21a1.84,1.84,0,1,1-1.83-1.85A1.85,1.85,0,0,1,875.2,1374.21Z"/><path class="cls-4" d="M901.44,1330.48a3.58,3.58,0,1,1-3.58-3.57A3.58,3.58,0,0,1,901.44,1330.48Z"/><path class="cls-4" d="M822.89,1457.76a6,6,0,1,1-5.95-6A6,6,0,0,1,822.89,1457.76Z"/><path class="cls-4" d="M865.84,1477.46a2.51,2.51,0,1,1-5,0,2.51,2.51,0,1,1,5,0Z"/><path class="cls-4" d="M881.59,1659.59a4.93,4.93,0,1,1,4.93,4.93A4.94,4.94,0,0,1,881.59,1659.59Z"/><path class="cls-4" d="M837.22,1622.23a1.84,1.84,0,1,1,3.68,0,1.84,1.84,0,0,1-3.68,0Z"/><path class="cls-4" d="M811,1665.94a3.56,3.56,0,1,1,3.56,3.56A3.56,3.56,0,0,1,811,1665.94Z"/><path class="cls-4" d="M889.5,1538.67a6,6,0,1,1,6,5.94A6,6,0,0,1,889.5,1538.67Z"/><path class="cls-4" d="M846.57,1518.94a2.51,2.51,0,0,1,5,0,2.51,2.51,0,1,1-5,0Z"/></g><g class="cls-3"><path class="cls-4" d="M139.6,1802.4a4.95,4.95,0,1,1-4.95-4.94A4.94,4.94,0,0,1,139.6,1802.4Z"/><path class="cls-4" d="M184,1839.76a1.84,1.84,0,1,1-3.68,0,1.84,1.84,0,0,1,3.68,0Z"/><path class="cls-4" d="M210.2,1796a3.56,3.56,0,1,1-3.57-3.56A3.58,3.58,0,0,1,210.2,1796Z"/><path class="cls-4" d="M131.68,1923.31a6,6,0,1,1-6-5.94A6,6,0,0,1,131.68,1923.31Z"/><path class="cls-4" d="M30.46,1803.3a1.84,1.84,0,1,1-1.84-1.85A1.85,1.85,0,0,1,30.46,1803.3Z"/><path class="cls-4" d="M56.69,1759.57a3.57,3.57,0,1,1-3.57-3.57A3.58,3.58,0,0,1,56.69,1759.57Z"/><path class="cls-4" d="M21.1,1906.56a2.5,2.5,0,1,1-2.5-2.51A2.49,2.49,0,0,1,21.1,1906.56Z"/><path class="cls-4" d="M414.14,1802.4a4.92,4.92,0,1,1-4.93-4.94A4.91,4.91,0,0,1,414.14,1802.4Z"/><path class="cls-4" d="M458.53,1839.76a1.84,1.84,0,1,1-3.67,0,1.84,1.84,0,0,1,3.67,0Z"/><path class="cls-4" d="M484.75,1796a3.57,3.57,0,1,1-3.55-3.56A3.58,3.58,0,0,1,484.75,1796Z"/><path class="cls-4" d="M406.23,1923.31a6,6,0,1,1-5.94-5.94A6,6,0,0,1,406.23,1923.31Z"/><path class="cls-4" d="M260.65,1765.92a4.93,4.93,0,1,1-4.93-4.93A4.92,4.92,0,0,1,260.65,1765.92Z"/><path class="cls-4" d="M305,1803.3a1.83,1.83,0,1,1-1.82-1.85A1.84,1.84,0,0,1,305,1803.3Z"/><path class="cls-4" d="M331.27,1759.57a3.57,3.57,0,1,1-3.56-3.57A3.58,3.58,0,0,1,331.27,1759.57Z"/><path class="cls-4" d="M252.74,1886.85a6,6,0,1,1-6-6A5.95,5.95,0,0,1,252.74,1886.85Z"/><path class="cls-4" d="M295.67,1906.56a2.5,2.5,0,1,1-2.5-2.51A2.5,2.5,0,0,1,295.67,1906.56Z"/><path class="cls-4" d="M709.76,1802.4a4.94,4.94,0,1,1-4.93-4.94A4.93,4.93,0,0,1,709.76,1802.4Z"/><path class="cls-4" d="M754.12,1839.76a1.84,1.84,0,1,1-3.68,0,1.84,1.84,0,0,1,3.68,0Z"/><ellipse class="cls-4" cx="776.8" cy="1796.04" rx="3.56" ry="3.57"/><path class="cls-4" d="M701.85,1923.31a6,6,0,1,1-6-5.94A5.95,5.95,0,0,1,701.85,1923.31Z"/><path class="cls-4" d="M556.27,1765.92a4.94,4.94,0,1,1-4.94-4.93A4.94,4.94,0,0,1,556.27,1765.92Z"/><path class="cls-4" d="M600.63,1803.3a1.84,1.84,0,1,1-1.85-1.85A1.86,1.86,0,0,1,600.63,1803.3Z"/><path class="cls-4" d="M626.85,1759.57a3.55,3.55,0,1,1-3.55-3.57A3.55,3.55,0,0,1,626.85,1759.57Z"/><path class="cls-4" d="M548.35,1886.85a6,6,0,1,1-6-6A6,6,0,0,1,548.35,1886.85Z"/><path class="cls-4" d="M591.27,1906.56a2.48,2.48,0,0,1-2.49,2.5,2.51,2.51,0,1,1,2.49-2.5Z"/><path class="cls-4" d="M984.31,1802.4a4.93,4.93,0,1,1-4.91-4.94A4.92,4.92,0,0,1,984.31,1802.4Z"/><path class="cls-4" d="M976.4,1923.31a6,6,0,1,1-5.95-5.94A6,6,0,0,1,976.4,1923.31Z"/><path class="cls-4" d="M830.82,1765.92a4.94,4.94,0,1,1-4.94-4.93A4.94,4.94,0,0,1,830.82,1765.92Z"/><path class="cls-4" d="M875.2,1803.3a1.84,1.84,0,1,1-3.67,0,1.84,1.84,0,1,1,3.67,0Z"/><path class="cls-4" d="M901.44,1759.57a3.58,3.58,0,1,1-3.58-3.57A3.59,3.59,0,0,1,901.44,1759.57Z"/><path class="cls-4" d="M822.89,1886.85a6,6,0,1,1-5.95-6A6,6,0,0,1,822.89,1886.85Z"/><path class="cls-4" d="M865.84,1906.56a2.51,2.51,0,0,1-5,0,2.51,2.51,0,1,1,5,0Z"/></g></g><g id="stars-2-3" data-name="stars-2"><g class="cls-3"><path class="cls-4" d="M1112.3,2096.91a4.94,4.94,0,1,1-5-4.94A4.93,4.93,0,0,1,1112.3,2096.91Z"/><path class="cls-4" d="M1156.67,2134.28a1.85,1.85,0,1,1-3.69,0,1.85,1.85,0,0,1,3.69,0Z"/><path class="cls-4" d="M1182.9,2090.56a3.56,3.56,0,1,1-3.57-3.57A3.56,3.56,0,0,1,1182.9,2090.56Z"/><path class="cls-4" d="M1104.38,2217.82a6,6,0,1,1-6-6A6,6,0,0,1,1104.38,2217.82Z"/><path class="cls-4" d="M1147.31,2237.54a2.5,2.5,0,1,1-2.49-2.5A2.51,2.51,0,0,1,1147.31,2237.54Z"/><path class="cls-4" d="M1163.08,2419.66a4.92,4.92,0,1,1,4.92,4.94A4.93,4.93,0,0,1,1163.08,2419.66Z"/><path class="cls-4" d="M1118.7,2382.28a1.83,1.83,0,0,1,3.66,0,1.83,1.83,0,1,1-3.66,0Z"/><path class="cls-4" d="M1092.46,2426a3.56,3.56,0,1,1,3.56,3.56A3.57,3.57,0,0,1,1092.46,2426Z"/><path class="cls-4" d="M1171,2298.75a6,6,0,1,1,6,5.95A6,6,0,0,1,1171,2298.75Z"/><path class="cls-4" d="M1128.06,2279a2.48,2.48,0,0,1,2.48-2.5,2.5,2.5,0,1,1,0,5A2.48,2.48,0,0,1,1128.06,2279Z"/><path class="cls-4" d="M958.79,2060.44a4.94,4.94,0,1,1-4.92-4.93A4.93,4.93,0,0,1,958.79,2060.44Z"/><path class="cls-4" d="M1003.16,2097.81a1.84,1.84,0,1,1-1.84-1.85A1.84,1.84,0,0,1,1003.16,2097.81Z"/><path class="cls-4" d="M1029.4,2054.08a3.57,3.57,0,1,1-3.58-3.57A3.59,3.59,0,0,1,1029.4,2054.08Z"/><path class="cls-4" d="M993.8,2201.06a2.5,2.5,0,1,1-2.5-2.5A2.48,2.48,0,0,1,993.8,2201.06Z"/><path class="cls-4" d="M1009.57,2383.2a4.92,4.92,0,1,1,4.92,4.91A4.91,4.91,0,0,1,1009.57,2383.2Z"/><path class="cls-4" d="M965.19,2345.82a1.85,1.85,0,1,1,1.82,1.84A1.84,1.84,0,0,1,965.19,2345.82Z"/><path class="cls-4" d="M1017.46,2262.26a6,6,0,1,1,6,5.94A6,6,0,0,1,1017.46,2262.26Z"/><path class="cls-4" d="M974.53,2242.55a2.51,2.51,0,1,1,2.5,2.51A2.51,2.51,0,0,1,974.53,2242.55Z"/><path class="cls-4" d="M1233.35,2060.44a4.93,4.93,0,1,1-4.93-4.93A4.9,4.9,0,0,1,1233.35,2060.44Z"/><path class="cls-4" d="M1277.71,2097.81a1.82,1.82,0,1,1-1.82-1.85A1.83,1.83,0,0,1,1277.71,2097.81Z"/><path class="cls-4" d="M1304,2054.08a3.57,3.57,0,1,1-3.56-3.57A3.59,3.59,0,0,1,1304,2054.08Z"/><path class="cls-4" d="M1225.45,2181.36a6,6,0,1,1-6-6A6,6,0,0,1,1225.45,2181.36Z"/><path class="cls-4" d="M1268.37,2201.06a2.5,2.5,0,1,1-2.49-2.5A2.49,2.49,0,0,1,1268.37,2201.06Z"/><path class="cls-4" d="M1284.13,2383.2a4.93,4.93,0,1,1,4.93,4.91A4.91,4.91,0,0,1,1284.13,2383.2Z"/><path class="cls-4" d="M1239.76,2345.82a1.83,1.83,0,1,1,1.85,1.84A1.85,1.85,0,0,1,1239.76,2345.82Z"/><path class="cls-4" d="M1213.52,2389.55a3.57,3.57,0,1,1,3.56,3.55A3.55,3.55,0,0,1,1213.52,2389.55Z"/><path class="cls-4" d="M1292.05,2262.26a6,6,0,1,1,5.94,5.94A6,6,0,0,1,1292.05,2262.26Z"/><path class="cls-4" d="M1249.08,2242.55a2.52,2.52,0,0,1,2.53-2.5,2.51,2.51,0,0,1,0,5A2.53,2.53,0,0,1,1249.08,2242.55Z"/></g><g class="cls-3"><path class="cls-4" d="M1112.3,2513.58a4.94,4.94,0,1,1-5-4.94A4.93,4.93,0,0,1,1112.3,2513.58Z"/><path class="cls-4" d="M1156.67,2551a1.85,1.85,0,1,1-3.69,0,1.85,1.85,0,1,1,3.69,0Z"/><path class="cls-4" d="M1182.9,2507.24a3.56,3.56,0,1,1-3.57-3.58A3.56,3.56,0,0,1,1182.9,2507.24Z"/><path class="cls-4" d="M1104.38,2634.51a6,6,0,1,1-6-6A6,6,0,0,1,1104.38,2634.51Z"/><path class="cls-4" d="M1147.31,2654.22a2.5,2.5,0,1,1-2.49-2.51A2.51,2.51,0,0,1,1147.31,2654.22Z"/><path class="cls-4" d="M1163.08,2836.34a4.92,4.92,0,1,1,4.92,4.93A4.94,4.94,0,0,1,1163.08,2836.34Z"/><path class="cls-4" d="M1118.7,2799a1.83,1.83,0,0,1,3.66,0,1.83,1.83,0,1,1-3.66,0Z"/><path class="cls-4" d="M1092.46,2842.7a3.56,3.56,0,1,1,3.56,3.57A3.56,3.56,0,0,1,1092.46,2842.7Z"/><path class="cls-4" d="M1171,2715.42a6,6,0,1,1,6,6A5.95,5.95,0,0,1,1171,2715.42Z"/><path class="cls-4" d="M1128.06,2695.71a2.48,2.48,0,0,1,2.48-2.5,2.5,2.5,0,1,1,0,5A2.48,2.48,0,0,1,1128.06,2695.71Z"/><path class="cls-4" d="M958.79,2477.11a4.94,4.94,0,1,1-4.92-4.93A4.94,4.94,0,0,1,958.79,2477.11Z"/><path class="cls-4" d="M1003.16,2514.48a1.84,1.84,0,1,1-1.84-1.85A1.84,1.84,0,0,1,1003.16,2514.48Z"/><path class="cls-4" d="M1029.4,2470.75a3.57,3.57,0,1,1-3.58-3.57A3.58,3.58,0,0,1,1029.4,2470.75Z"/><path class="cls-4" d="M993.8,2617.74a2.5,2.5,0,1,1-2.5-2.5A2.48,2.48,0,0,1,993.8,2617.74Z"/><path class="cls-4" d="M1009.57,2799.87a4.92,4.92,0,1,1,4.92,4.93A4.91,4.91,0,0,1,1009.57,2799.87Z"/><path class="cls-4" d="M965.19,2762.5a1.85,1.85,0,1,1,1.82,1.84A1.84,1.84,0,0,1,965.19,2762.5Z"/><path class="cls-4" d="M1017.46,2678.94a6,6,0,1,1,6,5.95A6,6,0,0,1,1017.46,2678.94Z"/><path class="cls-4" d="M974.53,2659.22a2.51,2.51,0,1,1,2.5,2.51A2.49,2.49,0,0,1,974.53,2659.22Z"/><path class="cls-4" d="M1233.35,2477.11a4.93,4.93,0,1,1-4.93-4.93A4.91,4.91,0,0,1,1233.35,2477.11Z"/><path class="cls-4" d="M1277.71,2514.48a1.82,1.82,0,1,1-1.82-1.85A1.82,1.82,0,0,1,1277.71,2514.48Z"/><path class="cls-4" d="M1304,2470.75a3.57,3.57,0,1,1-3.56-3.57A3.59,3.59,0,0,1,1304,2470.75Z"/><path class="cls-4" d="M1225.45,2598a6,6,0,1,1-6-6A6,6,0,0,1,1225.45,2598Z"/><path class="cls-4" d="M1268.37,2617.74a2.5,2.5,0,1,1-2.49-2.5A2.49,2.49,0,0,1,1268.37,2617.74Z"/><path class="cls-4" d="M1284.13,2799.87a4.93,4.93,0,1,1,4.93,4.93A4.91,4.91,0,0,1,1284.13,2799.87Z"/><path class="cls-4" d="M1239.76,2762.5a1.83,1.83,0,1,1,1.85,1.84A1.85,1.85,0,0,1,1239.76,2762.5Z"/><path class="cls-4" d="M1213.52,2806.22a3.57,3.57,0,1,1,3.56,3.57A3.55,3.55,0,0,1,1213.52,2806.22Z"/><path class="cls-4" d="M1292.05,2678.94a6,6,0,1,1,5.94,5.95A6,6,0,0,1,1292.05,2678.94Z"/><path class="cls-4" d="M1249.08,2659.22a2.51,2.51,0,0,1,2.53-2.49,2.5,2.5,0,0,1,0,5A2.53,2.53,0,0,1,1249.08,2659.22Z"/></g><g class="cls-3"><path class="cls-4" d="M1112.3,2942.67a4.94,4.94,0,1,1-5-4.94A4.92,4.92,0,0,1,1112.3,2942.67Z"/><path class="cls-4" d="M1156.67,2980.05a1.85,1.85,0,1,1-3.69,0,1.85,1.85,0,0,1,3.69,0Z"/><path class="cls-4" d="M1182.9,2936.33a3.56,3.56,0,1,1-3.57-3.58A3.58,3.58,0,0,1,1182.9,2936.33Z"/><path class="cls-4" d="M1104.38,3063.6a6,6,0,1,1-6-6A6,6,0,0,1,1104.38,3063.6Z"/><path class="cls-4" d="M958.79,2906.19a4.94,4.94,0,1,1-4.92-4.91A4.94,4.94,0,0,1,958.79,2906.19Z"/><path class="cls-4" d="M1003.16,2943.57a1.84,1.84,0,1,1-1.84-1.85A1.85,1.85,0,0,1,1003.16,2943.57Z"/><path class="cls-4" d="M1029.4,2899.84a3.57,3.57,0,1,1-7.13,0,3.57,3.57,0,0,1,7.13,0Z"/><path class="cls-4" d="M993.8,3046.84a2.5,2.5,0,1,1-5,0,2.5,2.5,0,1,1,5,0Z"/><path class="cls-4" d="M1233.35,2906.19a4.93,4.93,0,1,1-4.93-4.91A4.91,4.91,0,0,1,1233.35,2906.19Z"/><path class="cls-4" d="M1277.71,2943.57a1.82,1.82,0,1,1-1.82-1.85A1.83,1.83,0,0,1,1277.71,2943.57Z"/><path class="cls-4" d="M1304,2899.84a3.57,3.57,0,1,1-3.56-3.55A3.59,3.59,0,0,1,1304,2899.84Z"/><path class="cls-4" d="M1225.45,3027.12a6,6,0,1,1-6-6A6,6,0,0,1,1225.45,3027.12Z"/><path class="cls-4" d="M1268.37,3046.84a2.5,2.5,0,1,1-5,0,2.5,2.5,0,1,1,5,0Z"/></g></g><g id="stars-1-2" data-name="stars-1"><g class="cls-3"><path class="cls-4" d="M121.6,2044a4.95,4.95,0,1,1-4.95-5A4.92,4.92,0,0,1,121.6,2044Z"/><path class="cls-4" d="M166,2081.4a1.84,1.84,0,1,1-3.68,0,1.84,1.84,0,1,1,3.68,0Z"/><path class="cls-4" d="M192.2,2037.68a3.56,3.56,0,1,1-3.57-3.57A3.57,3.57,0,0,1,192.2,2037.68Z"/><path class="cls-4" d="M113.68,2165a6,6,0,1,1-6-6A6,6,0,0,1,113.68,2165Z"/><path class="cls-4" d="M156.61,2184.66a2.51,2.51,0,1,1-2.5-2.51A2.52,2.52,0,0,1,156.61,2184.66Z"/><path class="cls-4" d="M172.37,2366.79a4.93,4.93,0,1,1,4.93,4.94A4.94,4.94,0,0,1,172.37,2366.79Z"/><path class="cls-4" d="M128,2329.41a1.84,1.84,0,0,1,3.67,0,1.84,1.84,0,1,1-3.67,0Z"/><path class="cls-4" d="M101.75,2373.16a3.57,3.57,0,1,1,3.57,3.55A3.58,3.58,0,0,1,101.75,2373.16Z"/><path class="cls-4" d="M180.28,2245.88a6,6,0,1,1,5.95,5.94A6,6,0,0,1,180.28,2245.88Z"/><path class="cls-4" d="M137.35,2226.15a2.5,2.5,0,1,1,2.49,2.5A2.48,2.48,0,0,1,137.35,2226.15Z"/><path class="cls-4" d="M12.46,2044.93a1.84,1.84,0,1,1-1.84-1.84A1.83,1.83,0,0,1,12.46,2044.93Z"/><path class="cls-4" d="M38.69,2001.2a3.57,3.57,0,1,1-3.57-3.56A3.58,3.58,0,0,1,38.69,2001.2Z"/><path class="cls-4" d="M3.1,2148.19a2.47,2.47,0,0,1-2.5,2.49,2.47,2.47,0,0,1-2.49-2.49,2.5,2.5,0,0,1,2.49-2.51A2.5,2.5,0,0,1,3.1,2148.19Z"/><path class="cls-4" d="M18.86,2330.32a4.93,4.93,0,1,1,4.93,4.92A4.92,4.92,0,0,1,18.86,2330.32Z"/><path class="cls-4" d="M26.76,2209.39a6,6,0,1,1,6,5.94A6,6,0,0,1,26.76,2209.39Z"/><path class="cls-4" d="M396.14,2044a4.92,4.92,0,0,1-9.84,0,4.92,4.92,0,1,1,9.84,0Z"/><path class="cls-4" d="M440.53,2081.4a1.84,1.84,0,1,1-3.67,0,1.84,1.84,0,1,1,3.67,0Z"/><path class="cls-4" d="M466.75,2037.68a3.57,3.57,0,1,1-3.55-3.57A3.57,3.57,0,0,1,466.75,2037.68Z"/><path class="cls-4" d="M388.23,2165a6,6,0,1,1-5.94-6A6,6,0,0,1,388.23,2165Z"/><path class="cls-4" d="M431.17,2184.66a2.5,2.5,0,1,1-2.5-2.51A2.52,2.52,0,0,1,431.17,2184.66Z"/><path class="cls-4" d="M446.9,2366.79a4.94,4.94,0,1,1,5,4.94A5,5,0,0,1,446.9,2366.79Z"/><path class="cls-4" d="M402.56,2329.41a1.84,1.84,0,0,1,3.67,0,1.84,1.84,0,1,1-3.67,0Z"/><path class="cls-4" d="M376.32,2373.16a3.57,3.57,0,1,1,3.56,3.55A3.55,3.55,0,0,1,376.32,2373.16Z"/><path class="cls-4" d="M454.82,2245.88a6,6,0,1,1,6,5.94A6,6,0,0,1,454.82,2245.88Z"/><path class="cls-4" d="M411.9,2226.15a2.5,2.5,0,1,1,2.5,2.5A2.5,2.5,0,0,1,411.9,2226.15Z"/><path class="cls-4" d="M242.65,2007.55a4.93,4.93,0,1,1-4.93-4.92A4.92,4.92,0,0,1,242.65,2007.55Z"/><path class="cls-4" d="M287,2044.93a1.83,1.83,0,1,1-1.82-1.84A1.82,1.82,0,0,1,287,2044.93Z"/><path class="cls-4" d="M313.27,2001.2a3.57,3.57,0,1,1-3.56-3.56A3.58,3.58,0,0,1,313.27,2001.2Z"/><path class="cls-4" d="M234.74,2128.47a6,6,0,1,1-6-5.95A5.95,5.95,0,0,1,234.74,2128.47Z"/><path class="cls-4" d="M277.67,2148.19a2.5,2.5,0,1,1-2.5-2.51A2.52,2.52,0,0,1,277.67,2148.19Z"/><path class="cls-4" d="M293.43,2330.32a4.93,4.93,0,1,1,4.93,4.92A4.92,4.92,0,0,1,293.43,2330.32Z"/><path class="cls-4" d="M249.06,2293a1.83,1.83,0,1,1,1.84,1.83A1.84,1.84,0,0,1,249.06,2293Z"/><path class="cls-4" d="M222.82,2336.66a3.57,3.57,0,1,1,3.56,3.57A3.56,3.56,0,0,1,222.82,2336.66Z"/><path class="cls-4" d="M301.34,2209.39a6,6,0,1,1,6,5.94A6,6,0,0,1,301.34,2209.39Z"/><path class="cls-4" d="M258.38,2189.67a2.51,2.51,0,1,1,2.52,2.5A2.5,2.5,0,0,1,258.38,2189.67Z"/><path class="cls-4" d="M691.76,2044a4.94,4.94,0,0,1-9.88,0,4.94,4.94,0,1,1,9.88,0Z"/><path class="cls-4" d="M736.12,2081.4a1.84,1.84,0,1,1-3.68,0,1.84,1.84,0,1,1,3.68,0Z"/><path class="cls-4" d="M762.36,2037.68a3.56,3.56,0,1,1-3.56-3.57A3.56,3.56,0,0,1,762.36,2037.68Z"/><path class="cls-4" d="M683.85,2165a6,6,0,1,1-6-6A5.95,5.95,0,0,1,683.85,2165Z"/><path class="cls-4" d="M726.77,2184.66a2.5,2.5,0,1,1-2.5-2.51A2.51,2.51,0,0,1,726.77,2184.66Z"/><path class="cls-4" d="M742.55,2366.79a4.92,4.92,0,1,1,4.93,4.94A4.94,4.94,0,0,1,742.55,2366.79Z"/><path class="cls-4" d="M698.14,2329.41a1.85,1.85,0,1,1,1.85,1.85A1.86,1.86,0,0,1,698.14,2329.41Z"/><path class="cls-4" d="M671.93,2373.16a3.56,3.56,0,1,1,3.57,3.55A3.56,3.56,0,0,1,671.93,2373.16Z"/><path class="cls-4" d="M750.46,2245.88a6,6,0,1,1,5.95,5.94A6,6,0,0,1,750.46,2245.88Z"/><path class="cls-4" d="M707.52,2226.15a2.5,2.5,0,1,1,2.49,2.5A2.49,2.49,0,0,1,707.52,2226.15Z"/><path class="cls-4" d="M538.27,2007.55a4.94,4.94,0,1,1-4.94-4.92A4.94,4.94,0,0,1,538.27,2007.55Z"/><path class="cls-4" d="M582.63,2044.93a1.84,1.84,0,1,1-1.85-1.84A1.84,1.84,0,0,1,582.63,2044.93Z"/><path class="cls-4" d="M608.85,2001.2a3.55,3.55,0,1,1-3.55-3.56A3.55,3.55,0,0,1,608.85,2001.2Z"/><path class="cls-4" d="M530.35,2128.47a6,6,0,1,1-6-5.95A6,6,0,0,1,530.35,2128.47Z"/><path class="cls-4" d="M573.27,2148.19a2.47,2.47,0,0,1-2.49,2.49,2.49,2.49,0,0,1-2.52-2.49,2.52,2.52,0,0,1,2.52-2.51A2.49,2.49,0,0,1,573.27,2148.19Z"/><path class="cls-4" d="M589,2330.32a4.94,4.94,0,1,1,4.94,4.92A4.94,4.94,0,0,1,589,2330.32Z"/><path class="cls-4" d="M544.66,2293a1.85,1.85,0,0,1,1.83-1.85,1.84,1.84,0,1,1-1.83,1.85Z"/><path class="cls-4" d="M518.42,2336.66a3.57,3.57,0,1,1,3.58,3.57A3.55,3.55,0,0,1,518.42,2336.66Z"/><path class="cls-4" d="M597,2209.39a6,6,0,1,1,5.95,5.94A6,6,0,0,1,597,2209.39Z"/><path class="cls-4" d="M554,2189.67a2.5,2.5,0,1,1,2.5,2.5A2.48,2.48,0,0,1,554,2189.67Z"/><path class="cls-4" d="M966.31,2044a4.93,4.93,0,1,1-4.91-5A4.91,4.91,0,0,1,966.31,2044Z"/><path class="cls-4" d="M958.4,2165a6,6,0,1,1-5.95-6A6,6,0,0,1,958.4,2165Z"/><path class="cls-4" d="M946.48,2373.16a3.56,3.56,0,1,1,3.57,3.55A3.57,3.57,0,0,1,946.48,2373.16Z"/><path class="cls-4" d="M812.82,2007.55a4.94,4.94,0,1,1-4.94-4.92A4.94,4.94,0,0,1,812.82,2007.55Z"/><path class="cls-4" d="M857.2,2044.93a1.84,1.84,0,1,1-1.83-1.84A1.83,1.83,0,0,1,857.2,2044.93Z"/><path class="cls-4" d="M883.44,2001.2a3.58,3.58,0,1,1-3.58-3.56A3.59,3.59,0,0,1,883.44,2001.2Z"/><path class="cls-4" d="M804.89,2128.47a5.95,5.95,0,1,1-5.95-5.95A6,6,0,0,1,804.89,2128.47Z"/><path class="cls-4" d="M847.84,2148.19a2.51,2.51,0,0,1-5,0,2.51,2.51,0,1,1,5,0Z"/><path class="cls-4" d="M863.59,2330.32a4.93,4.93,0,1,1,4.93,4.92A4.93,4.93,0,0,1,863.59,2330.32Z"/><path class="cls-4" d="M819.22,2293a1.84,1.84,0,1,1,1.85,1.83A1.84,1.84,0,0,1,819.22,2293Z"/><path class="cls-4" d="M793,2336.66a3.56,3.56,0,1,1,3.56,3.57A3.55,3.55,0,0,1,793,2336.66Z"/><path class="cls-4" d="M871.5,2209.39a6,6,0,1,1,6,5.94A6,6,0,0,1,871.5,2209.39Z"/><path class="cls-4" d="M828.57,2189.67a2.51,2.51,0,1,1,2.51,2.5A2.49,2.49,0,0,1,828.57,2189.67Z"/></g><g class="cls-3"><path class="cls-4" d="M121.6,2460.71a4.95,4.95,0,1,1-4.95-4.94A4.94,4.94,0,0,1,121.6,2460.71Z"/><path class="cls-4" d="M166,2498.09a1.84,1.84,0,1,1-1.83-1.85A1.84,1.84,0,0,1,166,2498.09Z"/><path class="cls-4" d="M192.2,2454.35a3.56,3.56,0,1,1-3.57-3.56A3.58,3.58,0,0,1,192.2,2454.35Z"/><path class="cls-4" d="M113.68,2581.62a6,6,0,1,1-6-5.94A6,6,0,0,1,113.68,2581.62Z"/><path class="cls-4" d="M156.61,2601.35a2.51,2.51,0,1,1-2.5-2.51A2.52,2.52,0,0,1,156.61,2601.35Z"/><path class="cls-4" d="M172.37,2783.46a4.93,4.93,0,1,1,4.93,4.93A4.94,4.94,0,0,1,172.37,2783.46Z"/><path class="cls-4" d="M128,2746.08a1.84,1.84,0,0,1,3.67,0,1.84,1.84,0,1,1-3.67,0Z"/><path class="cls-4" d="M101.75,2789.82a3.57,3.57,0,1,1,3.57,3.57A3.57,3.57,0,0,1,101.75,2789.82Z"/><path class="cls-4" d="M180.28,2662.55a6,6,0,1,1,5.95,6A5.95,5.95,0,0,1,180.28,2662.55Z"/><path class="cls-4" d="M137.35,2642.83a2.5,2.5,0,1,1,2.49,2.49A2.48,2.48,0,0,1,137.35,2642.83Z"/><path class="cls-4" d="M12.46,2461.61a1.84,1.84,0,1,1-1.84-1.85A1.84,1.84,0,0,1,12.46,2461.61Z"/><path class="cls-4" d="M38.69,2417.88a3.57,3.57,0,1,1-3.57-3.57A3.57,3.57,0,0,1,38.69,2417.88Z"/><path class="cls-4" d="M3.1,2564.86a2.49,2.49,0,0,1-2.5,2.51,2.49,2.49,0,0,1-2.49-2.51,2.51,2.51,0,0,1,2.49-2.51A2.51,2.51,0,0,1,3.1,2564.86Z"/><path class="cls-4" d="M18.86,2747a4.93,4.93,0,1,1,4.93,4.93A4.92,4.92,0,0,1,18.86,2747Z"/><path class="cls-4" d="M26.76,2626.07a6,6,0,1,1,6,5.94A6,6,0,0,1,26.76,2626.07Z"/><path class="cls-4" d="M396.14,2460.71a4.92,4.92,0,1,1-4.93-4.94A4.91,4.91,0,0,1,396.14,2460.71Z"/><path class="cls-4" d="M440.53,2498.09a1.84,1.84,0,1,1-3.67,0,1.84,1.84,0,1,1,3.67,0Z"/><path class="cls-4" d="M466.75,2454.35a3.57,3.57,0,1,1-3.55-3.56A3.58,3.58,0,0,1,466.75,2454.35Z"/><path class="cls-4" d="M388.23,2581.62a6,6,0,1,1-5.94-5.94A6,6,0,0,1,388.23,2581.62Z"/><path class="cls-4" d="M431.17,2601.35a2.5,2.5,0,1,1-5,0,2.5,2.5,0,1,1,5,0Z"/><path class="cls-4" d="M446.9,2783.46a4.94,4.94,0,1,1,5,4.93A5,5,0,0,1,446.9,2783.46Z"/><path class="cls-4" d="M402.56,2746.08a1.84,1.84,0,0,1,3.67,0,1.84,1.84,0,1,1-3.67,0Z"/><path class="cls-4" d="M376.32,2789.82a3.57,3.57,0,1,1,3.56,3.57A3.54,3.54,0,0,1,376.32,2789.82Z"/><path class="cls-4" d="M454.82,2662.55a6,6,0,1,1,6,6A6,6,0,0,1,454.82,2662.55Z"/><path class="cls-4" d="M411.9,2642.83a2.5,2.5,0,1,1,2.5,2.49A2.5,2.5,0,0,1,411.9,2642.83Z"/><path class="cls-4" d="M242.65,2424.23a4.93,4.93,0,1,1-4.93-4.93A4.92,4.92,0,0,1,242.65,2424.23Z"/><path class="cls-4" d="M287,2461.61a1.83,1.83,0,1,1-1.82-1.85A1.83,1.83,0,0,1,287,2461.61Z"/><path class="cls-4" d="M313.27,2417.88a3.57,3.57,0,1,1-3.56-3.57A3.57,3.57,0,0,1,313.27,2417.88Z"/><path class="cls-4" d="M234.74,2545.16a6,6,0,1,1-6-6A5.95,5.95,0,0,1,234.74,2545.16Z"/><path class="cls-4" d="M277.67,2564.86a2.5,2.5,0,1,1-2.5-2.51A2.5,2.5,0,0,1,277.67,2564.86Z"/><path class="cls-4" d="M293.43,2747a4.93,4.93,0,1,1,4.93,4.93A4.93,4.93,0,0,1,293.43,2747Z"/><path class="cls-4" d="M249.06,2709.63a1.83,1.83,0,1,1,1.84,1.83A1.84,1.84,0,0,1,249.06,2709.63Z"/><path class="cls-4" d="M222.82,2753.34a3.57,3.57,0,1,1,3.56,3.56A3.57,3.57,0,0,1,222.82,2753.34Z"/><path class="cls-4" d="M301.34,2626.07a6,6,0,1,1,6,5.94A6,6,0,0,1,301.34,2626.07Z"/><path class="cls-4" d="M258.38,2606.34a2.51,2.51,0,1,1,2.52,2.51A2.5,2.5,0,0,1,258.38,2606.34Z"/><path class="cls-4" d="M691.76,2460.71a4.94,4.94,0,1,1-4.93-4.94A4.93,4.93,0,0,1,691.76,2460.71Z"/><path class="cls-4" d="M736.12,2498.09a1.84,1.84,0,1,1-3.68,0,1.84,1.84,0,1,1,3.68,0Z"/><path class="cls-4" d="M762.36,2454.35a3.56,3.56,0,1,1-3.56-3.56A3.56,3.56,0,0,1,762.36,2454.35Z"/><path class="cls-4" d="M683.85,2581.62a6,6,0,1,1-6-5.94A5.95,5.95,0,0,1,683.85,2581.62Z"/><path class="cls-4" d="M726.77,2601.35a2.5,2.5,0,1,1-2.5-2.51A2.52,2.52,0,0,1,726.77,2601.35Z"/><path class="cls-4" d="M742.55,2783.46a4.92,4.92,0,1,1,4.93,4.93A4.94,4.94,0,0,1,742.55,2783.46Z"/><path class="cls-4" d="M698.14,2746.08a1.85,1.85,0,0,1,3.69,0,1.85,1.85,0,1,1-3.69,0Z"/><path class="cls-4" d="M671.93,2789.82a3.56,3.56,0,1,1,3.57,3.57A3.55,3.55,0,0,1,671.93,2789.82Z"/><path class="cls-4" d="M750.46,2662.55a6,6,0,1,1,5.95,6A5.95,5.95,0,0,1,750.46,2662.55Z"/><path class="cls-4" d="M707.52,2642.83a2.5,2.5,0,1,1,2.49,2.49A2.48,2.48,0,0,1,707.52,2642.83Z"/><path class="cls-4" d="M538.27,2424.23a4.94,4.94,0,1,1-4.94-4.93A4.93,4.93,0,0,1,538.27,2424.23Z"/><path class="cls-4" d="M582.63,2461.61a1.84,1.84,0,1,1-1.85-1.85A1.85,1.85,0,0,1,582.63,2461.61Z"/><path class="cls-4" d="M608.85,2417.88a3.55,3.55,0,1,1-3.55-3.57A3.54,3.54,0,0,1,608.85,2417.88Z"/><path class="cls-4" d="M530.35,2545.16a6,6,0,1,1-6-6A6,6,0,0,1,530.35,2545.16Z"/><path class="cls-4" d="M573.27,2564.86a2.48,2.48,0,0,1-2.49,2.51,2.51,2.51,0,1,1,2.49-2.51Z"/><path class="cls-4" d="M589,2747a4.94,4.94,0,1,1,4.94,4.93A5,5,0,0,1,589,2747Z"/><path class="cls-4" d="M544.66,2709.63a1.85,1.85,0,0,1,1.83-1.86,1.85,1.85,0,0,1,0,3.69A1.86,1.86,0,0,1,544.66,2709.63Z"/><path class="cls-4" d="M518.42,2753.34a3.57,3.57,0,1,1,3.58,3.56A3.56,3.56,0,0,1,518.42,2753.34Z"/><path class="cls-4" d="M597,2626.07a6,6,0,1,1,5.95,5.94A6,6,0,0,1,597,2626.07Z"/><path class="cls-4" d="M554,2606.34a2.5,2.5,0,1,1,2.5,2.51A2.48,2.48,0,0,1,554,2606.34Z"/><path class="cls-4" d="M966.31,2460.71a4.93,4.93,0,1,1-4.91-4.94A4.92,4.92,0,0,1,966.31,2460.71Z"/><path class="cls-4" d="M958.4,2581.62a6,6,0,1,1-5.95-5.94A6,6,0,0,1,958.4,2581.62Z"/><path class="cls-4" d="M946.48,2789.82a3.56,3.56,0,1,1,3.57,3.57A3.56,3.56,0,0,1,946.48,2789.82Z"/><path class="cls-4" d="M812.82,2424.23a4.94,4.94,0,1,1-4.94-4.93A4.94,4.94,0,0,1,812.82,2424.23Z"/><path class="cls-4" d="M857.2,2461.61a1.84,1.84,0,1,1-1.83-1.85A1.85,1.85,0,0,1,857.2,2461.61Z"/><path class="cls-4" d="M883.44,2417.88a3.58,3.58,0,1,1-3.58-3.57A3.58,3.58,0,0,1,883.44,2417.88Z"/><path class="cls-4" d="M804.89,2545.16a6,6,0,1,1-5.95-6A6,6,0,0,1,804.89,2545.16Z"/><path class="cls-4" d="M847.84,2564.86a2.51,2.51,0,1,1-5,0,2.51,2.51,0,1,1,5,0Z"/><path class="cls-4" d="M863.59,2747a4.93,4.93,0,1,1,4.93,4.93A4.94,4.94,0,0,1,863.59,2747Z"/><path class="cls-4" d="M819.22,2709.63a1.84,1.84,0,1,1,3.68,0,1.84,1.84,0,0,1-3.68,0Z"/><path class="cls-4" d="M793,2753.34a3.56,3.56,0,1,1,3.56,3.56A3.56,3.56,0,0,1,793,2753.34Z"/><path class="cls-4" d="M871.5,2626.07a6,6,0,1,1,6,5.94A6,6,0,0,1,871.5,2626.07Z"/><path class="cls-4" d="M828.57,2606.34a2.51,2.51,0,0,1,5,0,2.51,2.51,0,0,1-5,0Z"/></g><g class="cls-3"><path class="cls-4" d="M121.6,2889.8a4.95,4.95,0,1,1-4.95-4.94A4.94,4.94,0,0,1,121.6,2889.8Z"/><path class="cls-4" d="M166,2927.16a1.84,1.84,0,1,1-3.68,0,1.84,1.84,0,0,1,3.68,0Z"/><path class="cls-4" d="M192.2,2883.44a3.56,3.56,0,1,1-3.57-3.56A3.58,3.58,0,0,1,192.2,2883.44Z"/><path class="cls-4" d="M113.68,3010.71a6,6,0,1,1-6-5.94A6,6,0,0,1,113.68,3010.71Z"/><path class="cls-4" d="M12.46,2890.7a1.84,1.84,0,1,1-1.84-1.85A1.85,1.85,0,0,1,12.46,2890.7Z"/><path class="cls-4" d="M38.69,2847a3.57,3.57,0,1,1-3.57-3.57A3.58,3.58,0,0,1,38.69,2847Z"/><path class="cls-4" d="M3.1,2994a2.49,2.49,0,0,1-2.5,2.5,2.49,2.49,0,0,1-2.49-2.5,2.51,2.51,0,0,1,2.49-2.51A2.51,2.51,0,0,1,3.1,2994Z"/><path class="cls-4" d="M396.14,2889.8a4.92,4.92,0,1,1-4.93-4.94A4.91,4.91,0,0,1,396.14,2889.8Z"/><path class="cls-4" d="M440.53,2927.16a1.84,1.84,0,1,1-3.67,0,1.84,1.84,0,0,1,3.67,0Z"/><path class="cls-4" d="M466.75,2883.44a3.57,3.57,0,1,1-3.55-3.56A3.58,3.58,0,0,1,466.75,2883.44Z"/><path class="cls-4" d="M388.23,3010.71a6,6,0,1,1-5.94-5.94A6,6,0,0,1,388.23,3010.71Z"/><path class="cls-4" d="M242.65,2853.32a4.93,4.93,0,1,1-4.93-4.93A4.92,4.92,0,0,1,242.65,2853.32Z"/><path class="cls-4" d="M287,2890.7a1.83,1.83,0,1,1-1.82-1.85A1.84,1.84,0,0,1,287,2890.7Z"/><path class="cls-4" d="M313.27,2847a3.57,3.57,0,1,1-3.56-3.57A3.58,3.58,0,0,1,313.27,2847Z"/><path class="cls-4" d="M234.74,2974.25a6,6,0,1,1-6-6A5.95,5.95,0,0,1,234.74,2974.25Z"/><path class="cls-4" d="M277.67,2994a2.5,2.5,0,1,1-2.5-2.51A2.5,2.5,0,0,1,277.67,2994Z"/><path class="cls-4" d="M691.76,2889.8a4.94,4.94,0,1,1-4.93-4.94A4.93,4.93,0,0,1,691.76,2889.8Z"/><path class="cls-4" d="M736.12,2927.16a1.84,1.84,0,1,1-3.68,0,1.84,1.84,0,0,1,3.68,0Z"/><ellipse class="cls-4" cx="758.8" cy="2883.44" rx="3.56" ry="3.57"/><path class="cls-4" d="M683.85,3010.71a6,6,0,1,1-6-5.94A5.95,5.95,0,0,1,683.85,3010.71Z"/><path class="cls-4" d="M538.27,2853.32a4.94,4.94,0,1,1-4.94-4.93A4.94,4.94,0,0,1,538.27,2853.32Z"/><path class="cls-4" d="M582.63,2890.7a1.84,1.84,0,1,1-1.85-1.85A1.86,1.86,0,0,1,582.63,2890.7Z"/><path class="cls-4" d="M608.85,2847a3.55,3.55,0,1,1-3.55-3.57A3.55,3.55,0,0,1,608.85,2847Z"/><path class="cls-4" d="M530.35,2974.25a6,6,0,1,1-6-6A6,6,0,0,1,530.35,2974.25Z"/><path class="cls-4" d="M573.27,2994a2.48,2.48,0,0,1-2.49,2.5,2.51,2.51,0,1,1,2.49-2.5Z"/><path class="cls-4" d="M966.31,2889.8a4.93,4.93,0,1,1-4.91-4.94A4.92,4.92,0,0,1,966.31,2889.8Z"/><path class="cls-4" d="M958.4,3010.71a6,6,0,1,1-5.95-5.94A6,6,0,0,1,958.4,3010.71Z"/><path class="cls-4" d="M812.82,2853.32a4.94,4.94,0,1,1-4.94-4.93A4.94,4.94,0,0,1,812.82,2853.32Z"/><path class="cls-4" d="M857.2,2890.7a1.84,1.84,0,1,1-3.67,0,1.84,1.84,0,1,1,3.67,0Z"/><path class="cls-4" d="M883.44,2847a3.58,3.58,0,1,1-3.58-3.57A3.59,3.59,0,0,1,883.44,2847Z"/><path class="cls-4" d="M804.89,2974.25a6,6,0,1,1-5.95-6A6,6,0,0,1,804.89,2974.25Z"/><path class="cls-4" d="M847.84,2994a2.51,2.51,0,0,1-5,0,2.51,2.51,0,1,1,5,0Z"/></g></g><g id="stars-2-4" data-name="stars-2"><g class="cls-3"><path class="cls-4" d="M1099.3,3163.91a4.94,4.94,0,1,1-5-4.94A4.93,4.93,0,0,1,1099.3,3163.91Z"/><path class="cls-4" d="M1143.67,3201.28a1.85,1.85,0,1,1-3.69,0,1.85,1.85,0,0,1,3.69,0Z"/><path class="cls-4" d="M1169.9,3157.56a3.56,3.56,0,1,1-3.57-3.57A3.56,3.56,0,0,1,1169.9,3157.56Z"/><path class="cls-4" d="M1091.38,3284.82a6,6,0,1,1-6-6A6,6,0,0,1,1091.38,3284.82Z"/><path class="cls-4" d="M1134.31,3304.54a2.5,2.5,0,1,1-2.49-2.5A2.51,2.51,0,0,1,1134.31,3304.54Z"/><path class="cls-4" d="M1150.08,3486.66a4.92,4.92,0,1,1,4.92,4.94A4.93,4.93,0,0,1,1150.08,3486.66Z"/><path class="cls-4" d="M1105.7,3449.28a1.83,1.83,0,0,1,3.66,0,1.83,1.83,0,1,1-3.66,0Z"/><path class="cls-4" d="M1079.46,3493a3.56,3.56,0,1,1,3.56,3.56A3.57,3.57,0,0,1,1079.46,3493Z"/><path class="cls-4" d="M1158,3365.75a6,6,0,1,1,6,5.95A6,6,0,0,1,1158,3365.75Z"/><path class="cls-4" d="M1115.06,3346a2.48,2.48,0,0,1,2.48-2.5,2.5,2.5,0,1,1,0,5A2.48,2.48,0,0,1,1115.06,3346Z"/><path class="cls-4" d="M945.79,3127.44a4.94,4.94,0,1,1-4.92-4.93A4.93,4.93,0,0,1,945.79,3127.44Z"/><path class="cls-4" d="M990.16,3164.81a1.84,1.84,0,1,1-1.84-1.85A1.84,1.84,0,0,1,990.16,3164.81Z"/><path class="cls-4" d="M1016.4,3121.08a3.57,3.57,0,1,1-3.58-3.57A3.59,3.59,0,0,1,1016.4,3121.08Z"/><path class="cls-4" d="M980.8,3268.06a2.5,2.5,0,1,1-2.5-2.5A2.48,2.48,0,0,1,980.8,3268.06Z"/><path class="cls-4" d="M996.57,3450.2a4.92,4.92,0,1,1,4.92,4.91A4.91,4.91,0,0,1,996.57,3450.2Z"/><path class="cls-4" d="M952.19,3412.82a1.85,1.85,0,1,1,1.82,1.84A1.84,1.84,0,0,1,952.19,3412.82Z"/><path class="cls-4" d="M1004.46,3329.26a6,6,0,1,1,6,5.94A6,6,0,0,1,1004.46,3329.26Z"/><path class="cls-4" d="M961.53,3309.55a2.51,2.51,0,1,1,2.5,2.51A2.51,2.51,0,0,1,961.53,3309.55Z"/><path class="cls-4" d="M1373.84,3163.91a4.92,4.92,0,1,1-4.93-4.94A4.91,4.91,0,0,1,1373.84,3163.91Z"/><path class="cls-4" d="M1365.93,3284.82a6,6,0,1,1-6-6A6,6,0,0,1,1365.93,3284.82Z"/><path class="cls-4" d="M1354,3493a3.57,3.57,0,1,1,3.56,3.56A3.56,3.56,0,0,1,1354,3493Z"/><path class="cls-4" d="M1220.35,3127.44a4.93,4.93,0,1,1-4.93-4.93A4.9,4.9,0,0,1,1220.35,3127.44Z"/><path class="cls-4" d="M1264.71,3164.81a1.82,1.82,0,1,1-1.82-1.85A1.83,1.83,0,0,1,1264.71,3164.81Z"/><path class="cls-4" d="M1291,3121.08a3.57,3.57,0,1,1-3.56-3.57A3.59,3.59,0,0,1,1291,3121.08Z"/><path class="cls-4" d="M1212.45,3248.36a6,6,0,1,1-6-6A6,6,0,0,1,1212.45,3248.36Z"/><path class="cls-4" d="M1255.37,3268.06a2.5,2.5,0,1,1-2.49-2.5A2.49,2.49,0,0,1,1255.37,3268.06Z"/><path class="cls-4" d="M1271.13,3450.2a4.93,4.93,0,1,1,4.93,4.91A4.91,4.91,0,0,1,1271.13,3450.2Z"/><path class="cls-4" d="M1226.76,3412.82a1.83,1.83,0,1,1,1.85,1.84A1.85,1.85,0,0,1,1226.76,3412.82Z"/><path class="cls-4" d="M1200.52,3456.55a3.57,3.57,0,1,1,3.56,3.55A3.55,3.55,0,0,1,1200.52,3456.55Z"/><path class="cls-4" d="M1279.05,3329.26a6,6,0,1,1,5.94,5.94A6,6,0,0,1,1279.05,3329.26Z"/><path class="cls-4" d="M1236.08,3309.55a2.52,2.52,0,0,1,2.53-2.5,2.51,2.51,0,0,1,0,5A2.53,2.53,0,0,1,1236.08,3309.55Z"/></g><g class="cls-3"><path class="cls-4" d="M1099.3,3580.58a4.94,4.94,0,1,1-5-4.94A4.93,4.93,0,0,1,1099.3,3580.58Z"/><path class="cls-4" d="M1143.67,3618a1.85,1.85,0,1,1-3.69,0,1.85,1.85,0,1,1,3.69,0Z"/><path class="cls-4" d="M1169.9,3574.24a3.56,3.56,0,1,1-3.57-3.58A3.56,3.56,0,0,1,1169.9,3574.24Z"/><path class="cls-4" d="M1091.38,3701.51a6,6,0,1,1-6-6A6,6,0,0,1,1091.38,3701.51Z"/><path class="cls-4" d="M1134.31,3721.22a2.5,2.5,0,1,1-2.49-2.51A2.51,2.51,0,0,1,1134.31,3721.22Z"/><path class="cls-4" d="M1150.08,3903.34a4.92,4.92,0,1,1,4.92,4.93A4.94,4.94,0,0,1,1150.08,3903.34Z"/><path class="cls-4" d="M1105.7,3866a1.83,1.83,0,0,1,3.66,0,1.83,1.83,0,1,1-3.66,0Z"/><path class="cls-4" d="M1079.46,3909.7a3.56,3.56,0,1,1,3.56,3.57A3.56,3.56,0,0,1,1079.46,3909.7Z"/><path class="cls-4" d="M1158,3782.42a6,6,0,1,1,6,6A5.95,5.95,0,0,1,1158,3782.42Z"/><path class="cls-4" d="M1115.06,3762.71a2.48,2.48,0,0,1,2.48-2.5,2.5,2.5,0,1,1,0,5A2.48,2.48,0,0,1,1115.06,3762.71Z"/><path class="cls-4" d="M945.79,3544.11a4.94,4.94,0,1,1-4.92-4.93A4.94,4.94,0,0,1,945.79,3544.11Z"/><path class="cls-4" d="M990.16,3581.48a1.84,1.84,0,1,1-1.84-1.85A1.84,1.84,0,0,1,990.16,3581.48Z"/><path class="cls-4" d="M1016.4,3537.75a3.57,3.57,0,1,1-3.58-3.57A3.58,3.58,0,0,1,1016.4,3537.75Z"/><path class="cls-4" d="M980.8,3684.74a2.5,2.5,0,1,1-2.5-2.5A2.48,2.48,0,0,1,980.8,3684.74Z"/><path class="cls-4" d="M996.57,3866.87a4.92,4.92,0,1,1,4.92,4.93A4.91,4.91,0,0,1,996.57,3866.87Z"/><path class="cls-4" d="M952.19,3829.5a1.85,1.85,0,1,1,1.82,1.84A1.84,1.84,0,0,1,952.19,3829.5Z"/><path class="cls-4" d="M1004.46,3745.94a6,6,0,1,1,6,5.95A6,6,0,0,1,1004.46,3745.94Z"/><path class="cls-4" d="M961.53,3726.22a2.51,2.51,0,1,1,2.5,2.51A2.49,2.49,0,0,1,961.53,3726.22Z"/><path class="cls-4" d="M1373.84,3580.58a4.92,4.92,0,1,1-4.93-4.94A4.91,4.91,0,0,1,1373.84,3580.58Z"/><path class="cls-4" d="M1365.93,3701.51a6,6,0,1,1-6-6A6,6,0,0,1,1365.93,3701.51Z"/><path class="cls-4" d="M1354,3909.7a3.57,3.57,0,1,1,3.56,3.57A3.55,3.55,0,0,1,1354,3909.7Z"/><path class="cls-4" d="M1220.35,3544.11a4.93,4.93,0,1,1-4.93-4.93A4.91,4.91,0,0,1,1220.35,3544.11Z"/><path class="cls-4" d="M1264.71,3581.48a1.82,1.82,0,1,1-1.82-1.85A1.82,1.82,0,0,1,1264.71,3581.48Z"/><path class="cls-4" d="M1291,3537.75a3.57,3.57,0,1,1-3.56-3.57A3.59,3.59,0,0,1,1291,3537.75Z"/><path class="cls-4" d="M1212.45,3665a6,6,0,1,1-6-6A6,6,0,0,1,1212.45,3665Z"/><path class="cls-4" d="M1255.37,3684.74a2.5,2.5,0,1,1-2.49-2.5A2.49,2.49,0,0,1,1255.37,3684.74Z"/><path class="cls-4" d="M1271.13,3866.87a4.93,4.93,0,1,1,4.93,4.93A4.91,4.91,0,0,1,1271.13,3866.87Z"/><path class="cls-4" d="M1226.76,3829.5a1.83,1.83,0,1,1,1.85,1.84A1.85,1.85,0,0,1,1226.76,3829.5Z"/><path class="cls-4" d="M1200.52,3873.22a3.57,3.57,0,1,1,3.56,3.57A3.55,3.55,0,0,1,1200.52,3873.22Z"/><path class="cls-4" d="M1279.05,3745.94a6,6,0,1,1,5.94,5.95A6,6,0,0,1,1279.05,3745.94Z"/><path class="cls-4" d="M1236.08,3726.22a2.51,2.51,0,0,1,2.53-2.49,2.5,2.5,0,0,1,0,5A2.53,2.53,0,0,1,1236.08,3726.22Z"/></g><g class="cls-3"><path class="cls-4" d="M1099.3,4009.67a4.94,4.94,0,1,1-5-4.94A4.92,4.92,0,0,1,1099.3,4009.67Z"/><path class="cls-4" d="M1143.67,4047.05a1.85,1.85,0,1,1-3.69,0,1.85,1.85,0,0,1,3.69,0Z"/><path class="cls-4" d="M1169.9,4003.33a3.56,3.56,0,1,1-3.57-3.58A3.58,3.58,0,0,1,1169.9,4003.33Z"/><path class="cls-4" d="M1091.38,4130.6a6,6,0,1,1-6-6A6,6,0,0,1,1091.38,4130.6Z"/><path class="cls-4" d="M945.79,3973.19a4.94,4.94,0,1,1-4.92-4.91A4.94,4.94,0,0,1,945.79,3973.19Z"/><path class="cls-4" d="M990.16,4010.57a1.84,1.84,0,1,1-1.84-1.85A1.85,1.85,0,0,1,990.16,4010.57Z"/><path class="cls-4" d="M1016.4,3966.84a3.57,3.57,0,1,1-7.13,0,3.57,3.57,0,0,1,7.13,0Z"/><path class="cls-4" d="M980.8,4113.84a2.5,2.5,0,1,1-5,0,2.5,2.5,0,1,1,5,0Z"/><path class="cls-4" d="M1373.84,4009.67a4.92,4.92,0,1,1-4.93-4.94A4.9,4.9,0,0,1,1373.84,4009.67Z"/><path class="cls-4" d="M1365.93,4130.6a6,6,0,1,1-6-6A6,6,0,0,1,1365.93,4130.6Z"/><path class="cls-4" d="M1220.35,3973.19a4.93,4.93,0,1,1-4.93-4.91A4.91,4.91,0,0,1,1220.35,3973.19Z"/><path class="cls-4" d="M1264.71,4010.57a1.82,1.82,0,1,1-1.82-1.85A1.83,1.83,0,0,1,1264.71,4010.57Z"/><path class="cls-4" d="M1291,3966.84a3.57,3.57,0,1,1-3.56-3.55A3.59,3.59,0,0,1,1291,3966.84Z"/><path class="cls-4" d="M1212.45,4094.12a6,6,0,1,1-6-6A6,6,0,0,1,1212.45,4094.12Z"/><path class="cls-4" d="M1255.37,4113.84a2.5,2.5,0,1,1-5,0,2.5,2.5,0,1,1,5,0Z"/></g></g><g id="stars-1-3" data-name="stars-1"><g class="cls-3"><path class="cls-4" d="M108.6,3111a4.95,4.95,0,1,1-4.95-5A4.92,4.92,0,0,1,108.6,3111Z"/><path class="cls-4" d="M153,3148.4a1.84,1.84,0,1,1-3.68,0,1.84,1.84,0,1,1,3.68,0Z"/><path class="cls-4" d="M179.2,3104.68a3.56,3.56,0,1,1-3.57-3.57A3.57,3.57,0,0,1,179.2,3104.68Z"/><path class="cls-4" d="M100.68,3232a6,6,0,1,1-6-6A6,6,0,0,1,100.68,3232Z"/><path class="cls-4" d="M143.61,3251.66a2.51,2.51,0,1,1-2.5-2.51A2.52,2.52,0,0,1,143.61,3251.66Z"/><path class="cls-4" d="M159.37,3433.79a4.93,4.93,0,1,1,4.93,4.94A4.94,4.94,0,0,1,159.37,3433.79Z"/><path class="cls-4" d="M115,3396.41a1.84,1.84,0,0,1,3.67,0,1.84,1.84,0,1,1-3.67,0Z"/><path class="cls-4" d="M88.75,3440.16a3.57,3.57,0,1,1,3.57,3.55A3.58,3.58,0,0,1,88.75,3440.16Z"/><path class="cls-4" d="M167.28,3312.88a6,6,0,1,1,5.95,5.94A6,6,0,0,1,167.28,3312.88Z"/><path class="cls-4" d="M124.35,3293.15a2.5,2.5,0,1,1,2.49,2.5A2.48,2.48,0,0,1,124.35,3293.15Z"/><path class="cls-4" d="M25.69,3068.2a3.57,3.57,0,1,1-3.57-3.56A3.58,3.58,0,0,1,25.69,3068.2Z"/><path class="cls-4" d="M5.86,3397.32a4.93,4.93,0,1,1,4.93,4.92A4.92,4.92,0,0,1,5.86,3397.32Z"/><path class="cls-4" d="M13.76,3276.39a6,6,0,1,1,6,5.94A6,6,0,0,1,13.76,3276.39Z"/><path class="cls-4" d="M383.14,3111a4.92,4.92,0,0,1-9.84,0,4.92,4.92,0,1,1,9.84,0Z"/><path class="cls-4" d="M427.53,3148.4a1.84,1.84,0,1,1-3.67,0,1.84,1.84,0,1,1,3.67,0Z"/><path class="cls-4" d="M453.75,3104.68a3.57,3.57,0,1,1-3.55-3.57A3.57,3.57,0,0,1,453.75,3104.68Z"/><path class="cls-4" d="M375.23,3232a6,6,0,1,1-5.94-6A6,6,0,0,1,375.23,3232Z"/><path class="cls-4" d="M418.17,3251.66a2.5,2.5,0,1,1-2.5-2.51A2.52,2.52,0,0,1,418.17,3251.66Z"/><path class="cls-4" d="M433.9,3433.79a4.94,4.94,0,1,1,5,4.94A5,5,0,0,1,433.9,3433.79Z"/><path class="cls-4" d="M389.56,3396.41a1.84,1.84,0,0,1,3.67,0,1.84,1.84,0,1,1-3.67,0Z"/><path class="cls-4" d="M363.32,3440.16a3.57,3.57,0,1,1,3.56,3.55A3.55,3.55,0,0,1,363.32,3440.16Z"/><path class="cls-4" d="M441.82,3312.88a6,6,0,1,1,6,5.94A6,6,0,0,1,441.82,3312.88Z"/><path class="cls-4" d="M398.9,3293.15a2.5,2.5,0,1,1,2.5,2.5A2.5,2.5,0,0,1,398.9,3293.15Z"/><path class="cls-4" d="M229.65,3074.55a4.93,4.93,0,1,1-4.93-4.92A4.92,4.92,0,0,1,229.65,3074.55Z"/><path class="cls-4" d="M274,3111.93a1.83,1.83,0,1,1-1.82-1.84A1.82,1.82,0,0,1,274,3111.93Z"/><path class="cls-4" d="M300.27,3068.2a3.57,3.57,0,1,1-3.56-3.56A3.58,3.58,0,0,1,300.27,3068.2Z"/><path class="cls-4" d="M221.74,3195.47a6,6,0,1,1-6-5.95A5.95,5.95,0,0,1,221.74,3195.47Z"/><path class="cls-4" d="M264.67,3215.19a2.5,2.5,0,1,1-2.5-2.51A2.52,2.52,0,0,1,264.67,3215.19Z"/><path class="cls-4" d="M280.43,3397.32a4.93,4.93,0,1,1,4.93,4.92A4.92,4.92,0,0,1,280.43,3397.32Z"/><path class="cls-4" d="M236.06,3360a1.83,1.83,0,1,1,1.84,1.83A1.84,1.84,0,0,1,236.06,3360Z"/><path class="cls-4" d="M209.82,3403.66a3.57,3.57,0,1,1,3.56,3.57A3.56,3.56,0,0,1,209.82,3403.66Z"/><path class="cls-4" d="M288.34,3276.39a6,6,0,1,1,6,5.94A6,6,0,0,1,288.34,3276.39Z"/><path class="cls-4" d="M245.38,3256.67a2.51,2.51,0,1,1,2.52,2.5A2.5,2.5,0,0,1,245.38,3256.67Z"/><path class="cls-4" d="M678.76,3111a4.94,4.94,0,0,1-9.88,0,4.94,4.94,0,1,1,9.88,0Z"/><path class="cls-4" d="M723.12,3148.4a1.84,1.84,0,1,1-3.68,0,1.84,1.84,0,1,1,3.68,0Z"/><path class="cls-4" d="M749.36,3104.68a3.56,3.56,0,1,1-3.56-3.57A3.56,3.56,0,0,1,749.36,3104.68Z"/><path class="cls-4" d="M670.85,3232a6,6,0,1,1-6-6A5.95,5.95,0,0,1,670.85,3232Z"/><path class="cls-4" d="M713.77,3251.66a2.5,2.5,0,1,1-2.5-2.51A2.51,2.51,0,0,1,713.77,3251.66Z"/><path class="cls-4" d="M729.55,3433.79a4.92,4.92,0,1,1,4.93,4.94A4.94,4.94,0,0,1,729.55,3433.79Z"/><path class="cls-4" d="M685.14,3396.41a1.85,1.85,0,1,1,1.85,1.85A1.86,1.86,0,0,1,685.14,3396.41Z"/><path class="cls-4" d="M658.93,3440.16a3.56,3.56,0,1,1,3.57,3.55A3.56,3.56,0,0,1,658.93,3440.16Z"/><path class="cls-4" d="M737.46,3312.88a6,6,0,1,1,5.95,5.94A6,6,0,0,1,737.46,3312.88Z"/><path class="cls-4" d="M694.52,3293.15a2.5,2.5,0,1,1,2.49,2.5A2.49,2.49,0,0,1,694.52,3293.15Z"/><path class="cls-4" d="M525.27,3074.55a4.94,4.94,0,1,1-4.94-4.92A4.94,4.94,0,0,1,525.27,3074.55Z"/><path class="cls-4" d="M569.63,3111.93a1.84,1.84,0,1,1-1.85-1.84A1.84,1.84,0,0,1,569.63,3111.93Z"/><path class="cls-4" d="M595.85,3068.2a3.55,3.55,0,1,1-3.55-3.56A3.55,3.55,0,0,1,595.85,3068.2Z"/><path class="cls-4" d="M517.35,3195.47a6,6,0,1,1-6-5.95A6,6,0,0,1,517.35,3195.47Z"/><path class="cls-4" d="M560.27,3215.19a2.47,2.47,0,0,1-2.49,2.49,2.49,2.49,0,0,1-2.52-2.49,2.52,2.52,0,0,1,2.52-2.51A2.49,2.49,0,0,1,560.27,3215.19Z"/><path class="cls-4" d="M576,3397.32a4.94,4.94,0,1,1,4.94,4.92A4.94,4.94,0,0,1,576,3397.32Z"/><path class="cls-4" d="M531.66,3360a1.85,1.85,0,0,1,1.83-1.85,1.84,1.84,0,1,1-1.83,1.85Z"/><path class="cls-4" d="M505.42,3403.66a3.57,3.57,0,1,1,3.58,3.57A3.55,3.55,0,0,1,505.42,3403.66Z"/><path class="cls-4" d="M584,3276.39a6,6,0,1,1,5.95,5.94A6,6,0,0,1,584,3276.39Z"/><path class="cls-4" d="M541,3256.67a2.5,2.5,0,1,1,2.5,2.5A2.48,2.48,0,0,1,541,3256.67Z"/><path class="cls-4" d="M953.31,3111a4.93,4.93,0,1,1-4.91-5A4.91,4.91,0,0,1,953.31,3111Z"/><path class="cls-4" d="M945.4,3232a6,6,0,1,1-5.95-6A6,6,0,0,1,945.4,3232Z"/><path class="cls-4" d="M933.48,3440.16a3.56,3.56,0,1,1,3.57,3.55A3.57,3.57,0,0,1,933.48,3440.16Z"/><path class="cls-4" d="M799.82,3074.55a4.94,4.94,0,1,1-4.94-4.92A4.94,4.94,0,0,1,799.82,3074.55Z"/><path class="cls-4" d="M844.2,3111.93a1.84,1.84,0,1,1-1.83-1.84A1.83,1.83,0,0,1,844.2,3111.93Z"/><path class="cls-4" d="M870.44,3068.2a3.58,3.58,0,1,1-3.58-3.56A3.59,3.59,0,0,1,870.44,3068.2Z"/><path class="cls-4" d="M791.89,3195.47a5.95,5.95,0,1,1-5.95-5.95A6,6,0,0,1,791.89,3195.47Z"/><path class="cls-4" d="M834.84,3215.19a2.51,2.51,0,0,1-5,0,2.51,2.51,0,1,1,5,0Z"/><path class="cls-4" d="M850.59,3397.32a4.93,4.93,0,1,1,4.93,4.92A4.93,4.93,0,0,1,850.59,3397.32Z"/><path class="cls-4" d="M806.22,3360a1.84,1.84,0,1,1,1.85,1.83A1.84,1.84,0,0,1,806.22,3360Z"/><path class="cls-4" d="M780,3403.66a3.56,3.56,0,1,1,3.56,3.57A3.55,3.55,0,0,1,780,3403.66Z"/><path class="cls-4" d="M858.5,3276.39a6,6,0,1,1,6,5.94A6,6,0,0,1,858.5,3276.39Z"/><path class="cls-4" d="M815.57,3256.67a2.51,2.51,0,1,1,2.51,2.5A2.49,2.49,0,0,1,815.57,3256.67Z"/></g><g class="cls-3"><path class="cls-4" d="M108.6,3527.71a4.95,4.95,0,1,1-4.95-4.94A4.94,4.94,0,0,1,108.6,3527.71Z"/><path class="cls-4" d="M153,3565.09a1.84,1.84,0,1,1-1.83-1.85A1.84,1.84,0,0,1,153,3565.09Z"/><path class="cls-4" d="M179.2,3521.35a3.56,3.56,0,1,1-3.57-3.56A3.58,3.58,0,0,1,179.2,3521.35Z"/><path class="cls-4" d="M100.68,3648.62a6,6,0,1,1-6-5.94A6,6,0,0,1,100.68,3648.62Z"/><path class="cls-4" d="M143.61,3668.35a2.51,2.51,0,1,1-2.5-2.51A2.52,2.52,0,0,1,143.61,3668.35Z"/><path class="cls-4" d="M159.37,3850.46a4.93,4.93,0,1,1,4.93,4.93A4.94,4.94,0,0,1,159.37,3850.46Z"/><path class="cls-4" d="M115,3813.08a1.84,1.84,0,0,1,3.67,0,1.84,1.84,0,1,1-3.67,0Z"/><path class="cls-4" d="M88.75,3856.82a3.57,3.57,0,1,1,3.57,3.57A3.57,3.57,0,0,1,88.75,3856.82Z"/><path class="cls-4" d="M167.28,3729.55a6,6,0,1,1,5.95,6A5.95,5.95,0,0,1,167.28,3729.55Z"/><path class="cls-4" d="M124.35,3709.83a2.5,2.5,0,1,1,2.49,2.49A2.48,2.48,0,0,1,124.35,3709.83Z"/><path class="cls-4" d="M25.69,3484.88a3.57,3.57,0,1,1-3.57-3.57A3.57,3.57,0,0,1,25.69,3484.88Z"/><path class="cls-4" d="M5.86,3814a4.93,4.93,0,1,1,4.93,4.93A4.92,4.92,0,0,1,5.86,3814Z"/><path class="cls-4" d="M13.76,3693.07a6,6,0,1,1,6,5.94A6,6,0,0,1,13.76,3693.07Z"/><path class="cls-4" d="M383.14,3527.71a4.92,4.92,0,1,1-4.93-4.94A4.91,4.91,0,0,1,383.14,3527.71Z"/><path class="cls-4" d="M427.53,3565.09a1.84,1.84,0,1,1-3.67,0,1.84,1.84,0,1,1,3.67,0Z"/><path class="cls-4" d="M453.75,3521.35a3.57,3.57,0,1,1-3.55-3.56A3.58,3.58,0,0,1,453.75,3521.35Z"/><path class="cls-4" d="M375.23,3648.62a6,6,0,1,1-5.94-5.94A6,6,0,0,1,375.23,3648.62Z"/><path class="cls-4" d="M418.17,3668.35a2.5,2.5,0,1,1-5,0,2.5,2.5,0,1,1,5,0Z"/><path class="cls-4" d="M433.9,3850.46a4.94,4.94,0,1,1,5,4.93A5,5,0,0,1,433.9,3850.46Z"/><path class="cls-4" d="M389.56,3813.08a1.84,1.84,0,0,1,3.67,0,1.84,1.84,0,1,1-3.67,0Z"/><path class="cls-4" d="M363.32,3856.82a3.57,3.57,0,1,1,3.56,3.57A3.54,3.54,0,0,1,363.32,3856.82Z"/><path class="cls-4" d="M441.82,3729.55a6,6,0,1,1,6,6A6,6,0,0,1,441.82,3729.55Z"/><path class="cls-4" d="M398.9,3709.83a2.5,2.5,0,1,1,2.5,2.49A2.5,2.5,0,0,1,398.9,3709.83Z"/><path class="cls-4" d="M229.65,3491.23a4.93,4.93,0,1,1-4.93-4.93A4.92,4.92,0,0,1,229.65,3491.23Z"/><path class="cls-4" d="M274,3528.61a1.83,1.83,0,1,1-1.82-1.85A1.83,1.83,0,0,1,274,3528.61Z"/><path class="cls-4" d="M300.27,3484.88a3.57,3.57,0,1,1-3.56-3.57A3.57,3.57,0,0,1,300.27,3484.88Z"/><path class="cls-4" d="M221.74,3612.16a6,6,0,1,1-6-6A5.95,5.95,0,0,1,221.74,3612.16Z"/><path class="cls-4" d="M264.67,3631.86a2.5,2.5,0,1,1-2.5-2.51A2.5,2.5,0,0,1,264.67,3631.86Z"/><path class="cls-4" d="M280.43,3814a4.93,4.93,0,1,1,4.93,4.93A4.93,4.93,0,0,1,280.43,3814Z"/><path class="cls-4" d="M236.06,3776.63a1.83,1.83,0,1,1,1.84,1.83A1.84,1.84,0,0,1,236.06,3776.63Z"/><path class="cls-4" d="M209.82,3820.34a3.57,3.57,0,1,1,3.56,3.56A3.57,3.57,0,0,1,209.82,3820.34Z"/><path class="cls-4" d="M288.34,3693.07a6,6,0,1,1,6,5.94A6,6,0,0,1,288.34,3693.07Z"/><path class="cls-4" d="M245.38,3673.34a2.51,2.51,0,1,1,2.52,2.51A2.5,2.5,0,0,1,245.38,3673.34Z"/><path class="cls-4" d="M678.76,3527.71a4.94,4.94,0,1,1-4.93-4.94A4.93,4.93,0,0,1,678.76,3527.71Z"/><path class="cls-4" d="M723.12,3565.09a1.84,1.84,0,1,1-3.68,0,1.84,1.84,0,1,1,3.68,0Z"/><path class="cls-4" d="M749.36,3521.35a3.56,3.56,0,1,1-3.56-3.56A3.56,3.56,0,0,1,749.36,3521.35Z"/><path class="cls-4" d="M670.85,3648.62a6,6,0,1,1-6-5.94A5.95,5.95,0,0,1,670.85,3648.62Z"/><path class="cls-4" d="M713.77,3668.35a2.5,2.5,0,1,1-2.5-2.51A2.52,2.52,0,0,1,713.77,3668.35Z"/><path class="cls-4" d="M729.55,3850.46a4.92,4.92,0,1,1,4.93,4.93A4.94,4.94,0,0,1,729.55,3850.46Z"/><path class="cls-4" d="M685.14,3813.08a1.85,1.85,0,0,1,3.69,0,1.85,1.85,0,1,1-3.69,0Z"/><path class="cls-4" d="M658.93,3856.82a3.56,3.56,0,1,1,3.57,3.57A3.55,3.55,0,0,1,658.93,3856.82Z"/><path class="cls-4" d="M737.46,3729.55a6,6,0,1,1,5.95,6A5.95,5.95,0,0,1,737.46,3729.55Z"/><path class="cls-4" d="M694.52,3709.83a2.5,2.5,0,1,1,2.49,2.49A2.48,2.48,0,0,1,694.52,3709.83Z"/><path class="cls-4" d="M525.27,3491.23a4.94,4.94,0,1,1-4.94-4.93A4.93,4.93,0,0,1,525.27,3491.23Z"/><path class="cls-4" d="M569.63,3528.61a1.84,1.84,0,1,1-1.85-1.85A1.85,1.85,0,0,1,569.63,3528.61Z"/><path class="cls-4" d="M595.85,3484.88a3.55,3.55,0,1,1-3.55-3.57A3.54,3.54,0,0,1,595.85,3484.88Z"/><path class="cls-4" d="M517.35,3612.16a6,6,0,1,1-6-6A6,6,0,0,1,517.35,3612.16Z"/><path class="cls-4" d="M560.27,3631.86a2.48,2.48,0,0,1-2.49,2.51,2.51,2.51,0,1,1,2.49-2.51Z"/><path class="cls-4" d="M576,3814a4.94,4.94,0,1,1,4.94,4.93A5,5,0,0,1,576,3814Z"/><path class="cls-4" d="M531.66,3776.63a1.85,1.85,0,0,1,1.83-1.86,1.85,1.85,0,0,1,0,3.69A1.86,1.86,0,0,1,531.66,3776.63Z"/><path class="cls-4" d="M505.42,3820.34a3.57,3.57,0,1,1,3.58,3.56A3.56,3.56,0,0,1,505.42,3820.34Z"/><path class="cls-4" d="M584,3693.07a6,6,0,1,1,5.95,5.94A6,6,0,0,1,584,3693.07Z"/><path class="cls-4" d="M541,3673.34a2.5,2.5,0,1,1,2.5,2.51A2.48,2.48,0,0,1,541,3673.34Z"/><path class="cls-4" d="M953.31,3527.71a4.93,4.93,0,1,1-4.91-4.94A4.92,4.92,0,0,1,953.31,3527.71Z"/><path class="cls-4" d="M945.4,3648.62a6,6,0,1,1-5.95-5.94A6,6,0,0,1,945.4,3648.62Z"/><path class="cls-4" d="M933.48,3856.82a3.56,3.56,0,1,1,3.57,3.57A3.56,3.56,0,0,1,933.48,3856.82Z"/><path class="cls-4" d="M799.82,3491.23a4.94,4.94,0,1,1-4.94-4.93A4.94,4.94,0,0,1,799.82,3491.23Z"/><path class="cls-4" d="M844.2,3528.61a1.84,1.84,0,1,1-1.83-1.85A1.85,1.85,0,0,1,844.2,3528.61Z"/><path class="cls-4" d="M870.44,3484.88a3.58,3.58,0,1,1-3.58-3.57A3.58,3.58,0,0,1,870.44,3484.88Z"/><path class="cls-4" d="M791.89,3612.16a6,6,0,1,1-5.95-6A6,6,0,0,1,791.89,3612.16Z"/><path class="cls-4" d="M834.84,3631.86a2.51,2.51,0,1,1-5,0,2.51,2.51,0,1,1,5,0Z"/><path class="cls-4" d="M850.59,3814a4.93,4.93,0,1,1,4.93,4.93A4.94,4.94,0,0,1,850.59,3814Z"/><path class="cls-4" d="M806.22,3776.63a1.84,1.84,0,1,1,3.68,0,1.84,1.84,0,0,1-3.68,0Z"/><path class="cls-4" d="M780,3820.34a3.56,3.56,0,1,1,3.56,3.56A3.56,3.56,0,0,1,780,3820.34Z"/><path class="cls-4" d="M858.5,3693.07a6,6,0,1,1,6,5.94A6,6,0,0,1,858.5,3693.07Z"/><path class="cls-4" d="M815.57,3673.34a2.51,2.51,0,0,1,5,0,2.51,2.51,0,0,1-5,0Z"/></g><g class="cls-3"><path class="cls-4" d="M108.6,3956.8a4.95,4.95,0,1,1-4.95-4.94A4.94,4.94,0,0,1,108.6,3956.8Z"/><path class="cls-4" d="M153,3994.16a1.84,1.84,0,1,1-3.68,0,1.84,1.84,0,0,1,3.68,0Z"/><path class="cls-4" d="M179.2,3950.44a3.56,3.56,0,1,1-3.57-3.56A3.58,3.58,0,0,1,179.2,3950.44Z"/><path class="cls-4" d="M100.68,4077.71a6,6,0,1,1-6-5.94A6,6,0,0,1,100.68,4077.71Z"/><path class="cls-4" d="M25.69,3914a3.57,3.57,0,1,1-3.57-3.57A3.58,3.58,0,0,1,25.69,3914Z"/><path class="cls-4" d="M383.14,3956.8a4.92,4.92,0,1,1-4.93-4.94A4.91,4.91,0,0,1,383.14,3956.8Z"/><path class="cls-4" d="M427.53,3994.16a1.84,1.84,0,1,1-3.67,0,1.84,1.84,0,0,1,3.67,0Z"/><path class="cls-4" d="M453.75,3950.44a3.57,3.57,0,1,1-3.55-3.56A3.58,3.58,0,0,1,453.75,3950.44Z"/><path class="cls-4" d="M375.23,4077.71a6,6,0,1,1-5.94-5.94A6,6,0,0,1,375.23,4077.71Z"/><path class="cls-4" d="M229.65,3920.32a4.93,4.93,0,1,1-4.93-4.93A4.92,4.92,0,0,1,229.65,3920.32Z"/><path class="cls-4" d="M274,3957.7a1.83,1.83,0,1,1-1.82-1.85A1.84,1.84,0,0,1,274,3957.7Z"/><path class="cls-4" d="M300.27,3914a3.57,3.57,0,1,1-3.56-3.57A3.58,3.58,0,0,1,300.27,3914Z"/><path class="cls-4" d="M221.74,4041.25a6,6,0,1,1-6-6A5.95,5.95,0,0,1,221.74,4041.25Z"/><path class="cls-4" d="M264.67,4061a2.5,2.5,0,1,1-2.5-2.51A2.5,2.5,0,0,1,264.67,4061Z"/><path class="cls-4" d="M678.76,3956.8a4.94,4.94,0,1,1-4.93-4.94A4.93,4.93,0,0,1,678.76,3956.8Z"/><path class="cls-4" d="M723.12,3994.16a1.84,1.84,0,1,1-3.68,0,1.84,1.84,0,0,1,3.68,0Z"/><ellipse class="cls-4" cx="745.8" cy="3950.44" rx="3.56" ry="3.57"/><path class="cls-4" d="M670.85,4077.71a6,6,0,1,1-6-5.94A5.95,5.95,0,0,1,670.85,4077.71Z"/><path class="cls-4" d="M525.27,3920.32a4.94,4.94,0,1,1-4.94-4.93A4.94,4.94,0,0,1,525.27,3920.32Z"/><path class="cls-4" d="M569.63,3957.7a1.84,1.84,0,1,1-1.85-1.85A1.86,1.86,0,0,1,569.63,3957.7Z"/><path class="cls-4" d="M595.85,3914a3.55,3.55,0,1,1-3.55-3.57A3.55,3.55,0,0,1,595.85,3914Z"/><path class="cls-4" d="M517.35,4041.25a6,6,0,1,1-6-6A6,6,0,0,1,517.35,4041.25Z"/><path class="cls-4" d="M560.27,4061a2.48,2.48,0,0,1-2.49,2.5,2.51,2.51,0,1,1,2.49-2.5Z"/><path class="cls-4" d="M953.31,3956.8a4.93,4.93,0,1,1-4.91-4.94A4.92,4.92,0,0,1,953.31,3956.8Z"/><path class="cls-4" d="M945.4,4077.71a6,6,0,1,1-5.95-5.94A6,6,0,0,1,945.4,4077.71Z"/><path class="cls-4" d="M799.82,3920.32a4.94,4.94,0,1,1-4.94-4.93A4.94,4.94,0,0,1,799.82,3920.32Z"/><path class="cls-4" d="M844.2,3957.7a1.84,1.84,0,1,1-3.67,0,1.84,1.84,0,1,1,3.67,0Z"/><path class="cls-4" d="M870.44,3914a3.58,3.58,0,1,1-3.58-3.57A3.59,3.59,0,0,1,870.44,3914Z"/><path class="cls-4" d="M791.89,4041.25a6,6,0,1,1-5.95-6A6,6,0,0,1,791.89,4041.25Z"/><path class="cls-4" d="M834.84,4061a2.51,2.51,0,0,1-5,0,2.51,2.51,0,1,1,5,0Z"/></g></g><g id="stars-2-5" data-name="stars-2"><g class="cls-3"><path class="cls-4" d="M1098.3,4250.91a4.94,4.94,0,1,1-5-4.94A4.93,4.93,0,0,1,1098.3,4250.91Z"/><path class="cls-4" d="M1142.67,4288.28a1.85,1.85,0,1,1-3.69,0,1.85,1.85,0,0,1,3.69,0Z"/><path class="cls-4" d="M1168.9,4244.56a3.56,3.56,0,1,1-3.57-3.57A3.56,3.56,0,0,1,1168.9,4244.56Z"/><path class="cls-4" d="M1090.38,4371.82a6,6,0,1,1-6-5.95A6,6,0,0,1,1090.38,4371.82Z"/><path class="cls-4" d="M1133.31,4391.54a2.5,2.5,0,1,1-2.49-2.5A2.51,2.51,0,0,1,1133.31,4391.54Z"/><path class="cls-4" d="M1157,4452.75a6,6,0,1,1,6,5.95A6,6,0,0,1,1157,4452.75Z"/><path class="cls-4" d="M1114.06,4433a2.48,2.48,0,0,1,2.48-2.5,2.5,2.5,0,1,1,0,5A2.48,2.48,0,0,1,1114.06,4433Z"/><path class="cls-4" d="M944.79,4214.44a4.94,4.94,0,1,1-4.92-4.93A4.93,4.93,0,0,1,944.79,4214.44Z"/><path class="cls-4" d="M989.16,4251.81a1.84,1.84,0,1,1-1.84-1.85A1.84,1.84,0,0,1,989.16,4251.81Z"/><path class="cls-4" d="M1015.4,4208.08a3.57,3.57,0,1,1-3.58-3.57A3.59,3.59,0,0,1,1015.4,4208.08Z"/><path class="cls-4" d="M979.8,4355.06a2.5,2.5,0,1,1-2.5-2.5A2.48,2.48,0,0,1,979.8,4355.06Z"/><path class="cls-4" d="M951.19,4499.82a1.85,1.85,0,1,1,1.82,1.84A1.84,1.84,0,0,1,951.19,4499.82Z"/><path class="cls-4" d="M1003.46,4416.26a6,6,0,1,1,6,5.94A6,6,0,0,1,1003.46,4416.26Z"/><path class="cls-4" d="M960.53,4396.55a2.51,2.51,0,1,1,2.5,2.51A2.51,2.51,0,0,1,960.53,4396.55Z"/><path class="cls-4" d="M1372.84,4250.91a4.92,4.92,0,1,1-4.93-4.94A4.91,4.91,0,0,1,1372.84,4250.91Z"/><path class="cls-4" d="M1364.93,4371.82a6,6,0,1,1-6-5.95A6,6,0,0,1,1364.93,4371.82Z"/><path class="cls-4" d="M1219.35,4214.44a4.93,4.93,0,1,1-4.93-4.93A4.9,4.9,0,0,1,1219.35,4214.44Z"/><path class="cls-4" d="M1263.71,4251.81a1.82,1.82,0,1,1-1.82-1.85A1.83,1.83,0,0,1,1263.71,4251.81Z"/><path class="cls-4" d="M1290,4208.08a3.57,3.57,0,1,1-3.56-3.57A3.59,3.59,0,0,1,1290,4208.08Z"/><path class="cls-4" d="M1211.45,4335.36a6,6,0,1,1-6-6A6,6,0,0,1,1211.45,4335.36Z"/><path class="cls-4" d="M1254.37,4355.06a2.5,2.5,0,1,1-2.49-2.5A2.49,2.49,0,0,1,1254.37,4355.06Z"/><path class="cls-4" d="M1225.76,4499.82a1.83,1.83,0,1,1,1.85,1.84A1.85,1.85,0,0,1,1225.76,4499.82Z"/><path class="cls-4" d="M1278.05,4416.26a6,6,0,1,1,5.94,5.94A6,6,0,0,1,1278.05,4416.26Z"/><path class="cls-4" d="M1235.08,4396.55a2.52,2.52,0,0,1,2.53-2.5,2.51,2.51,0,0,1,0,5A2.53,2.53,0,0,1,1235.08,4396.55Z"/></g></g><g id="stars-1-4" data-name="stars-1"><g class="cls-3"><path class="cls-4" d="M107.6,4198a4.95,4.95,0,1,1-4.95-5A4.92,4.92,0,0,1,107.6,4198Z"/><path class="cls-4" d="M152,4235.4a1.84,1.84,0,1,1-3.68,0,1.84,1.84,0,1,1,3.68,0Z"/><path class="cls-4" d="M178.2,4191.68a3.56,3.56,0,1,1-3.57-3.57A3.57,3.57,0,0,1,178.2,4191.68Z"/><path class="cls-4" d="M99.68,4319a6,6,0,1,1-6-6A6,6,0,0,1,99.68,4319Z"/><path class="cls-4" d="M142.61,4338.66a2.51,2.51,0,1,1-2.5-2.51A2.52,2.52,0,0,1,142.61,4338.66Z"/><path class="cls-4" d="M114,4483.41a1.84,1.84,0,0,1,3.67,0,1.84,1.84,0,1,1-3.67,0Z"/><path class="cls-4" d="M166.28,4399.88a6,6,0,1,1,5.95,5.94A6,6,0,0,1,166.28,4399.88Z"/><path class="cls-4" d="M123.35,4380.15a2.5,2.5,0,1,1,2.49,2.5A2.48,2.48,0,0,1,123.35,4380.15Z"/><path class="cls-4" d="M24.69,4155.2a3.57,3.57,0,1,1-3.57-3.56A3.58,3.58,0,0,1,24.69,4155.2Z"/><path class="cls-4" d="M4.86,4484.32a4.93,4.93,0,1,1,4.93,4.92A4.92,4.92,0,0,1,4.86,4484.32Z"/><path class="cls-4" d="M12.76,4363.39a6,6,0,1,1,6,5.94A6,6,0,0,1,12.76,4363.39Z"/><path class="cls-4" d="M382.14,4198a4.92,4.92,0,0,1-9.84,0,4.92,4.92,0,1,1,9.84,0Z"/><path class="cls-4" d="M426.53,4235.4a1.84,1.84,0,1,1-3.67,0,1.84,1.84,0,1,1,3.67,0Z"/><path class="cls-4" d="M452.75,4191.68a3.57,3.57,0,1,1-3.55-3.57A3.57,3.57,0,0,1,452.75,4191.68Z"/><path class="cls-4" d="M374.23,4319a6,6,0,1,1-5.94-6A6,6,0,0,1,374.23,4319Z"/><path class="cls-4" d="M417.17,4338.66a2.5,2.5,0,1,1-2.5-2.51A2.52,2.52,0,0,1,417.17,4338.66Z"/><path class="cls-4" d="M388.56,4483.41a1.84,1.84,0,0,1,3.67,0,1.84,1.84,0,1,1-3.67,0Z"/><path class="cls-4" d="M440.82,4399.88a6,6,0,1,1,6,5.94A6,6,0,0,1,440.82,4399.88Z"/><path class="cls-4" d="M397.9,4380.15a2.5,2.5,0,1,1,2.5,2.5A2.5,2.5,0,0,1,397.9,4380.15Z"/><path class="cls-4" d="M228.65,4161.55a4.93,4.93,0,1,1-4.93-4.92A4.92,4.92,0,0,1,228.65,4161.55Z"/><path class="cls-4" d="M273,4198.93a1.83,1.83,0,1,1-1.82-1.84A1.82,1.82,0,0,1,273,4198.93Z"/><path class="cls-4" d="M299.27,4155.2a3.57,3.57,0,1,1-3.56-3.56A3.58,3.58,0,0,1,299.27,4155.2Z"/><path class="cls-4" d="M220.74,4282.47a6,6,0,1,1-6-5.95A5.95,5.95,0,0,1,220.74,4282.47Z"/><path class="cls-4" d="M263.67,4302.19a2.5,2.5,0,1,1-2.5-2.51A2.52,2.52,0,0,1,263.67,4302.19Z"/><path class="cls-4" d="M279.43,4484.32a4.93,4.93,0,1,1,4.93,4.92A4.92,4.92,0,0,1,279.43,4484.32Z"/><path class="cls-4" d="M235.06,4447a1.83,1.83,0,1,1,1.84,1.83A1.84,1.84,0,0,1,235.06,4447Z"/><path class="cls-4" d="M208.82,4490.66a3.57,3.57,0,1,1,3.56,3.57A3.56,3.56,0,0,1,208.82,4490.66Z"/><path class="cls-4" d="M287.34,4363.39a6,6,0,1,1,6,5.94A6,6,0,0,1,287.34,4363.39Z"/><path class="cls-4" d="M244.38,4343.67a2.51,2.51,0,1,1,2.52,2.5A2.5,2.5,0,0,1,244.38,4343.67Z"/><path class="cls-4" d="M677.76,4198a4.94,4.94,0,0,1-9.88,0,4.94,4.94,0,1,1,9.88,0Z"/><path class="cls-4" d="M722.12,4235.4a1.84,1.84,0,1,1-3.68,0,1.84,1.84,0,1,1,3.68,0Z"/><path class="cls-4" d="M748.36,4191.68a3.56,3.56,0,1,1-3.56-3.57A3.56,3.56,0,0,1,748.36,4191.68Z"/><path class="cls-4" d="M669.85,4319a6,6,0,1,1-6-6A5.95,5.95,0,0,1,669.85,4319Z"/><path class="cls-4" d="M712.77,4338.66a2.5,2.5,0,1,1-2.5-2.51A2.51,2.51,0,0,1,712.77,4338.66Z"/><path class="cls-4" d="M684.14,4483.41a1.85,1.85,0,1,1,1.85,1.85A1.86,1.86,0,0,1,684.14,4483.41Z"/><path class="cls-4" d="M736.46,4399.88a6,6,0,1,1,5.95,5.94A6,6,0,0,1,736.46,4399.88Z"/><path class="cls-4" d="M693.52,4380.15a2.5,2.5,0,1,1,2.49,2.5A2.49,2.49,0,0,1,693.52,4380.15Z"/><path class="cls-4" d="M524.27,4161.55a4.94,4.94,0,1,1-4.94-4.92A4.94,4.94,0,0,1,524.27,4161.55Z"/><path class="cls-4" d="M568.63,4198.93a1.84,1.84,0,1,1-1.85-1.84A1.84,1.84,0,0,1,568.63,4198.93Z"/><path class="cls-4" d="M594.85,4155.2a3.55,3.55,0,1,1-3.55-3.56A3.55,3.55,0,0,1,594.85,4155.2Z"/><path class="cls-4" d="M516.35,4282.47a6,6,0,1,1-6-5.95A6,6,0,0,1,516.35,4282.47Z"/><path class="cls-4" d="M559.27,4302.19a2.47,2.47,0,0,1-2.49,2.49,2.49,2.49,0,0,1-2.52-2.49,2.52,2.52,0,0,1,2.52-2.51A2.49,2.49,0,0,1,559.27,4302.19Z"/><path class="cls-4" d="M575,4484.32a4.94,4.94,0,1,1,4.94,4.92A4.94,4.94,0,0,1,575,4484.32Z"/><path class="cls-4" d="M530.66,4447a1.85,1.85,0,0,1,1.83-1.85,1.84,1.84,0,1,1-1.83,1.85Z"/><path class="cls-4" d="M504.42,4490.66a3.57,3.57,0,1,1,3.58,3.57A3.55,3.55,0,0,1,504.42,4490.66Z"/><path class="cls-4" d="M583,4363.39a6,6,0,1,1,5.95,5.94A6,6,0,0,1,583,4363.39Z"/><path class="cls-4" d="M540,4343.67a2.5,2.5,0,1,1,2.5,2.5A2.48,2.48,0,0,1,540,4343.67Z"/><path class="cls-4" d="M952.31,4198a4.93,4.93,0,1,1-4.91-5A4.91,4.91,0,0,1,952.31,4198Z"/><path class="cls-4" d="M944.4,4319a6,6,0,1,1-5.95-6A6,6,0,0,1,944.4,4319Z"/><path class="cls-4" d="M798.82,4161.55a4.94,4.94,0,1,1-4.94-4.92A4.94,4.94,0,0,1,798.82,4161.55Z"/><path class="cls-4" d="M843.2,4198.93a1.84,1.84,0,1,1-1.83-1.84A1.83,1.83,0,0,1,843.2,4198.93Z"/><path class="cls-4" d="M869.44,4155.2a3.58,3.58,0,1,1-3.58-3.56A3.59,3.59,0,0,1,869.44,4155.2Z"/><path class="cls-4" d="M790.89,4282.47a5.95,5.95,0,1,1-5.95-5.95A6,6,0,0,1,790.89,4282.47Z"/><path class="cls-4" d="M833.84,4302.19a2.51,2.51,0,0,1-5,0,2.51,2.51,0,1,1,5,0Z"/><path class="cls-4" d="M849.59,4484.32a4.93,4.93,0,1,1,4.93,4.92A4.93,4.93,0,0,1,849.59,4484.32Z"/><path class="cls-4" d="M805.22,4447a1.84,1.84,0,1,1,1.85,1.83A1.84,1.84,0,0,1,805.22,4447Z"/><path class="cls-4" d="M779,4490.66a3.56,3.56,0,1,1,3.56,3.57A3.55,3.55,0,0,1,779,4490.66Z"/><path class="cls-4" d="M857.5,4363.39a6,6,0,1,1,6,5.94A6,6,0,0,1,857.5,4363.39Z"/><path class="cls-4" d="M814.57,4343.67a2.51,2.51,0,1,1,2.51,2.5A2.49,2.49,0,0,1,814.57,4343.67Z"/></g></g></g></g></svg>